<svg width="595" height="310" viewBox="0 0 595 310" fill="none" xmlns="http://www.w3.org/2000/svg">
<g filter="url(#filter0_ddddd_45_270)">
<g clip-path="url(#clip0_45_270)">
<path d="M0 23H420C492.902 23 552 82.0984 552 155C552 227.902 492.902 287 420 287H0V23Z" fill="#FFC700"/>
<g filter="url(#filter1_ddddd_45_270)">
<g clip-path="url(#clip1_45_270)">
<rect x="194" y="34" width="358" height="292" rx="30.9525" fill="white"/>
<rect width="353.76" height="27.7356" transform="translate(194 34)" fill="black"/>
<rect width="141.276" height="264.382" transform="translate(194 61.6179)" fill="#74247A"/>
<path d="M209.402 119.365L213.12 123.083L216.838 119.365" stroke="white" stroke-width="2.12445" stroke-linecap="round" stroke-linejoin="round"/>
<path d="M228.82 122.107V120.928H233.366V122.107H228.82ZM227.11 123.605L230.339 116.732H231.868L235.129 123.605H233.589L230.764 117.412H231.443L228.639 123.605H227.11ZM239.793 123.732C239.326 123.732 238.926 123.651 238.593 123.488C238.267 123.318 238.002 123.098 237.796 122.829C237.591 122.553 237.439 122.252 237.339 121.926C237.24 121.601 237.191 121.282 237.191 120.97C237.191 120.581 237.237 120.22 237.329 119.887C237.428 119.554 237.58 119.264 237.786 119.016C237.991 118.761 238.257 118.563 238.582 118.421C238.915 118.279 239.319 118.209 239.793 118.209C240.324 118.209 240.802 118.325 241.227 118.559C241.652 118.793 241.988 119.119 242.236 119.536C242.491 119.947 242.619 120.425 242.619 120.97C242.619 121.53 242.491 122.018 242.236 122.436C241.981 122.847 241.641 123.166 241.217 123.392C240.792 123.619 240.317 123.732 239.793 123.732ZM239.347 122.659C239.722 122.659 240.048 122.589 240.324 122.447C240.608 122.305 240.824 122.111 240.972 121.863C241.128 121.608 241.206 121.31 241.206 120.97C241.206 120.461 241.043 120.05 240.717 119.738C240.399 119.427 239.942 119.271 239.347 119.271C238.972 119.271 238.628 119.338 238.317 119.473C238.012 119.607 237.771 119.802 237.594 120.057C237.417 120.305 237.329 120.609 237.329 120.97C237.329 121.31 237.41 121.608 237.573 121.863C237.736 122.111 237.97 122.305 238.274 122.447C238.579 122.589 238.936 122.659 239.347 122.659ZM235.948 118.325H237.265L237.329 119.728V125.729H235.948V118.325ZM247.48 123.732C247.012 123.732 246.612 123.651 246.279 123.488C245.954 123.318 245.688 123.098 245.483 122.829C245.277 122.553 245.125 122.252 245.026 121.926C244.927 121.601 244.877 121.282 244.877 120.97C244.877 120.581 244.923 120.22 245.015 119.887C245.115 119.554 245.267 119.264 245.472 119.016C245.678 118.761 245.943 118.563 246.269 118.421C246.602 118.279 247.005 118.209 247.48 118.209C248.011 118.209 248.489 118.325 248.914 118.559C249.339 118.793 249.675 119.119 249.923 119.536C250.178 119.947 250.305 120.425 250.305 120.97C250.305 121.53 250.178 122.018 249.923 122.436C249.668 122.847 249.328 123.166 248.903 123.392C248.478 123.619 248.004 123.732 247.48 123.732ZM247.034 122.659C247.409 122.659 247.735 122.589 248.011 122.447C248.294 122.305 248.51 122.111 248.659 121.863C248.815 121.608 248.893 121.31 248.893 120.97C248.893 120.461 248.73 120.05 248.404 119.738C248.085 119.427 247.629 119.271 247.034 119.271C246.658 119.271 246.315 119.338 246.003 119.473C245.699 119.607 245.458 119.802 245.281 120.057C245.104 120.305 245.015 120.609 245.015 120.97C245.015 121.31 245.097 121.608 245.26 121.863C245.423 122.111 245.656 122.305 245.961 122.447C246.265 122.589 246.623 122.659 247.034 122.659ZM243.635 118.325H244.952L245.015 119.728V125.729H243.635V118.325ZM251.109 121.852H252.383C252.461 122.093 252.621 122.291 252.861 122.447C253.109 122.596 253.431 122.67 253.828 122.67C254.097 122.67 254.306 122.645 254.455 122.596C254.603 122.546 254.706 122.475 254.763 122.383C254.819 122.284 254.848 122.174 254.848 122.054C254.848 121.905 254.802 121.792 254.71 121.714C254.618 121.629 254.476 121.562 254.285 121.512C254.094 121.463 253.849 121.417 253.552 121.374C253.254 121.324 252.968 121.264 252.691 121.193C252.415 121.123 252.171 121.031 251.959 120.917C251.746 120.797 251.576 120.648 251.449 120.471C251.328 120.287 251.268 120.064 251.268 119.802C251.268 119.547 251.328 119.32 251.449 119.122C251.576 118.924 251.75 118.757 251.969 118.623C252.196 118.488 252.458 118.386 252.755 118.315C253.06 118.244 253.385 118.209 253.732 118.209C254.256 118.209 254.692 118.287 255.039 118.442C255.386 118.591 255.644 118.803 255.814 119.08C255.991 119.349 256.08 119.66 256.08 120.014H254.858C254.802 119.752 254.688 119.565 254.518 119.451C254.349 119.331 254.086 119.271 253.732 119.271C253.385 119.271 253.123 119.324 252.946 119.43C252.769 119.536 252.681 119.682 252.681 119.866C252.681 120.014 252.734 120.131 252.84 120.216C252.953 120.294 253.116 120.358 253.329 120.407C253.548 120.457 253.821 120.51 254.147 120.567C254.423 120.623 254.685 120.687 254.933 120.758C255.188 120.829 255.414 120.921 255.613 121.034C255.811 121.14 255.967 121.286 256.08 121.47C256.2 121.647 256.261 121.873 256.261 122.149C256.261 122.489 256.161 122.776 255.963 123.01C255.772 123.244 255.496 123.424 255.135 123.552C254.773 123.672 254.341 123.732 253.839 123.732C253.393 123.732 253.007 123.686 252.681 123.594C252.362 123.495 252.097 123.371 251.884 123.222C251.672 123.067 251.505 122.904 251.385 122.734C251.272 122.557 251.194 122.39 251.151 122.234C251.109 122.079 251.095 121.951 251.109 121.852Z" fill="white"/>
<g clip-path="url(#clip2_45_270)">
<path d="M217.863 140.116H210.143V147.837H217.863V140.116Z" fill="white"/>
<path d="M217.857 151.307L221.333 147.831H217.857V151.307Z" fill="#EA4335"/>
<path d="M221.333 140.116H217.857V147.837H221.333V140.116Z" fill="#FBBC04"/>
<path d="M217.863 147.831H210.143V151.307H217.863V147.831Z" fill="#34A853"/>
<path d="M206.667 147.831V150.145C206.667 150.788 207.186 151.307 207.825 151.307H210.14V147.831H206.667Z" fill="#188038"/>
<path d="M221.333 140.116V137.799C221.333 137.159 220.814 136.64 220.175 136.64H217.86V140.116H221.333Z" fill="#1967D2"/>
<path d="M217.857 136.64H207.825C207.186 136.64 206.667 137.159 206.667 137.799V147.834H210.143V140.116H217.863L217.857 136.64Z" fill="#4285F4"/>
<path d="M211.724 146.103C211.433 145.91 211.237 145.625 211.125 145.247L211.797 144.971C211.859 145.203 211.964 145.382 212.114 145.511C212.266 145.637 212.448 145.698 212.662 145.698C212.879 145.698 213.07 145.634 213.226 145.499C213.384 145.364 213.463 145.194 213.463 144.988C213.463 144.78 213.381 144.607 213.214 144.472C213.047 144.34 212.838 144.273 212.589 144.273H212.202V143.61H212.548C212.762 143.61 212.944 143.551 213.091 143.434C213.237 143.319 213.311 143.158 213.311 142.959C213.311 142.777 213.246 142.636 213.114 142.53C212.982 142.425 212.815 142.369 212.615 142.369C212.419 142.369 212.263 142.422 212.146 142.527C212.032 142.633 211.944 142.765 211.894 142.915L211.231 142.639C211.319 142.39 211.48 142.17 211.715 141.979C211.952 141.791 212.255 141.691 212.621 141.691C212.894 141.691 213.138 141.744 213.352 141.85C213.566 141.955 213.739 142.102 213.862 142.284C213.985 142.469 214.047 142.68 214.047 142.912C214.047 143.149 213.988 143.346 213.874 143.513C213.759 143.677 213.619 143.803 213.451 143.891V143.932C213.666 144.02 213.853 144.167 213.991 144.355C214.132 144.543 214.199 144.768 214.199 145.03C214.199 145.294 214.135 145.525 214 145.731C213.868 145.936 213.683 146.097 213.448 146.215C213.214 146.332 212.95 146.394 212.656 146.394C212.325 146.394 212.011 146.297 211.724 146.103ZM215.836 142.78L215.1 143.314L214.733 142.756L216.05 141.806H216.558V146.294H215.836V142.78Z" fill="#4285F4"/>
</g>
<path d="M229.782 147.08C229.279 147.08 228.826 146.995 228.422 146.825C228.025 146.655 227.685 146.418 227.402 146.113C227.119 145.802 226.903 145.43 226.754 144.998C226.605 144.566 226.531 144.091 226.531 143.575C226.531 143.05 226.613 142.569 226.775 142.13C226.938 141.684 227.168 141.301 227.466 140.983C227.763 140.657 228.114 140.406 228.517 140.229C228.928 140.051 229.378 139.963 229.867 139.963C230.398 139.963 230.869 140.066 231.279 140.271C231.69 140.469 232.023 140.753 232.278 141.121C232.533 141.482 232.685 141.907 232.735 142.395H232.012C231.92 142.056 231.771 141.765 231.566 141.524C231.361 141.277 231.113 141.089 230.823 140.961C230.539 140.827 230.221 140.76 229.867 140.76C229.378 140.76 228.946 140.884 228.571 141.131C228.202 141.372 227.912 141.705 227.7 142.13C227.487 142.555 227.381 143.036 227.381 143.575C227.381 144.113 227.476 144.587 227.668 144.998C227.859 145.402 228.135 145.717 228.496 145.943C228.857 146.17 229.286 146.283 229.782 146.283C230.164 146.283 230.497 146.209 230.78 146.06C231.07 145.911 231.304 145.695 231.481 145.412C231.658 145.122 231.779 144.768 231.842 144.35H232.363C232.249 145.263 231.963 145.947 231.502 146.4C231.042 146.853 230.468 147.08 229.782 147.08ZM232.193 146.974C232.193 146.74 232.196 146.478 232.203 146.188C232.218 145.89 232.235 145.589 232.257 145.285C232.278 144.98 232.295 144.708 232.31 144.467H229.973V143.67H233.021V146.974H232.193ZM236.651 147.08C236.198 147.08 235.773 146.97 235.376 146.751C234.98 146.531 234.658 146.216 234.41 145.805C234.169 145.387 234.049 144.895 234.049 144.329C234.049 143.762 234.169 143.274 234.41 142.863C234.658 142.445 234.98 142.123 235.376 141.896C235.773 141.67 236.198 141.556 236.651 141.556C237.104 141.556 237.526 141.67 237.915 141.896C238.312 142.123 238.63 142.445 238.871 142.863C239.112 143.274 239.232 143.762 239.232 144.329C239.232 144.895 239.112 145.387 238.871 145.805C238.63 146.216 238.312 146.531 237.915 146.751C237.526 146.97 237.104 147.08 236.651 147.08ZM236.651 146.283C236.948 146.283 237.228 146.209 237.49 146.06C237.752 145.911 237.965 145.692 238.127 145.402C238.297 145.104 238.382 144.746 238.382 144.329C238.382 143.911 238.297 143.557 238.127 143.266C237.965 142.969 237.752 142.742 237.49 142.587C237.228 142.431 236.948 142.353 236.651 142.353C236.354 142.353 236.07 142.431 235.801 142.587C235.539 142.735 235.323 142.958 235.153 143.256C234.983 143.546 234.898 143.904 234.898 144.329C234.898 144.746 234.98 145.104 235.143 145.402C235.313 145.692 235.532 145.911 235.801 146.06C236.07 146.209 236.354 146.283 236.651 146.283ZM242.616 147.08C242.162 147.08 241.738 146.97 241.341 146.751C240.944 146.531 240.622 146.216 240.374 145.805C240.134 145.387 240.013 144.895 240.013 144.329C240.013 143.762 240.134 143.274 240.374 142.863C240.622 142.445 240.944 142.123 241.341 141.896C241.738 141.67 242.162 141.556 242.616 141.556C243.069 141.556 243.49 141.67 243.88 141.896C244.276 142.123 244.595 142.445 244.836 142.863C245.076 143.274 245.197 143.762 245.197 144.329C245.197 144.895 245.076 145.387 244.836 145.805C244.595 146.216 244.276 146.531 243.88 146.751C243.49 146.97 243.069 147.08 242.616 147.08ZM242.616 146.283C242.913 146.283 243.193 146.209 243.455 146.06C243.717 145.911 243.929 145.692 244.092 145.402C244.262 145.104 244.347 144.746 244.347 144.329C244.347 143.911 244.262 143.557 244.092 143.266C243.929 142.969 243.717 142.742 243.455 142.587C243.193 142.431 242.913 142.353 242.616 142.353C242.318 142.353 242.035 142.431 241.766 142.587C241.504 142.735 241.288 142.958 241.118 143.256C240.948 143.546 240.863 143.904 240.863 144.329C240.863 144.746 240.944 145.104 241.107 145.402C241.277 145.692 241.497 145.911 241.766 146.06C242.035 146.209 242.318 146.283 242.616 146.283ZM248.177 146.134C247.801 146.134 247.444 146.046 247.104 145.869C246.771 145.685 246.498 145.423 246.286 145.083C246.08 144.743 245.978 144.336 245.978 143.861C245.978 143.387 246.08 142.98 246.286 142.64C246.491 142.293 246.76 142.027 247.093 141.843C247.426 141.652 247.787 141.556 248.177 141.556C248.297 141.556 248.41 141.567 248.517 141.588C248.63 141.602 248.736 141.627 248.835 141.663H250.992V142.576C250.687 142.576 250.383 142.519 250.078 142.406C249.781 142.293 249.526 142.176 249.313 142.056L249.271 142.013C249.519 142.148 249.72 142.307 249.876 142.491C250.039 142.675 250.159 142.884 250.237 143.118C250.322 143.344 250.365 143.592 250.365 143.861C250.365 144.336 250.262 144.743 250.057 145.083C249.858 145.423 249.593 145.685 249.26 145.869C248.927 146.046 248.566 146.134 248.177 146.134ZM249.738 149.098V148.864C249.738 148.489 249.639 148.216 249.441 148.046C249.249 147.877 248.959 147.792 248.57 147.792H247.507C247.274 147.792 247.068 147.77 246.891 147.728C246.721 147.692 246.58 147.636 246.466 147.558C246.353 147.48 246.268 147.384 246.211 147.271C246.155 147.158 246.127 147.03 246.127 146.889C246.127 146.62 246.208 146.418 246.371 146.283C246.534 146.142 246.736 146.053 246.976 146.018C247.217 145.982 247.447 145.982 247.667 146.018L248.177 146.134C247.794 146.156 247.497 146.195 247.284 146.251C247.079 146.308 246.976 146.428 246.976 146.612C246.976 146.719 247.015 146.807 247.093 146.878C247.178 146.942 247.302 146.974 247.465 146.974H248.57C248.938 146.974 249.274 147.023 249.579 147.122C249.883 147.229 250.128 147.402 250.312 147.643C250.496 147.891 250.588 148.227 250.588 148.652V149.098H249.738ZM248.177 145.338C248.41 145.338 248.626 145.281 248.825 145.168C249.03 145.055 249.196 144.888 249.324 144.669C249.451 144.449 249.515 144.18 249.515 143.861C249.515 143.543 249.451 143.274 249.324 143.054C249.203 142.827 249.041 142.657 248.835 142.544C248.63 142.424 248.41 142.364 248.177 142.364C247.943 142.364 247.723 142.424 247.518 142.544C247.313 142.657 247.146 142.824 247.019 143.043C246.891 143.263 246.828 143.536 246.828 143.861C246.828 144.18 246.891 144.449 247.019 144.669C247.146 144.888 247.313 145.055 247.518 145.168C247.723 145.281 247.943 145.338 248.177 145.338ZM252.097 139.538H252.947V146.974H252.097V139.538ZM258.199 145.263H258.996C258.939 145.61 258.812 145.922 258.614 146.198C258.422 146.467 258.167 146.683 257.849 146.846C257.537 147.002 257.176 147.08 256.765 147.08C256.27 147.08 255.823 146.963 255.427 146.729C255.03 146.489 254.715 146.163 254.482 145.752C254.255 145.334 254.142 144.86 254.142 144.329C254.142 143.798 254.251 143.323 254.471 142.905C254.697 142.488 255.006 142.158 255.395 141.917C255.784 141.677 256.224 141.556 256.712 141.556C257.229 141.556 257.665 141.673 258.019 141.907C258.38 142.133 258.645 142.47 258.815 142.916C258.992 143.355 259.063 143.897 259.028 144.541H254.991C255.027 144.888 255.122 145.193 255.278 145.455C255.434 145.717 255.639 145.922 255.894 146.071C256.149 146.212 256.44 146.283 256.765 146.283C257.126 146.283 257.431 146.191 257.679 146.007C257.934 145.816 258.107 145.568 258.199 145.263ZM256.744 142.353C256.305 142.353 255.937 142.48 255.639 142.735C255.342 142.99 255.144 143.337 255.044 143.776H258.157C258.128 143.309 257.976 142.955 257.7 142.714C257.431 142.473 257.112 142.353 256.744 142.353ZM268.451 144.669C268.38 145.164 268.21 145.593 267.941 145.954C267.672 146.315 267.329 146.595 266.911 146.793C266.5 146.984 266.04 147.08 265.53 147.08C265.055 147.08 264.616 146.998 264.213 146.836C263.809 146.666 263.455 146.425 263.151 146.113C262.853 145.802 262.619 145.426 262.449 144.987C262.279 144.548 262.195 144.06 262.195 143.521C262.195 142.976 262.279 142.488 262.449 142.056C262.619 141.616 262.853 141.241 263.151 140.93C263.455 140.618 263.809 140.381 264.213 140.218C264.616 140.048 265.055 139.963 265.53 139.963C266.047 139.963 266.511 140.062 266.921 140.26C267.339 140.452 267.683 140.731 267.952 141.1C268.221 141.461 268.391 141.893 268.462 142.395H267.676C267.576 142.041 267.421 141.744 267.208 141.503C267.003 141.262 266.755 141.078 266.465 140.951C266.174 140.823 265.863 140.76 265.53 140.76C265.098 140.76 264.691 140.866 264.308 141.078C263.933 141.291 263.629 141.602 263.395 142.013C263.161 142.424 263.044 142.927 263.044 143.521C263.044 144.116 263.161 144.619 263.395 145.03C263.629 145.44 263.933 145.752 264.308 145.965C264.691 146.177 265.098 146.283 265.53 146.283C265.863 146.283 266.171 146.223 266.454 146.103C266.744 145.975 266.992 145.791 267.198 145.55C267.41 145.309 267.566 145.016 267.665 144.669H268.451ZM271.695 147.08C271.278 147.08 270.892 146.963 270.538 146.729C270.191 146.489 269.911 146.163 269.698 145.752C269.493 145.334 269.39 144.86 269.39 144.329C269.39 143.798 269.497 143.323 269.709 142.905C269.921 142.488 270.208 142.158 270.569 141.917C270.938 141.677 271.348 141.556 271.802 141.556C272.297 141.556 272.673 141.684 272.928 141.939C273.19 142.187 273.367 142.519 273.459 142.937C273.558 143.355 273.607 143.819 273.607 144.329C273.607 144.598 273.579 144.892 273.522 145.21C273.466 145.522 273.367 145.823 273.225 146.113C273.09 146.396 272.899 146.63 272.651 146.814C272.404 146.991 272.085 147.08 271.695 147.08ZM271.908 146.273C272.269 146.273 272.566 146.184 272.8 146.007C273.041 145.83 273.218 145.596 273.331 145.306C273.444 145.009 273.501 144.683 273.501 144.329C273.501 143.939 273.441 143.599 273.321 143.309C273.207 143.012 273.03 142.781 272.789 142.619C272.556 142.449 272.262 142.364 271.908 142.364C271.377 142.364 270.966 142.551 270.676 142.927C270.385 143.295 270.24 143.762 270.24 144.329C270.24 144.704 270.311 145.04 270.453 145.338C270.601 145.628 270.8 145.858 271.047 146.028C271.302 146.191 271.589 146.273 271.908 146.273ZM273.501 141.663H274.351V146.974H273.576C273.576 146.974 273.568 146.91 273.554 146.782C273.547 146.655 273.537 146.506 273.522 146.336C273.508 146.166 273.501 146.025 273.501 145.911V141.663ZM275.842 139.538H276.691V146.974H275.842V139.538ZM281.944 145.263H282.74C282.684 145.61 282.556 145.922 282.358 146.198C282.167 146.467 281.912 146.683 281.593 146.846C281.282 147.002 280.92 147.08 280.51 147.08C280.014 147.08 279.568 146.963 279.171 146.729C278.775 146.489 278.46 146.163 278.226 145.752C277.999 145.334 277.886 144.86 277.886 144.329C277.886 143.798 277.996 143.323 278.215 142.905C278.442 142.488 278.75 142.158 279.139 141.917C279.529 141.677 279.968 141.556 280.457 141.556C280.974 141.556 281.409 141.673 281.763 141.907C282.124 142.133 282.39 142.47 282.56 142.916C282.737 143.355 282.808 143.897 282.772 144.541H278.736C278.771 144.888 278.867 145.193 279.023 145.455C279.178 145.717 279.384 145.922 279.639 146.071C279.894 146.212 280.184 146.283 280.51 146.283C280.871 146.283 281.175 146.191 281.423 146.007C281.678 145.816 281.852 145.568 281.944 145.263ZM280.489 142.353C280.049 142.353 279.681 142.48 279.384 142.735C279.086 142.99 278.888 143.337 278.789 143.776H281.901C281.873 143.309 281.721 142.955 281.445 142.714C281.175 142.473 280.857 142.353 280.489 142.353ZM283.868 141.663H284.718V146.974H283.868V141.663ZM286.545 141.556C286.828 141.556 287.083 141.599 287.31 141.684C287.536 141.769 287.727 141.893 287.883 142.056C288.039 142.218 288.159 142.417 288.244 142.65C288.329 142.877 288.372 143.135 288.372 143.426V146.974H287.522V143.638C287.522 143.228 287.427 142.919 287.235 142.714C287.044 142.509 286.757 142.406 286.375 142.406C286.085 142.406 285.815 142.48 285.568 142.629C285.32 142.778 285.114 142.983 284.952 143.245C284.796 143.5 284.7 143.798 284.665 144.137L284.654 143.521C284.69 143.224 284.76 142.955 284.867 142.714C284.98 142.473 285.118 142.268 285.281 142.098C285.451 141.921 285.642 141.786 285.854 141.694C286.074 141.602 286.304 141.556 286.545 141.556ZM291.757 147.08C291.332 147.08 290.943 146.963 290.589 146.729C290.242 146.489 289.966 146.163 289.76 145.752C289.555 145.334 289.452 144.86 289.452 144.329C289.452 143.798 289.551 143.323 289.75 142.905C289.948 142.488 290.221 142.158 290.568 141.917C290.915 141.677 291.311 141.556 291.757 141.556C292.154 141.556 292.476 141.631 292.724 141.779C292.979 141.921 293.174 142.119 293.308 142.374C293.443 142.629 293.535 142.923 293.584 143.256C293.641 143.589 293.669 143.946 293.669 144.329C293.669 144.598 293.641 144.892 293.584 145.21C293.528 145.522 293.429 145.823 293.287 146.113C293.152 146.396 292.961 146.63 292.713 146.814C292.465 146.991 292.147 147.08 291.757 147.08ZM291.97 146.273C292.331 146.273 292.628 146.184 292.862 146.007C293.103 145.83 293.28 145.596 293.393 145.306C293.506 145.009 293.563 144.683 293.563 144.329C293.563 143.939 293.503 143.599 293.383 143.309C293.269 143.012 293.092 142.781 292.851 142.619C292.618 142.449 292.324 142.364 291.97 142.364C291.439 142.364 291.028 142.551 290.738 142.927C290.447 143.295 290.302 143.762 290.302 144.329C290.302 144.704 290.373 145.04 290.515 145.338C290.663 145.628 290.862 145.858 291.109 146.028C291.364 146.191 291.651 146.273 291.97 146.273ZM293.563 139.538H294.413V146.974H293.637C293.623 146.818 293.606 146.634 293.584 146.421C293.57 146.209 293.563 146.039 293.563 145.911V139.538ZM297.961 147.08C297.543 147.08 297.157 146.963 296.803 146.729C296.456 146.489 296.176 146.163 295.964 145.752C295.758 145.334 295.656 144.86 295.656 144.329C295.656 143.798 295.762 143.323 295.974 142.905C296.187 142.488 296.473 142.158 296.835 141.917C297.203 141.677 297.614 141.556 298.067 141.556C298.562 141.556 298.938 141.684 299.193 141.939C299.455 142.187 299.632 142.519 299.724 142.937C299.823 143.355 299.873 143.819 299.873 144.329C299.873 144.598 299.844 144.892 299.788 145.21C299.731 145.522 299.632 145.823 299.49 146.113C299.356 146.396 299.164 146.63 298.917 146.814C298.669 146.991 298.35 147.08 297.961 147.08ZM298.173 146.273C298.534 146.273 298.832 146.184 299.065 146.007C299.306 145.83 299.483 145.596 299.596 145.306C299.71 145.009 299.766 144.683 299.766 144.329C299.766 143.939 299.706 143.599 299.586 143.309C299.472 143.012 299.295 142.781 299.055 142.619C298.821 142.449 298.527 142.364 298.173 142.364C297.642 142.364 297.231 142.551 296.941 142.927C296.65 143.295 296.505 143.762 296.505 144.329C296.505 144.704 296.576 145.04 296.718 145.338C296.866 145.628 297.065 145.858 297.313 146.028C297.568 146.191 297.854 146.273 298.173 146.273ZM299.766 141.663H300.616V146.974H299.841C299.841 146.974 299.834 146.91 299.819 146.782C299.812 146.655 299.802 146.506 299.788 146.336C299.773 146.166 299.766 146.025 299.766 145.911V141.663ZM302.001 141.663H302.85V146.974H302.001V141.663ZM304.55 142.459C304.189 142.459 303.884 142.551 303.636 142.735C303.396 142.912 303.204 143.132 303.063 143.394C302.928 143.649 302.84 143.897 302.797 144.137L302.787 143.521C302.787 143.458 302.801 143.351 302.829 143.203C302.857 143.054 302.911 142.888 302.988 142.703C303.066 142.512 303.169 142.332 303.296 142.162C303.431 141.985 303.601 141.84 303.806 141.726C304.012 141.613 304.26 141.556 304.55 141.556V142.459Z" fill="white"/>
<g clip-path="url(#clip3_45_270)">
<path d="M211.413 161.204H216.564L221.407 169.555H216.245L211.413 161.204Z" fill="url(#paint0_linear_45_270)"/>
<path d="M221.407 169.555L218.826 174.017H209.162L211.749 169.555H221.407Z" fill="url(#paint1_linear_45_270)"/>
<path d="M209.162 174.017L206.593 169.555L211.413 161.204L214 165.678L209.162 174.017Z" fill="url(#paint2_linear_45_270)"/>
<path opacity="0.1" d="M209.162 174.017L213.971 169.555H211.749L209.162 174.017ZM221.407 169.555H216.251L215.117 167.599L221.407 169.555ZM211.413 161.204L212.9 167.57L214 165.678L211.413 161.204Z" fill="black"/>
</g>
<path d="M229.782 170.515C229.279 170.515 228.826 170.43 228.422 170.26C228.025 170.091 227.685 169.853 227.402 169.549C227.119 169.237 226.903 168.865 226.754 168.433C226.605 168.001 226.531 167.527 226.531 167.01C226.531 166.486 226.613 166.004 226.775 165.565C226.938 165.119 227.168 164.737 227.466 164.418C227.763 164.092 228.114 163.841 228.517 163.664C228.928 163.487 229.378 163.398 229.867 163.398C230.398 163.398 230.869 163.501 231.279 163.707C231.69 163.905 232.023 164.188 232.278 164.556C232.533 164.917 232.685 165.342 232.735 165.831H232.012C231.92 165.491 231.771 165.201 231.566 164.96C231.361 164.712 231.113 164.524 230.823 164.397C230.539 164.262 230.221 164.195 229.867 164.195C229.378 164.195 228.946 164.319 228.571 164.567C228.202 164.808 227.912 165.141 227.7 165.565C227.487 165.99 227.381 166.472 227.381 167.01C227.381 167.548 227.476 168.023 227.668 168.433C227.859 168.837 228.135 169.152 228.496 169.379C228.857 169.605 229.286 169.719 229.782 169.719C230.164 169.719 230.497 169.644 230.78 169.496C231.07 169.347 231.304 169.131 231.481 168.848C231.658 168.557 231.779 168.203 231.842 167.785H232.363C232.249 168.699 231.963 169.382 231.502 169.836C231.042 170.289 230.468 170.515 229.782 170.515ZM232.193 170.409C232.193 170.175 232.196 169.913 232.203 169.623C232.218 169.326 232.235 169.025 232.257 168.72C232.278 168.416 232.295 168.143 232.31 167.902H229.973V167.106H233.021V170.409H232.193ZM236.651 170.515C236.198 170.515 235.773 170.406 235.376 170.186C234.98 169.967 234.658 169.651 234.41 169.241C234.169 168.823 234.049 168.331 234.049 167.764C234.049 167.198 234.169 166.709 234.41 166.298C234.658 165.881 234.98 165.558 235.376 165.332C235.773 165.105 236.198 164.992 236.651 164.992C237.104 164.992 237.526 165.105 237.915 165.332C238.312 165.558 238.63 165.881 238.871 166.298C239.112 166.709 239.232 167.198 239.232 167.764C239.232 168.331 239.112 168.823 238.871 169.241C238.63 169.651 238.312 169.967 237.915 170.186C237.526 170.406 237.104 170.515 236.651 170.515ZM236.651 169.719C236.948 169.719 237.228 169.644 237.49 169.496C237.752 169.347 237.965 169.127 238.127 168.837C238.297 168.54 238.382 168.182 238.382 167.764C238.382 167.346 238.297 166.992 238.127 166.702C237.965 166.405 237.752 166.178 237.49 166.022C237.228 165.866 236.948 165.788 236.651 165.788C236.354 165.788 236.07 165.866 235.801 166.022C235.539 166.171 235.323 166.394 235.153 166.691C234.983 166.982 234.898 167.339 234.898 167.764C234.898 168.182 234.98 168.54 235.143 168.837C235.313 169.127 235.532 169.347 235.801 169.496C236.07 169.644 236.354 169.719 236.651 169.719ZM242.616 170.515C242.162 170.515 241.738 170.406 241.341 170.186C240.944 169.967 240.622 169.651 240.374 169.241C240.134 168.823 240.013 168.331 240.013 167.764C240.013 167.198 240.134 166.709 240.374 166.298C240.622 165.881 240.944 165.558 241.341 165.332C241.738 165.105 242.162 164.992 242.616 164.992C243.069 164.992 243.49 165.105 243.88 165.332C244.276 165.558 244.595 165.881 244.836 166.298C245.076 166.709 245.197 167.198 245.197 167.764C245.197 168.331 245.076 168.823 244.836 169.241C244.595 169.651 244.276 169.967 243.88 170.186C243.49 170.406 243.069 170.515 242.616 170.515ZM242.616 169.719C242.913 169.719 243.193 169.644 243.455 169.496C243.717 169.347 243.929 169.127 244.092 168.837C244.262 168.54 244.347 168.182 244.347 167.764C244.347 167.346 244.262 166.992 244.092 166.702C243.929 166.405 243.717 166.178 243.455 166.022C243.193 165.866 242.913 165.788 242.616 165.788C242.318 165.788 242.035 165.866 241.766 166.022C241.504 166.171 241.288 166.394 241.118 166.691C240.948 166.982 240.863 167.339 240.863 167.764C240.863 168.182 240.944 168.54 241.107 168.837C241.277 169.127 241.497 169.347 241.766 169.496C242.035 169.644 242.318 169.719 242.616 169.719ZM248.177 169.57C247.801 169.57 247.444 169.482 247.104 169.304C246.771 169.12 246.498 168.858 246.286 168.518C246.08 168.179 245.978 167.771 245.978 167.297C245.978 166.822 246.08 166.415 246.286 166.075C246.491 165.728 246.76 165.463 247.093 165.279C247.426 165.087 247.787 164.992 248.177 164.992C248.297 164.992 248.41 165.002 248.517 165.024C248.63 165.038 248.736 165.063 248.835 165.098H250.992V166.012C250.687 166.012 250.383 165.955 250.078 165.842C249.781 165.728 249.526 165.611 249.313 165.491L249.271 165.449C249.519 165.583 249.72 165.742 249.876 165.927C250.039 166.111 250.159 166.32 250.237 166.553C250.322 166.78 250.365 167.028 250.365 167.297C250.365 167.771 250.262 168.179 250.057 168.518C249.858 168.858 249.593 169.12 249.26 169.304C248.927 169.482 248.566 169.57 248.177 169.57ZM249.738 172.534V172.3C249.738 171.925 249.639 171.652 249.441 171.482C249.249 171.312 248.959 171.227 248.57 171.227H247.507C247.274 171.227 247.068 171.206 246.891 171.163C246.721 171.128 246.58 171.071 246.466 170.993C246.353 170.916 246.268 170.82 246.211 170.707C246.155 170.593 246.127 170.466 246.127 170.324C246.127 170.055 246.208 169.853 246.371 169.719C246.534 169.577 246.736 169.489 246.976 169.453C247.217 169.418 247.447 169.418 247.667 169.453L248.177 169.57C247.794 169.591 247.497 169.63 247.284 169.687C247.079 169.744 246.976 169.864 246.976 170.048C246.976 170.154 247.015 170.243 247.093 170.314C247.178 170.377 247.302 170.409 247.465 170.409H248.57C248.938 170.409 249.274 170.459 249.579 170.558C249.883 170.664 250.128 170.838 250.312 171.078C250.496 171.326 250.588 171.663 250.588 172.087V172.534H249.738ZM248.177 168.773C248.41 168.773 248.626 168.717 248.825 168.603C249.03 168.49 249.196 168.324 249.324 168.104C249.451 167.885 249.515 167.616 249.515 167.297C249.515 166.978 249.451 166.709 249.324 166.49C249.203 166.263 249.041 166.093 248.835 165.98C248.63 165.859 248.41 165.799 248.177 165.799C247.943 165.799 247.723 165.859 247.518 165.98C247.313 166.093 247.146 166.259 247.019 166.479C246.891 166.698 246.828 166.971 246.828 167.297C246.828 167.616 246.891 167.885 247.019 168.104C247.146 168.324 247.313 168.49 247.518 168.603C247.723 168.717 247.943 168.773 248.177 168.773ZM252.097 162.974H252.947V170.409H252.097V162.974ZM258.199 168.699H258.996C258.939 169.046 258.812 169.358 258.614 169.634C258.422 169.903 258.167 170.119 257.849 170.282C257.537 170.438 257.176 170.515 256.765 170.515C256.27 170.515 255.823 170.399 255.427 170.165C255.03 169.924 254.715 169.598 254.482 169.188C254.255 168.77 254.142 168.295 254.142 167.764C254.142 167.233 254.251 166.759 254.471 166.341C254.697 165.923 255.006 165.594 255.395 165.353C255.784 165.112 256.224 164.992 256.712 164.992C257.229 164.992 257.665 165.109 258.019 165.342C258.38 165.569 258.645 165.905 258.815 166.351C258.992 166.791 259.063 167.332 259.028 167.977H254.991C255.027 168.324 255.122 168.628 255.278 168.89C255.434 169.152 255.639 169.358 255.894 169.506C256.149 169.648 256.44 169.719 256.765 169.719C257.126 169.719 257.431 169.627 257.679 169.443C257.934 169.251 258.107 169.004 258.199 168.699ZM256.744 165.788C256.305 165.788 255.937 165.916 255.639 166.171C255.342 166.426 255.144 166.773 255.044 167.212H258.157C258.128 166.745 257.976 166.39 257.7 166.15C257.431 165.909 257.112 165.788 256.744 165.788ZM264.754 163.505C265.448 163.505 266.029 163.597 266.497 163.781C266.971 163.958 267.35 164.206 267.633 164.524C267.916 164.843 268.122 165.208 268.249 165.619C268.377 166.029 268.44 166.465 268.44 166.925C268.44 167.385 268.373 167.824 268.239 168.242C268.104 168.66 267.888 169.032 267.591 169.358C267.3 169.683 266.921 169.942 266.454 170.133C265.987 170.317 265.42 170.409 264.754 170.409H262.513V163.505H264.754ZM263.363 169.613H264.754C265.314 169.613 265.774 169.535 266.135 169.379C266.504 169.223 266.794 169.018 267.006 168.763C267.219 168.501 267.368 168.21 267.453 167.892C267.545 167.573 267.591 167.251 267.591 166.925C267.591 166.599 267.545 166.281 267.453 165.969C267.368 165.657 267.219 165.378 267.006 165.13C266.794 164.875 266.504 164.673 266.135 164.524C265.774 164.376 265.314 164.301 264.754 164.301H263.363V169.613ZM269.667 165.098H270.517V170.409H269.667V165.098ZM272.216 165.895C271.855 165.895 271.551 165.987 271.303 166.171C271.062 166.348 270.871 166.567 270.729 166.829C270.595 167.084 270.506 167.332 270.464 167.573L270.453 166.957C270.453 166.893 270.467 166.787 270.496 166.638C270.524 166.49 270.577 166.323 270.655 166.139C270.733 165.948 270.835 165.767 270.963 165.597C271.097 165.42 271.267 165.275 271.473 165.162C271.678 165.048 271.926 164.992 272.216 164.992V165.895ZM274.225 162.974V164.004H273.12V162.974H274.225ZM273.248 165.098H274.097V170.409H273.248V165.098ZM277.599 169.676H277.344L278.969 165.098H279.893L277.875 170.409H277.078L275.071 165.098H275.995L277.599 169.676ZM284.402 168.699H285.199C285.142 169.046 285.015 169.358 284.817 169.634C284.625 169.903 284.37 170.119 284.052 170.282C283.74 170.438 283.379 170.515 282.968 170.515C282.473 170.515 282.026 170.399 281.63 170.165C281.233 169.924 280.918 169.598 280.684 169.188C280.458 168.77 280.345 168.295 280.345 167.764C280.345 167.233 280.454 166.759 280.674 166.341C280.9 165.923 281.208 165.594 281.598 165.353C281.987 165.112 282.427 164.992 282.915 164.992C283.432 164.992 283.868 165.109 284.222 165.342C284.583 165.569 284.848 165.905 285.018 166.351C285.195 166.791 285.266 167.332 285.231 167.977H281.194C281.23 168.324 281.325 168.628 281.481 168.89C281.637 169.152 281.842 169.358 282.097 169.506C282.352 169.648 282.642 169.719 282.968 169.719C283.329 169.719 283.634 169.627 283.882 169.443C284.137 169.251 284.31 169.004 284.402 168.699ZM282.947 165.788C282.508 165.788 282.14 165.916 281.842 166.171C281.545 166.426 281.347 166.773 281.247 167.212H284.36C284.331 166.745 284.179 166.39 283.903 166.15C283.634 165.909 283.315 165.788 282.947 165.788Z" fill="white"/>
<path d="M220.356 183.511H213.477C213.477 184.335 213.804 185.125 214.386 185.707C214.969 186.29 215.758 186.617 216.582 186.617H217.849V187.84C217.85 189.554 219.239 190.943 220.953 190.944V184.108C220.953 183.779 220.686 183.511 220.356 183.511Z" fill="#2684FF"/>
<path d="M216.952 186.939H210.073C210.074 188.653 211.462 190.041 213.176 190.043H214.443V191.27C214.445 192.984 215.835 194.372 217.549 194.372V187.536C217.549 187.206 217.282 186.939 216.952 186.939V186.939Z" fill="url(#paint3_linear_45_270)"/>
<path d="M213.546 190.365H206.667C206.667 192.08 208.057 193.47 209.772 193.47H211.043V194.694C211.044 196.406 212.431 197.794 214.143 197.797V190.962C214.143 190.632 213.876 190.365 213.546 190.365Z" fill="url(#paint4_linear_45_270)"/>
<path d="M230.005 191.518V186.94H230.854V191.518C230.854 191.865 230.805 192.188 230.706 192.485C230.607 192.783 230.458 193.041 230.26 193.261C230.068 193.48 229.831 193.65 229.548 193.77C229.265 193.891 228.939 193.951 228.571 193.951C228.252 193.951 227.954 193.905 227.678 193.813C227.402 193.714 227.161 193.576 226.956 193.399C226.751 193.214 226.584 192.991 226.457 192.729C226.336 192.467 226.269 192.173 226.255 191.848H227.03C227.101 192.28 227.275 192.605 227.551 192.825C227.827 193.045 228.167 193.154 228.571 193.154C228.903 193.154 229.173 193.083 229.378 192.942C229.59 192.8 229.746 192.609 229.845 192.368C229.951 192.12 230.005 191.837 230.005 191.518ZM233.447 186.409V187.44H232.343V186.409H233.447ZM232.47 188.534H233.32V193.845H232.47V188.534ZM234.771 188.534H235.621V193.845H234.771V188.534ZM237.321 189.33C236.959 189.33 236.655 189.422 236.407 189.606C236.166 189.783 235.975 190.003 235.833 190.265C235.699 190.52 235.61 190.768 235.568 191.009L235.557 190.392C235.557 190.329 235.571 190.223 235.6 190.074C235.628 189.925 235.681 189.759 235.759 189.575C235.837 189.383 235.94 189.203 236.067 189.033C236.202 188.856 236.372 188.711 236.577 188.597C236.782 188.484 237.03 188.427 237.321 188.427V189.33ZM240.285 193.951C239.867 193.951 239.481 193.834 239.127 193.6C238.78 193.36 238.5 193.034 238.288 192.623C238.083 192.205 237.98 191.731 237.98 191.2C237.98 190.669 238.086 190.194 238.299 189.776C238.511 189.359 238.798 189.029 239.159 188.789C239.527 188.548 239.938 188.427 240.391 188.427C240.887 188.427 241.262 188.555 241.517 188.81C241.779 189.058 241.956 189.39 242.048 189.808C242.147 190.226 242.197 190.69 242.197 191.2C242.197 191.469 242.169 191.763 242.112 192.081C242.055 192.393 241.956 192.694 241.815 192.984C241.68 193.268 241.489 193.501 241.241 193.685C240.993 193.862 240.675 193.951 240.285 193.951ZM240.497 193.144C240.859 193.144 241.156 193.055 241.39 192.878C241.631 192.701 241.808 192.467 241.921 192.177C242.034 191.88 242.091 191.554 242.091 191.2C242.091 190.81 242.031 190.47 241.91 190.18C241.797 189.883 241.62 189.652 241.379 189.49C241.145 189.32 240.852 189.235 240.497 189.235C239.966 189.235 239.556 189.422 239.265 189.798C238.975 190.166 238.83 190.633 238.83 191.2C238.83 191.575 238.901 191.911 239.042 192.209C239.191 192.499 239.389 192.729 239.637 192.899C239.892 193.062 240.179 193.144 240.497 193.144ZM242.091 188.534H242.941V193.845H242.165C242.165 193.845 242.158 193.781 242.144 193.654C242.137 193.526 242.126 193.377 242.112 193.207C242.098 193.037 242.091 192.896 242.091 192.783V188.534ZM252.652 191.54C252.582 192.035 252.412 192.464 252.143 192.825C251.874 193.186 251.53 193.466 251.112 193.664C250.702 193.855 250.241 193.951 249.731 193.951C249.257 193.951 248.818 193.87 248.414 193.707C248.011 193.537 247.656 193.296 247.352 192.984C247.055 192.673 246.821 192.297 246.651 191.858C246.481 191.419 246.396 190.931 246.396 190.392C246.396 189.847 246.481 189.359 246.651 188.927C246.821 188.488 247.055 188.112 247.352 187.801C247.656 187.489 248.011 187.252 248.414 187.089C248.818 186.919 249.257 186.834 249.731 186.834C250.248 186.834 250.712 186.933 251.123 187.131C251.541 187.323 251.884 187.602 252.153 187.971C252.422 188.332 252.592 188.764 252.663 189.267H251.877C251.778 188.912 251.622 188.615 251.41 188.374C251.204 188.133 250.956 187.949 250.666 187.822C250.376 187.694 250.064 187.631 249.731 187.631C249.299 187.631 248.892 187.737 248.51 187.949C248.134 188.162 247.83 188.473 247.596 188.884C247.363 189.295 247.246 189.798 247.246 190.392C247.246 190.987 247.363 191.49 247.596 191.901C247.83 192.312 248.134 192.623 248.51 192.836C248.892 193.048 249.299 193.154 249.731 193.154C250.064 193.154 250.372 193.094 250.655 192.974C250.946 192.846 251.194 192.662 251.399 192.421C251.612 192.181 251.767 191.887 251.866 191.54H252.652ZM253.995 186.409H254.845V193.845H253.995V186.409ZM258.642 193.951C258.189 193.951 257.764 193.841 257.368 193.622C256.971 193.402 256.649 193.087 256.401 192.676C256.16 192.258 256.04 191.766 256.04 191.2C256.04 190.633 256.16 190.145 256.401 189.734C256.649 189.316 256.971 188.994 257.368 188.767C257.764 188.541 258.189 188.427 258.642 188.427C259.096 188.427 259.517 188.541 259.906 188.767C260.303 188.994 260.622 189.316 260.862 189.734C261.103 190.145 261.224 190.633 261.224 191.2C261.224 191.766 261.103 192.258 260.862 192.676C260.622 193.087 260.303 193.402 259.906 193.622C259.517 193.841 259.096 193.951 258.642 193.951ZM258.642 193.154C258.94 193.154 259.219 193.08 259.482 192.931C259.744 192.783 259.956 192.563 260.119 192.273C260.289 191.975 260.374 191.618 260.374 191.2C260.374 190.782 260.289 190.428 260.119 190.138C259.956 189.84 259.744 189.614 259.482 189.458C259.219 189.302 258.94 189.224 258.642 189.224C258.345 189.224 258.062 189.302 257.793 189.458C257.531 189.606 257.315 189.83 257.145 190.127C256.975 190.417 256.89 190.775 256.89 191.2C256.89 191.618 256.971 191.975 257.134 192.273C257.304 192.563 257.523 192.783 257.793 192.931C258.062 193.08 258.345 193.154 258.642 193.154ZM266.806 193.845H265.956V188.534H266.806V193.845ZM266.009 191.37L266.02 191.667C266.013 191.752 265.991 191.883 265.956 192.06C265.928 192.237 265.875 192.436 265.797 192.655C265.726 192.867 265.62 193.073 265.478 193.271C265.343 193.469 265.166 193.632 264.947 193.76C264.734 193.887 264.469 193.951 264.15 193.951C263.945 193.951 263.732 193.919 263.513 193.855C263.3 193.799 263.102 193.703 262.918 193.569C262.734 193.427 262.585 193.232 262.472 192.984C262.359 192.736 262.302 192.428 262.302 192.06V188.534H263.152V191.848C263.152 192.166 263.201 192.418 263.3 192.602C263.407 192.779 263.548 192.906 263.725 192.984C263.902 193.062 264.101 193.101 264.32 193.101C264.681 193.101 264.982 193.009 265.223 192.825C265.464 192.641 265.648 192.414 265.775 192.145C265.903 191.876 265.981 191.618 266.009 191.37ZM270.191 193.951C269.766 193.951 269.377 193.834 269.023 193.6C268.676 193.36 268.4 193.034 268.194 192.623C267.989 192.205 267.886 191.731 267.886 191.2C267.886 190.669 267.985 190.194 268.184 189.776C268.382 189.359 268.655 189.029 269.002 188.789C269.349 188.548 269.745 188.427 270.191 188.427C270.588 188.427 270.91 188.502 271.158 188.65C271.413 188.792 271.608 188.99 271.742 189.245C271.877 189.5 271.969 189.794 272.018 190.127C272.075 190.46 272.103 190.817 272.103 191.2C272.103 191.469 272.075 191.763 272.018 192.081C271.962 192.393 271.862 192.694 271.721 192.984C271.586 193.268 271.395 193.501 271.147 193.685C270.899 193.862 270.581 193.951 270.191 193.951ZM270.404 193.144C270.765 193.144 271.062 193.055 271.296 192.878C271.537 192.701 271.714 192.467 271.827 192.177C271.94 191.88 271.997 191.554 271.997 191.2C271.997 190.81 271.937 190.47 271.816 190.18C271.703 189.883 271.526 189.652 271.285 189.49C271.052 189.32 270.758 189.235 270.404 189.235C269.873 189.235 269.462 189.422 269.172 189.798C268.881 190.166 268.736 190.633 268.736 191.2C268.736 191.575 268.807 191.911 268.948 192.209C269.097 192.499 269.295 192.729 269.543 192.899C269.798 193.062 270.085 193.144 270.404 193.144ZM271.997 186.409H272.847V193.845H272.071C272.057 193.689 272.04 193.505 272.018 193.292C272.004 193.08 271.997 192.91 271.997 192.783V186.409Z" fill="white"/>
<g clip-path="url(#clip4_45_270)">
<path d="M213.424 215.284L209.324 212.64C209.191 212.554 209.017 212.563 208.894 212.662L206.137 214.881C205.942 215.038 205.958 215.34 206.168 215.476L210.269 218.121C210.402 218.206 210.575 218.197 210.699 218.098L213.456 215.879C213.651 215.722 213.635 215.42 213.424 215.284Z" fill="#1587EA"/>
<path d="M214.544 215.879L217.301 218.098C217.425 218.197 217.598 218.206 217.731 218.121L221.832 215.476C222.042 215.34 222.058 215.038 221.863 214.881L219.106 212.662C218.983 212.563 218.809 212.554 218.676 212.64L214.576 215.284C214.365 215.42 214.349 215.722 214.544 215.879Z" fill="#1587EA"/>
<path d="M213.456 208.935L210.699 206.716C210.575 206.617 210.402 206.608 210.269 206.694L206.168 209.338C205.958 209.474 205.942 209.776 206.137 209.933L208.894 212.152C209.018 212.251 209.191 212.26 209.324 212.174L213.424 209.53C213.635 209.394 213.651 209.092 213.456 208.935Z" fill="#1587EA"/>
<path d="M221.832 209.338L217.731 206.694C217.598 206.608 217.425 206.617 217.301 206.716L214.544 208.935C214.349 209.092 214.365 209.394 214.576 209.53L218.676 212.174C218.809 212.26 218.983 212.251 219.106 212.152L221.863 209.933C222.058 209.776 222.042 209.474 221.832 209.338Z" fill="#1587EA"/>
<path d="M213.799 216.269L210.712 218.732C210.6 218.821 210.443 218.829 210.323 218.751L209.562 218.261C209.34 218.117 209.048 218.277 209.048 218.541V218.806C209.048 218.923 209.109 219.031 209.209 219.091L213.805 221.877C213.911 221.942 214.045 221.942 214.151 221.877L218.747 219.091C218.847 219.031 218.908 218.923 218.908 218.806V218.569C218.908 218.305 218.616 218.146 218.394 218.289L217.677 218.751C217.557 218.829 217.4 218.821 217.288 218.731L214.215 216.269C214.094 216.172 213.921 216.172 213.799 216.269Z" fill="#1587EA"/>
</g>
<path d="M229.091 210.376C229.785 210.376 230.366 210.468 230.833 210.652C231.308 210.829 231.686 211.077 231.97 211.396C232.253 211.714 232.458 212.079 232.586 212.49C232.713 212.9 232.777 213.336 232.777 213.796C232.777 214.257 232.71 214.696 232.575 215.113C232.441 215.531 232.225 215.903 231.927 216.229C231.637 216.555 231.258 216.813 230.791 217.004C230.323 217.188 229.757 217.28 229.091 217.28H226.85V210.376H229.091ZM227.7 216.484H229.091C229.651 216.484 230.111 216.406 230.472 216.25C230.84 216.094 231.131 215.889 231.343 215.634C231.555 215.372 231.704 215.082 231.789 214.763C231.881 214.444 231.927 214.122 231.927 213.796C231.927 213.471 231.881 213.152 231.789 212.84C231.704 212.529 231.555 212.249 231.343 212.001C231.131 211.746 230.84 211.544 230.472 211.396C230.111 211.247 229.651 211.173 229.091 211.173H227.7V216.484ZM234.004 211.969H234.853V217.28H234.004V211.969ZM236.553 212.766C236.192 212.766 235.887 212.858 235.639 213.042C235.399 213.219 235.207 213.439 235.066 213.701C234.931 213.956 234.843 214.203 234.8 214.444L234.79 213.828C234.79 213.764 234.804 213.658 234.832 213.509C234.86 213.361 234.914 213.194 234.991 213.01C235.069 212.819 235.172 212.638 235.3 212.469C235.434 212.291 235.604 212.146 235.809 212.033C236.015 211.92 236.263 211.863 236.553 211.863V212.766ZM239.815 217.387C239.362 217.387 238.937 217.277 238.54 217.057C238.144 216.838 237.821 216.523 237.574 216.112C237.333 215.694 237.212 215.202 237.212 214.635C237.212 214.069 237.333 213.58 237.574 213.17C237.821 212.752 238.144 212.43 238.54 212.203C238.937 211.976 239.362 211.863 239.815 211.863C240.268 211.863 240.689 211.976 241.079 212.203C241.475 212.43 241.794 212.752 242.035 213.17C242.276 213.58 242.396 214.069 242.396 214.635C242.396 215.202 242.276 215.694 242.035 216.112C241.794 216.523 241.475 216.838 241.079 217.057C240.689 217.277 240.268 217.387 239.815 217.387ZM239.815 216.59C240.112 216.59 240.392 216.516 240.654 216.367C240.916 216.218 241.128 215.999 241.291 215.708C241.461 215.411 241.546 215.053 241.546 214.635C241.546 214.218 241.461 213.864 241.291 213.573C241.128 213.276 240.916 213.049 240.654 212.893C240.392 212.738 240.112 212.66 239.815 212.66C239.517 212.66 239.234 212.738 238.965 212.893C238.703 213.042 238.487 213.265 238.317 213.563C238.147 213.853 238.062 214.211 238.062 214.635C238.062 215.053 238.144 215.411 238.306 215.708C238.476 215.999 238.696 216.218 238.965 216.367C239.234 216.516 239.517 216.59 239.815 216.59ZM246.13 217.387C245.741 217.387 245.422 217.298 245.174 217.121C244.926 216.937 244.731 216.703 244.59 216.42C244.455 216.13 244.36 215.829 244.303 215.517C244.246 215.198 244.218 214.905 244.218 214.635C244.218 214.253 244.243 213.895 244.292 213.563C244.349 213.23 244.445 212.936 244.579 212.681C244.714 212.426 244.905 212.228 245.153 212.086C245.408 211.937 245.733 211.863 246.13 211.863C246.555 211.863 246.941 211.983 247.288 212.224C247.635 212.465 247.911 212.794 248.116 213.212C248.329 213.63 248.435 214.104 248.435 214.635C248.435 215.167 248.329 215.641 248.116 216.059C247.904 216.47 247.621 216.795 247.267 217.036C246.92 217.27 246.541 217.387 246.13 217.387ZM245.918 216.579C246.243 216.579 246.53 216.498 246.778 216.335C247.033 216.165 247.231 215.935 247.373 215.645C247.514 215.347 247.585 215.011 247.585 214.635C247.585 214.069 247.44 213.602 247.15 213.233C246.859 212.858 246.449 212.67 245.918 212.67C245.606 212.67 245.33 212.755 245.089 212.925C244.848 213.088 244.661 213.318 244.526 213.616C244.391 213.906 244.324 214.246 244.324 214.635C244.324 214.99 244.381 215.315 244.494 215.613C244.615 215.903 244.792 216.137 245.025 216.314C245.259 216.491 245.556 216.579 245.918 216.579ZM243.474 211.969H244.292L244.324 213.085V219.405H243.474V211.969ZM249.681 217.28V210.376H252.401C253.116 210.376 253.672 210.539 254.068 210.865C254.472 211.19 254.674 211.644 254.674 212.224C254.674 212.585 254.6 212.879 254.451 213.106C254.309 213.332 254.107 213.502 253.845 213.616C253.583 213.729 253.275 213.803 252.921 213.839L252.942 213.775C253.204 213.789 253.452 213.825 253.686 213.881C253.92 213.931 254.125 214.012 254.302 214.126C254.486 214.239 254.631 214.395 254.738 214.593C254.844 214.791 254.897 215.046 254.897 215.358C254.897 215.776 254.805 216.123 254.621 216.399C254.437 216.675 254.178 216.887 253.845 217.036C253.52 217.178 253.144 217.259 252.719 217.28H249.681ZM250.531 216.484H252.507C252.988 216.484 253.364 216.395 253.633 216.218C253.909 216.034 254.047 215.747 254.047 215.358C254.047 215.046 253.959 214.812 253.782 214.657C253.612 214.501 253.392 214.398 253.123 214.349C252.854 214.292 252.578 214.264 252.294 214.264H250.531V216.484ZM250.531 213.467H252.294C252.776 213.467 253.151 213.364 253.42 213.159C253.697 212.947 253.835 212.646 253.835 212.256C253.835 211.874 253.697 211.597 253.42 211.428C253.151 211.258 252.811 211.173 252.401 211.173H250.531V213.467ZM258.373 217.387C257.919 217.387 257.495 217.277 257.098 217.057C256.701 216.838 256.379 216.523 256.131 216.112C255.891 215.694 255.77 215.202 255.77 214.635C255.77 214.069 255.891 213.58 256.131 213.17C256.379 212.752 256.701 212.43 257.098 212.203C257.495 211.976 257.919 211.863 258.373 211.863C258.826 211.863 259.247 211.976 259.637 212.203C260.033 212.43 260.352 212.752 260.593 213.17C260.833 213.58 260.954 214.069 260.954 214.635C260.954 215.202 260.833 215.694 260.593 216.112C260.352 216.523 260.033 216.838 259.637 217.057C259.247 217.277 258.826 217.387 258.373 217.387ZM258.373 216.59C258.67 216.59 258.95 216.516 259.212 216.367C259.474 216.218 259.686 215.999 259.849 215.708C260.019 215.411 260.104 215.053 260.104 214.635C260.104 214.218 260.019 213.864 259.849 213.573C259.686 213.276 259.474 213.049 259.212 212.893C258.95 212.738 258.67 212.66 258.373 212.66C258.075 212.66 257.792 212.738 257.523 212.893C257.261 213.042 257.045 213.265 256.875 213.563C256.705 213.853 256.62 214.211 256.62 214.635C256.62 215.053 256.701 215.411 256.864 215.708C257.034 215.999 257.254 216.218 257.523 216.367C257.792 216.516 258.075 216.59 258.373 216.59ZM266.232 211.969L264.171 214.859L262.482 217.28H261.452L263.651 214.232L265.201 211.969H266.232ZM261.452 211.969H262.514L264.16 214.253L266.338 217.28H265.308L263.587 214.859L261.452 211.969Z" fill="white"/>
<g clip-path="url(#clip5_45_270)">
<path d="M219.901 230.383H208.099C207.308 230.383 206.667 231.024 206.667 231.815V243.617C206.667 244.408 207.308 245.049 208.099 245.049H219.901C220.692 245.049 221.333 244.408 221.333 243.617V231.815C221.333 231.024 220.692 230.383 219.901 230.383Z" fill="url(#paint5_linear_45_270)"/>
<path d="M218.739 232.289H215.641C215.261 232.289 214.953 232.597 214.953 232.977V238.018C214.953 238.398 215.261 238.706 215.641 238.706H218.739C219.119 238.706 219.427 238.398 219.427 238.018V232.977C219.427 232.597 219.119 232.289 218.739 232.289Z" fill="#74247A"/>
<path d="M212.359 232.289H209.261C208.881 232.289 208.573 232.597 208.573 232.977V241.685C208.573 242.065 208.881 242.373 209.261 242.373H212.359C212.739 242.373 213.047 242.065 213.047 241.685V232.977C213.047 232.597 212.739 232.289 212.359 232.289Z" fill="#74247A"/>
</g>
<path d="M226.159 233.811H231.683V234.608H226.159V233.811ZM228.496 234.523H229.346V240.716H228.496V234.523ZM231.732 235.405H232.582V240.716H231.732V235.405ZM234.281 236.201C233.92 236.201 233.616 236.294 233.368 236.478C233.127 236.655 232.936 236.874 232.794 237.136C232.66 237.391 232.571 237.639 232.529 237.88L232.518 237.264C232.518 237.2 232.532 237.094 232.56 236.945C232.589 236.796 232.642 236.63 232.72 236.446C232.798 236.255 232.9 236.074 233.028 235.904C233.162 235.727 233.332 235.582 233.538 235.469C233.743 235.355 233.991 235.299 234.281 235.299V236.201ZM238.998 239.006H239.795C239.738 239.353 239.611 239.664 239.413 239.941C239.221 240.21 238.966 240.426 238.648 240.588C238.336 240.744 237.975 240.822 237.564 240.822C237.069 240.822 236.622 240.705 236.226 240.472C235.829 240.231 235.514 239.905 235.281 239.494C235.054 239.077 234.941 238.602 234.941 238.071C234.941 237.54 235.05 237.065 235.27 236.648C235.497 236.23 235.805 235.901 236.194 235.66C236.584 235.419 237.023 235.299 237.511 235.299C238.028 235.299 238.464 235.415 238.818 235.649C239.179 235.876 239.444 236.212 239.614 236.658C239.791 237.097 239.862 237.639 239.827 238.283H235.79C235.826 238.63 235.921 238.935 236.077 239.197C236.233 239.459 236.438 239.664 236.693 239.813C236.948 239.955 237.239 240.025 237.564 240.025C237.925 240.025 238.23 239.933 238.478 239.749C238.733 239.558 238.906 239.31 238.998 239.006ZM237.543 236.095C237.104 236.095 236.736 236.223 236.438 236.478C236.141 236.733 235.943 237.08 235.844 237.519H238.956C238.928 237.051 238.775 236.697 238.499 236.456C238.23 236.216 237.911 236.095 237.543 236.095ZM241.029 233.28H241.879V240.716H241.029V233.28ZM243.477 233.28H244.327V240.716H243.477V233.28ZM248.124 240.822C247.671 240.822 247.246 240.712 246.849 240.493C246.453 240.273 246.13 239.958 245.883 239.547C245.642 239.13 245.521 238.638 245.521 238.071C245.521 237.504 245.642 237.016 245.883 236.605C246.13 236.187 246.453 235.865 246.849 235.639C247.246 235.412 247.671 235.299 248.124 235.299C248.577 235.299 248.998 235.412 249.388 235.639C249.784 235.865 250.103 236.187 250.344 236.605C250.585 237.016 250.705 237.504 250.705 238.071C250.705 238.638 250.585 239.13 250.344 239.547C250.103 239.958 249.784 240.273 249.388 240.493C248.998 240.712 248.577 240.822 248.124 240.822ZM248.124 240.025C248.421 240.025 248.701 239.951 248.963 239.802C249.225 239.654 249.437 239.434 249.6 239.144C249.77 238.846 249.855 238.489 249.855 238.071C249.855 237.653 249.77 237.299 249.6 237.009C249.437 236.711 249.225 236.485 248.963 236.329C248.701 236.173 248.421 236.095 248.124 236.095C247.826 236.095 247.543 236.173 247.274 236.329C247.012 236.478 246.796 236.701 246.626 236.998C246.456 237.288 246.371 237.646 246.371 238.071C246.371 238.489 246.453 238.846 246.615 239.144C246.785 239.434 247.005 239.654 247.274 239.802C247.543 239.951 247.826 240.025 248.124 240.025Z" fill="white"/>
<g clip-path="url(#clip6_45_270)">
<path d="M214 268.485C218.05 268.485 221.333 265.202 221.333 261.151C221.333 257.101 218.05 253.818 214 253.818C209.95 253.818 206.667 257.101 206.667 261.151C206.667 265.202 209.95 268.485 214 268.485Z" fill="#4A8CFF"/>
<path d="M209.295 258.856V262.302C209.297 262.676 209.447 263.033 209.712 263.296C209.978 263.56 210.337 263.707 210.711 263.705H215.734C215.802 263.705 215.867 263.679 215.915 263.631C215.964 263.583 215.991 263.518 215.992 263.451V260.004C215.99 259.631 215.84 259.273 215.574 259.01C215.309 258.746 214.95 258.599 214.576 258.601H209.554C209.52 258.601 209.487 258.607 209.455 258.62C209.424 258.632 209.396 258.651 209.372 258.674C209.347 258.698 209.328 258.726 209.315 258.757C209.302 258.788 209.295 258.822 209.295 258.856ZM216.311 260.2L218.385 258.685C218.565 258.535 218.705 258.573 218.705 258.843V263.463C218.705 263.77 218.534 263.733 218.385 263.621L216.311 262.109V260.2Z" fill="#74247A"/>
</g>
<path d="M226.637 257.247H232.267V258.044L227.487 263.642L227.349 263.355H232.267V264.151H226.637V263.355L231.439 257.757L231.577 258.044H226.637V257.247ZM235.904 264.258C235.451 264.258 235.026 264.148 234.629 263.928C234.233 263.709 233.911 263.394 233.663 262.983C233.422 262.565 233.302 262.073 233.302 261.507C233.302 260.94 233.422 260.451 233.663 260.041C233.911 259.623 234.233 259.301 234.629 259.074C235.026 258.847 235.451 258.734 235.904 258.734C236.357 258.734 236.779 258.847 237.168 259.074C237.565 259.301 237.883 259.623 238.124 260.041C238.365 260.451 238.485 260.94 238.485 261.507C238.485 262.073 238.365 262.565 238.124 262.983C237.883 263.394 237.565 263.709 237.168 263.928C236.779 264.148 236.357 264.258 235.904 264.258ZM235.904 263.461C236.202 263.461 236.481 263.387 236.743 263.238C237.005 263.089 237.218 262.87 237.381 262.579C237.551 262.282 237.636 261.924 237.636 261.507C237.636 261.089 237.551 260.735 237.381 260.444C237.218 260.147 237.005 259.92 236.743 259.764C236.481 259.609 236.202 259.531 235.904 259.531C235.607 259.531 235.323 259.609 235.054 259.764C234.792 259.913 234.576 260.136 234.406 260.434C234.236 260.724 234.151 261.082 234.151 261.507C234.151 261.924 234.233 262.282 234.396 262.579C234.566 262.87 234.785 263.089 235.054 263.238C235.323 263.387 235.607 263.461 235.904 263.461ZM241.869 264.258C241.416 264.258 240.991 264.148 240.594 263.928C240.198 263.709 239.875 263.394 239.627 262.983C239.387 262.565 239.266 262.073 239.266 261.507C239.266 260.94 239.387 260.451 239.627 260.041C239.875 259.623 240.198 259.301 240.594 259.074C240.991 258.847 241.416 258.734 241.869 258.734C242.322 258.734 242.743 258.847 243.133 259.074C243.529 259.301 243.848 259.623 244.089 260.041C244.33 260.451 244.45 260.94 244.45 261.507C244.45 262.073 244.33 262.565 244.089 262.983C243.848 263.394 243.529 263.709 243.133 263.928C242.743 264.148 242.322 264.258 241.869 264.258ZM241.869 263.461C242.166 263.461 242.446 263.387 242.708 263.238C242.97 263.089 243.182 262.87 243.345 262.579C243.515 262.282 243.6 261.924 243.6 261.507C243.6 261.089 243.515 260.735 243.345 260.444C243.182 260.147 242.97 259.92 242.708 259.764C242.446 259.609 242.166 259.531 241.869 259.531C241.571 259.531 241.288 259.609 241.019 259.764C240.757 259.913 240.541 260.136 240.371 260.434C240.201 260.724 240.116 261.082 240.116 261.507C240.116 261.924 240.198 262.282 240.36 262.579C240.53 262.87 240.75 263.089 241.019 263.238C241.288 263.387 241.571 263.461 241.869 263.461ZM245.528 258.84H246.378V264.151H245.528V258.84ZM248.205 258.734C248.488 258.734 248.743 258.777 248.97 258.862C249.197 258.947 249.388 259.071 249.544 259.233C249.699 259.396 249.82 259.595 249.905 259.828C249.99 260.055 250.032 260.313 250.032 260.604V264.151H249.182V260.816C249.182 260.405 249.087 260.097 248.896 259.892C248.704 259.687 248.418 259.584 248.035 259.584C247.745 259.584 247.476 259.658 247.228 259.807C246.98 259.956 246.775 260.161 246.612 260.423C246.456 260.678 246.36 260.975 246.325 261.315L246.314 260.699C246.35 260.402 246.421 260.133 246.527 259.892C246.64 259.651 246.778 259.446 246.941 259.276C247.111 259.099 247.302 258.964 247.515 258.872C247.734 258.78 247.964 258.734 248.205 258.734ZM251.774 258.734C252.057 258.734 252.312 258.777 252.539 258.862C252.766 258.947 252.957 259.071 253.113 259.233C253.268 259.396 253.389 259.595 253.474 259.828C253.559 260.055 253.601 260.313 253.601 260.604V264.151H252.751V260.816C252.751 260.405 252.656 260.097 252.465 259.892C252.273 259.687 251.987 259.584 251.604 259.584C251.314 259.584 251.045 259.658 250.797 259.807C250.549 259.956 250.344 260.161 250.181 260.423C250.025 260.678 249.93 260.975 249.894 261.315L249.883 260.699C249.919 260.402 249.99 260.133 250.096 259.892C250.209 259.651 250.347 259.446 250.51 259.276C250.68 259.099 250.871 258.964 251.084 258.872C251.303 258.78 251.533 258.734 251.774 258.734Z" fill="white"/>
<rect x="208.978" y="74.4745" width="90.6898" height="10.0766" rx="5.03832" fill="#F1F1F1"/>
<line x1="335.276" y1="103.574" x2="547.751" y2="103.574" stroke="black" stroke-width="1.06676"/>
<line x1="335.276" y1="103.576" x2="198.249" y2="103.576" stroke="#691B6F" stroke-width="1.06223"/>
<rect x="347.258" y="77.2856" width="116.97" height="12.7467" rx="6.37335" fill="#727272"/>
</g>
<rect x="196.211" y="36.2109" width="353.578" height="287.578" rx="28.7416" stroke="black" stroke-width="4.42178"/>
</g>
<g clip-path="url(#clip7_45_270)">
<path d="M82.3267 132.027H101.871L120.251 163.715H100.663L82.3267 132.027Z" fill="url(#paint6_linear_45_270)"/>
<path d="M120.251 163.714L110.457 180.645H73.7844L83.6004 163.714H120.251Z" fill="url(#paint7_linear_45_270)"/>
<path d="M73.7845 180.645L64.0344 163.715L82.3268 132.027L92.1428 149.001L73.7845 180.645Z" fill="url(#paint8_linear_45_270)"/>
<path opacity="0.1" d="M73.7844 180.645L92.033 163.715H83.6004L73.7844 180.645ZM120.251 163.715H100.685L96.381 156.292L120.251 163.715ZM82.3268 132.027L87.9704 156.182L92.1428 149.001L82.3268 132.027Z" fill="black"/>
</g>
<g clip-path="url(#clip8_45_270)">
<path d="M38.8801 105.186L31.4109 100.369C31.1685 100.213 30.8532 100.229 30.6285 100.41L25.6069 104.451C25.2512 104.737 25.2801 105.288 25.6637 105.535L33.133 110.352C33.3754 110.508 33.6907 110.492 33.9154 110.311L38.937 106.27C39.2927 105.983 39.2638 105.433 38.8801 105.186Z" fill="#1587EA"/>
<path d="M40.9201 106.27L45.9418 110.311C46.1665 110.491 46.4818 110.508 46.7242 110.352L54.1934 105.535C54.5771 105.288 54.6059 104.737 54.2503 104.451L49.2286 100.41C49.0039 100.229 48.6886 100.213 48.4462 100.369L40.977 105.186C40.5934 105.433 40.5645 105.983 40.9201 106.27Z" fill="#1587EA"/>
<path d="M38.937 93.6205L33.9154 89.5795C33.6906 89.3987 33.3754 89.3821 33.133 89.5385L25.6637 94.3552C25.2801 94.6026 25.2512 95.153 25.6069 95.4392L30.6285 99.4802C30.8532 99.661 31.1685 99.6776 31.4109 99.5213L38.8801 94.7046C39.2638 94.4571 39.2927 93.9067 38.937 93.6205Z" fill="#1587EA"/>
<path d="M54.1934 94.3552L46.7242 89.5385C46.4818 89.3821 46.1665 89.3987 45.9418 89.5795L40.9201 93.6205C40.5645 93.9067 40.5934 94.4571 40.977 94.7046L48.4463 99.5213C48.6887 99.6776 49.004 99.661 49.2287 99.4802L54.2504 95.4392C54.606 95.153 54.5771 94.6025 54.1934 94.3552Z" fill="#1587EA"/>
<path d="M39.5625 106.979L33.939 111.465C33.7352 111.628 33.4503 111.642 33.2313 111.501L31.8452 110.607C31.4411 110.346 30.9089 110.636 30.9089 111.117V111.6C30.9089 111.813 31.0198 112.01 31.2014 112.12L39.5736 117.195C39.767 117.312 40.0096 117.312 40.2031 117.195L48.5753 112.12C48.7568 112.01 48.8677 111.813 48.8677 111.6V111.169C48.8677 110.688 48.3355 110.398 47.9315 110.659L46.6266 111.5C46.4072 111.642 46.1218 111.627 45.9179 111.464L40.3209 106.98C40.0994 106.803 39.7844 106.802 39.5625 106.979Z" fill="#1587EA"/>
</g>
<path d="M29.058 158.961H19.1381C19.1381 160.149 19.6098 161.288 20.4496 162.128C21.2894 162.968 22.4284 163.439 23.6161 163.439H25.4434V165.204C25.445 167.675 27.4476 169.677 29.9185 169.679V159.822C29.9185 159.347 29.5333 158.961 29.058 158.961Z" fill="#2684FF"/>
<path d="M24.1495 163.904H14.2297C14.2313 166.375 16.2339 168.377 18.7048 168.379H20.5322V170.149C20.5353 172.62 22.5393 174.621 25.0102 174.621V164.765C25.0102 164.289 24.6248 163.904 24.1495 163.904V163.904Z" fill="url(#paint9_linear_45_270)"/>
<path d="M19.2384 168.844H9.31848C9.31848 171.317 11.3234 173.322 13.7965 173.322H15.6296V175.086C15.6312 177.555 17.6303 179.557 20.099 179.561V169.705C20.099 169.229 19.7137 168.844 19.2384 168.844Z" fill="url(#paint10_linear_45_270)"/>
<path d="M63.8822 227.409C59.6349 227.409 56.1923 230.851 56.1923 235.098C56.1923 239.345 59.6349 242.788 63.8822 242.788C68.1289 242.788 71.5714 239.345 71.5714 235.098C71.5714 230.851 68.1289 227.409 63.8822 227.409ZM43.9039 227.409C39.6572 227.409 36.2143 230.851 36.2143 235.098C36.2143 239.345 39.6572 242.788 43.9039 242.788C48.1509 242.788 51.5938 239.345 51.5938 235.098C51.5938 230.851 48.1509 227.409 43.9035 227.409H43.9039ZM61.5825 217.797C61.5825 222.043 58.1399 225.487 53.8933 225.487C49.6459 225.487 46.2033 222.043 46.2033 217.797C46.2033 213.55 49.6459 210.107 53.8932 210.107C58.1399 210.107 61.5821 213.55 61.5821 217.797H61.5825Z" fill="url(#paint11_radial_45_270)"/>
<path d="M125.621 75.9595H113.317V88.2641H125.621V75.9595Z" fill="white"/>
<path d="M125.612 93.7946L131.152 88.2548H125.612V93.7946Z" fill="#EA4335"/>
<path d="M131.152 75.9595H125.612V88.2641H131.152V75.9595Z" fill="#FBBC04"/>
<path d="M125.621 88.2548H113.317V93.7946H125.621V88.2548Z" fill="#34A853"/>
<path d="M107.777 88.2548V91.9433C107.777 92.9672 108.604 93.7946 109.623 93.7946H113.312V88.2548H107.777Z" fill="#188038"/>
<path d="M131.152 75.9596V72.2663C131.152 71.2472 130.324 70.4197 129.305 70.4197H125.617V75.9596H131.152Z" fill="#1967D2"/>
<path d="M125.612 70.4197H109.623C108.604 70.4197 107.777 71.2472 107.777 72.2663V88.2595H113.317V75.9596H125.621L125.612 70.4197Z" fill="#4285F4"/>
<path d="M115.836 85.5012C115.374 85.1926 115.06 84.7391 114.883 84.1361L115.953 83.6966C116.051 84.0659 116.22 84.3511 116.458 84.5568C116.701 84.7578 116.991 84.856 117.332 84.856C117.678 84.856 117.982 84.7532 118.23 84.5381C118.482 84.3231 118.609 84.0519 118.609 83.7247C118.609 83.3927 118.478 83.1169 118.211 82.9019C117.945 82.6915 117.613 82.584 117.216 82.584H116.598V81.5274H117.15C117.491 81.5274 117.781 81.4339 118.015 81.2469C118.249 81.0646 118.366 80.8075 118.366 80.4896C118.366 80.1997 118.263 79.9753 118.052 79.807C117.842 79.6387 117.575 79.5499 117.258 79.5499C116.944 79.5499 116.697 79.634 116.51 79.8023C116.327 79.9706 116.187 80.181 116.108 80.4194L115.051 79.98C115.191 79.5826 115.448 79.232 115.822 78.9281C116.201 78.6289 116.683 78.47 117.267 78.47C117.702 78.47 118.09 78.5541 118.431 78.7224C118.772 78.8907 119.048 79.1245 119.244 79.4143C119.441 79.7088 119.539 80.0454 119.539 80.4148C119.539 80.7934 119.445 81.1067 119.263 81.3731C119.081 81.6349 118.856 81.836 118.59 81.9762V82.0417C118.931 82.1819 119.23 82.4157 119.45 82.7149C119.675 83.0141 119.782 83.374 119.782 83.7901C119.782 84.2109 119.679 84.5802 119.464 84.9074C119.254 85.2347 118.959 85.4918 118.585 85.6788C118.211 85.8658 117.791 85.964 117.323 85.964C116.795 85.964 116.295 85.8097 115.836 85.5012ZM122.391 80.2044L121.217 81.0552L120.633 80.167L122.732 78.6523H123.541V85.805H122.391V80.2044Z" fill="#4285F4"/>
<path d="M160.75 238.902C170.893 238.902 179.116 230.679 179.116 220.536C179.116 210.392 170.893 202.17 160.75 202.17C150.607 202.17 142.384 210.392 142.384 220.536C142.384 230.679 150.607 238.902 160.75 238.902Z" fill="#4A8CFF"/>
<path d="M148.966 214.786V223.417C148.97 224.353 149.346 225.249 150.011 225.908C150.676 226.567 151.576 226.935 152.512 226.931H165.093C165.263 226.932 165.426 226.865 165.547 226.746C165.668 226.626 165.737 226.464 165.738 226.294V217.663C165.733 216.727 165.357 215.831 164.693 215.172C164.028 214.513 163.128 214.144 162.192 214.148H149.615C149.531 214.147 149.447 214.163 149.368 214.195C149.29 214.226 149.218 214.273 149.158 214.332C149.098 214.391 149.05 214.462 149.017 214.54C148.984 214.618 148.967 214.701 148.966 214.786ZM166.539 218.153L171.733 214.358C172.184 213.984 172.534 214.078 172.534 214.755V226.325C172.534 227.095 172.106 227.001 171.733 226.721L166.539 222.935V218.153Z" fill="white"/>
<path d="M178.336 121.521H157.735C156.354 121.521 155.235 122.64 155.235 124.021V144.622C155.235 146.003 156.354 147.122 157.735 147.122H178.336C179.717 147.122 180.836 146.003 180.836 144.622V124.021C180.836 122.64 179.717 121.521 178.336 121.521Z" fill="url(#paint12_linear_45_270)"/>
<path d="M176.308 124.849H170.9C170.237 124.849 169.7 125.386 169.7 126.049V134.849C169.7 135.512 170.237 136.05 170.9 136.05H176.308C176.971 136.05 177.508 135.512 177.508 134.849V126.049C177.508 125.386 176.971 124.849 176.308 124.849Z" fill="white"/>
<path d="M165.172 124.849H159.763C159.101 124.849 158.563 125.386 158.563 126.049V141.25C158.563 141.913 159.101 142.45 159.763 142.45H165.172C165.834 142.45 166.372 141.913 166.372 141.25V126.049C166.372 125.386 165.834 124.849 165.172 124.849Z" fill="white"/>
</g>
<path d="M2 25H420C491.797 25 550 83.203 550 155C550 226.797 491.797 285 420 285H2V25Z" stroke="black" stroke-width="4"/>
</g>
<defs>
<filter id="filter0_ddddd_45_270" x="0" y="23" width="557" height="269" filterUnits="userSpaceOnUse" color-interpolation-filters="sRGB">
<feFlood flood-opacity="0" result="BackgroundImageFix"/>
<feColorMatrix in="SourceAlpha" type="matrix" values="0 0 0 0 0 0 0 0 0 0 0 0 0 0 0 0 0 0 127 0" result="hardAlpha"/>
<feOffset dx="1" dy="1"/>
<feComposite in2="hardAlpha" operator="out"/>
<feColorMatrix type="matrix" values="0 0 0 0 0 0 0 0 0 0 0 0 0 0 0 0 0 0 1 0"/>
<feBlend mode="normal" in2="BackgroundImageFix" result="effect1_dropShadow_45_270"/>
<feColorMatrix in="SourceAlpha" type="matrix" values="0 0 0 0 0 0 0 0 0 0 0 0 0 0 0 0 0 0 127 0" result="hardAlpha"/>
<feOffset dx="2" dy="2"/>
<feComposite in2="hardAlpha" operator="out"/>
<feColorMatrix type="matrix" values="0 0 0 0 0 0 0 0 0 0 0 0 0 0 0 0 0 0 1 0"/>
<feBlend mode="normal" in2="effect1_dropShadow_45_270" result="effect2_dropShadow_45_270"/>
<feColorMatrix in="SourceAlpha" type="matrix" values="0 0 0 0 0 0 0 0 0 0 0 0 0 0 0 0 0 0 127 0" result="hardAlpha"/>
<feOffset dx="3" dy="3"/>
<feComposite in2="hardAlpha" operator="out"/>
<feColorMatrix type="matrix" values="0 0 0 0 0 0 0 0 0 0 0 0 0 0 0 0 0 0 1 0"/>
<feBlend mode="normal" in2="effect2_dropShadow_45_270" result="effect3_dropShadow_45_270"/>
<feColorMatrix in="SourceAlpha" type="matrix" values="0 0 0 0 0 0 0 0 0 0 0 0 0 0 0 0 0 0 127 0" result="hardAlpha"/>
<feOffset dx="4" dy="4"/>
<feComposite in2="hardAlpha" operator="out"/>
<feColorMatrix type="matrix" values="0 0 0 0 0 0 0 0 0 0 0 0 0 0 0 0 0 0 1 0"/>
<feBlend mode="normal" in2="effect3_dropShadow_45_270" result="effect4_dropShadow_45_270"/>
<feColorMatrix in="SourceAlpha" type="matrix" values="0 0 0 0 0 0 0 0 0 0 0 0 0 0 0 0 0 0 127 0" result="hardAlpha"/>
<feOffset dx="5" dy="5"/>
<feComposite in2="hardAlpha" operator="out"/>
<feColorMatrix type="matrix" values="0 0 0 0 0 0 0 0 0 0 0 0 0 0 0 0 0 0 1 0"/>
<feBlend mode="normal" in2="effect4_dropShadow_45_270" result="effect5_dropShadow_45_270"/>
<feBlend mode="normal" in="SourceGraphic" in2="effect5_dropShadow_45_270" result="shape"/>
</filter>
<filter id="filter1_ddddd_45_270" x="194" y="34" width="363.527" height="297.527" filterUnits="userSpaceOnUse" color-interpolation-filters="sRGB">
<feFlood flood-opacity="0" result="BackgroundImageFix"/>
<feColorMatrix in="SourceAlpha" type="matrix" values="0 0 0 0 0 0 0 0 0 0 0 0 0 0 0 0 0 0 127 0" result="hardAlpha"/>
<feOffset dx="1.10545" dy="1.10545"/>
<feComposite in2="hardAlpha" operator="out"/>
<feColorMatrix type="matrix" values="0 0 0 0 0 0 0 0 0 0 0 0 0 0 0 0 0 0 1 0"/>
<feBlend mode="normal" in2="BackgroundImageFix" result="effect1_dropShadow_45_270"/>
<feColorMatrix in="SourceAlpha" type="matrix" values="0 0 0 0 0 0 0 0 0 0 0 0 0 0 0 0 0 0 127 0" result="hardAlpha"/>
<feOffset dx="2.21089" dy="2.21089"/>
<feComposite in2="hardAlpha" operator="out"/>
<feColorMatrix type="matrix" values="0 0 0 0 0 0 0 0 0 0 0 0 0 0 0 0 0 0 1 0"/>
<feBlend mode="normal" in2="effect1_dropShadow_45_270" result="effect2_dropShadow_45_270"/>
<feColorMatrix in="SourceAlpha" type="matrix" values="0 0 0 0 0 0 0 0 0 0 0 0 0 0 0 0 0 0 127 0" result="hardAlpha"/>
<feOffset dx="3.31634" dy="3.31634"/>
<feComposite in2="hardAlpha" operator="out"/>
<feColorMatrix type="matrix" values="0 0 0 0 0 0 0 0 0 0 0 0 0 0 0 0 0 0 1 0"/>
<feBlend mode="normal" in2="effect2_dropShadow_45_270" result="effect3_dropShadow_45_270"/>
<feColorMatrix in="SourceAlpha" type="matrix" values="0 0 0 0 0 0 0 0 0 0 0 0 0 0 0 0 0 0 127 0" result="hardAlpha"/>
<feOffset dx="4.42178" dy="4.42178"/>
<feComposite in2="hardAlpha" operator="out"/>
<feColorMatrix type="matrix" values="0 0 0 0 0 0 0 0 0 0 0 0 0 0 0 0 0 0 1 0"/>
<feBlend mode="normal" in2="effect3_dropShadow_45_270" result="effect4_dropShadow_45_270"/>
<feColorMatrix in="SourceAlpha" type="matrix" values="0 0 0 0 0 0 0 0 0 0 0 0 0 0 0 0 0 0 127 0" result="hardAlpha"/>
<feOffset dx="5.52723" dy="5.52723"/>
<feComposite in2="hardAlpha" operator="out"/>
<feColorMatrix type="matrix" values="0 0 0 0 0 0 0 0 0 0 0 0 0 0 0 0 0 0 1 0"/>
<feBlend mode="normal" in2="effect4_dropShadow_45_270" result="effect5_dropShadow_45_270"/>
<feBlend mode="normal" in="SourceGraphic" in2="effect5_dropShadow_45_270" result="shape"/>
</filter>
<linearGradient id="paint0_linear_45_270" x1="211.413" y1="161.204" x2="219.631" y2="171.04" gradientUnits="userSpaceOnUse">
<stop stop-color="#F6C338"/>
<stop offset="0.523" stop-color="#FFD351"/>
<stop offset="1" stop-color="#F6C338"/>
</linearGradient>
<linearGradient id="paint1_linear_45_270" x1="221.407" y1="169.555" x2="218.537" y2="177.433" gradientUnits="userSpaceOnUse">
<stop stop-color="#286EE6"/>
<stop offset="0.521" stop-color="#4286FB"/>
<stop offset="1" stop-color="#286EE6"/>
</linearGradient>
<linearGradient id="paint2_linear_45_270" x1="211.429" y1="161.204" x2="205.82" y2="172.274" gradientUnits="userSpaceOnUse">
<stop stop-color="#069B5A"/>
<stop offset="0.531" stop-color="#11AA62"/>
<stop offset="1" stop-color="#069B5A"/>
</linearGradient>
<linearGradient id="paint3_linear_45_270" x1="217.402" y1="186.951" x2="214.493" y2="189.986" gradientUnits="userSpaceOnUse">
<stop offset="0.18" stop-color="#0052CC"/>
<stop offset="1" stop-color="#2684FF"/>
</linearGradient>
<linearGradient id="paint4_linear_45_270" x1="214.193" y1="190.399" x2="210.828" y2="193.709" gradientUnits="userSpaceOnUse">
<stop offset="0.18" stop-color="#0052CC"/>
<stop offset="1" stop-color="#2684FF"/>
</linearGradient>
<linearGradient id="paint5_linear_45_270" x1="214" y1="230.383" x2="214" y2="245.049" gradientUnits="userSpaceOnUse">
<stop stop-color="#0091E6"/>
<stop offset="1" stop-color="#0079BF"/>
</linearGradient>
<linearGradient id="paint6_linear_45_270" x1="82.3267" y1="132.027" x2="113.51" y2="169.347" gradientUnits="userSpaceOnUse">
<stop stop-color="#F6C338"/>
<stop offset="0.523" stop-color="#FFD351"/>
<stop offset="1" stop-color="#F6C338"/>
</linearGradient>
<linearGradient id="paint7_linear_45_270" x1="120.251" y1="163.714" x2="109.359" y2="193.608" gradientUnits="userSpaceOnUse">
<stop stop-color="#286EE6"/>
<stop offset="0.521" stop-color="#4286FB"/>
<stop offset="1" stop-color="#286EE6"/>
</linearGradient>
<linearGradient id="paint8_linear_45_270" x1="82.3861" y1="132.027" x2="61.1017" y2="174.033" gradientUnits="userSpaceOnUse">
<stop stop-color="#069B5A"/>
<stop offset="0.531" stop-color="#11AA62"/>
<stop offset="1" stop-color="#069B5A"/>
</linearGradient>
<linearGradient id="paint9_linear_45_270" x1="24.7979" y1="163.921" x2="20.6038" y2="168.298" gradientUnits="userSpaceOnUse">
<stop offset="0.18" stop-color="#0052CC"/>
<stop offset="1" stop-color="#2684FF"/>
</linearGradient>
<linearGradient id="paint10_linear_45_270" x1="20.1707" y1="168.893" x2="15.3192" y2="173.666" gradientUnits="userSpaceOnUse">
<stop offset="0.18" stop-color="#0052CC"/>
<stop offset="1" stop-color="#2684FF"/>
</linearGradient>
<radialGradient id="paint11_radial_45_270" cx="0" cy="0" r="1" gradientUnits="userSpaceOnUse" gradientTransform="translate(53.8977 227.988) scale(23.4418 21.6676)">
<stop stop-color="#FFB900"/>
<stop offset="0.6" stop-color="#F95D8F"/>
<stop offset="0.999" stop-color="#F95353"/>
</radialGradient>
<linearGradient id="paint12_linear_45_270" x1="168.036" y1="121.521" x2="168.036" y2="147.122" gradientUnits="userSpaceOnUse">
<stop stop-color="#0091E6"/>
<stop offset="1" stop-color="#0079BF"/>
</linearGradient>
<clipPath id="clip0_45_270">
<path d="M0 23H420C492.902 23 552 82.0984 552 155C552 227.902 492.902 287 420 287H0V23Z" fill="white"/>
</clipPath>
<clipPath id="clip1_45_270">
<rect x="194" y="34" width="358" height="292" rx="30.9525" fill="white"/>
</clipPath>
<clipPath id="clip2_45_270">
<rect width="16" height="16" fill="white" transform="translate(206 135.974)"/>
</clipPath>
<clipPath id="clip3_45_270">
<rect width="14.8148" height="12.8474" fill="white" transform="translate(206.593 161.187)"/>
</clipPath>
<clipPath id="clip4_45_270">
<rect width="16" height="16" fill="white" transform="translate(206 206.28)"/>
</clipPath>
<clipPath id="clip5_45_270">
<rect width="16" height="16" fill="white" transform="translate(206 229.716)"/>
</clipPath>
<clipPath id="clip6_45_270">
<rect width="16" height="16" fill="white" transform="translate(206 253.151)"/>
</clipPath>
<clipPath id="clip7_45_270">
<rect width="56.2169" height="48.7513" fill="white" transform="translate(64.0344 131.96)"/>
</clipPath>
<clipPath id="clip8_45_270">
<rect width="29.1429" height="29.1429" fill="white" transform="translate(25.3571 88.7858)"/>
</clipPath>
</defs>
</svg>
