<svg width="24" height="24" viewBox="0 0 24 24" fill="none" xmlns="http://www.w3.org/2000/svg">
<path d="M12.0491 17.6865C10.8669 16.2036 10.1718 14.9042 9.94006 13.7912C9.7101 12.8941 9.80104 12.1762 10.1945 11.6367C10.6116 11.0159 11.2324 10.7142 12.0482 10.7142C12.864 10.7142 13.4839 11.0159 13.901 11.6428C14.291 12.1762 14.3889 12.8949 14.1511 13.7973C13.8966 14.9322 13.2024 16.2315 12.0429 17.6935L12.0491 17.6865ZM20.4404 18.6833C20.2787 19.7719 19.5363 20.6751 18.5168 21.1158C16.5486 21.9727 14.5996 20.606 12.9313 18.7524C15.69 15.2986 16.1997 12.6099 15.0158 10.8707C14.3207 9.87396 13.3256 9.38868 12.0491 9.38868C9.47577 9.38868 8.06103 11.5659 8.61713 14.0928C8.94065 15.4603 9.79841 17.015 11.1659 18.7532C10.309 19.7011 9.49675 20.3752 8.77889 20.7923C8.22279 21.0931 7.6903 21.2793 7.18054 21.3239C4.83983 21.6728 3.00452 19.402 3.8378 17.0596C3.95322 16.7579 4.18318 16.2027 4.57665 15.3449L4.59851 15.2986C5.87772 12.5216 7.43148 9.36508 9.21695 5.86408L9.2633 5.74866L9.77043 4.77373C10.1639 4.055 10.3257 3.73323 10.9517 3.33713C11.2534 3.15439 11.6241 3.06258 12.0403 3.06258C12.8745 3.06258 13.5241 3.54961 13.8022 3.9422C13.9403 4.15118 14.1038 4.42923 14.3111 4.77548L14.799 5.7268L14.8689 5.86583C16.6526 9.36508 18.2082 12.5154 19.4821 15.2995L19.5048 15.3213L19.9709 16.3881L20.2489 17.0561C20.4614 17.5912 20.506 18.1237 20.4352 18.6798L20.4404 18.6833ZM21.5063 16.5944C21.3437 16.0846 21.0656 15.4831 20.7194 14.7643V14.7381C19.0694 11.2362 17.5366 8.08849 16.0817 5.25988L15.9846 5.11824C14.9476 2.99176 14.2053 1.71429 12.0491 1.71429C9.91733 1.71429 9.01148 3.19549 8.08551 5.12173L8.01469 5.26163C6.55623 8.08936 5.02433 11.2415 3.37963 14.7416V14.7879L2.89173 15.8538C2.70811 16.2945 2.61455 16.5253 2.59007 16.5944C1.40966 19.8401 3.84217 22.6905 6.78707 22.6905C6.81067 22.6905 6.90248 22.6905 7.0179 22.6669H7.34317C8.87333 22.4807 10.4498 21.5084 12.0491 19.7675C13.6474 21.5058 15.2257 22.4807 16.7532 22.6669H17.0785C17.1939 22.6905 17.2866 22.6905 17.3093 22.6905C20.2542 22.6932 22.6867 19.8401 21.5063 16.5944Z" fill="black" stroke="black"/>
</svg>
