<svg width="24" height="24" viewBox="0 0 24 24" fill="none" xmlns="http://www.w3.org/2000/svg">
<path d="M9.01272 2.88495C9.01272 2.58542 9.04313 2.40571 9.55647 2.40571H16.4364C17.6345 2.40571 18.298 3.4287 18.7773 5.34843L19.1643 6.88385H20.3348C20.5468 2.52644 20.7311 0.631592 20.7311 0.631592C20.7311 0.631592 17.7856 0.963374 16.0401 0.963374H7.23952L2.52637 0.812229V2.07485L4.11616 2.37529C5.23132 2.59648 5.49859 2.83242 5.59075 3.85541C5.59075 3.85541 5.69213 6.8691 5.69213 11.8182C5.69213 16.7811 5.60918 19.7533 5.60918 19.7533C5.60918 20.6501 5.24975 20.9818 4.14381 21.203L2.55678 21.5072V22.7504L7.28468 22.5984H15.1645C16.9479 22.5984 21.0537 22.7504 21.0537 22.7504C21.1504 21.6721 21.7449 16.7783 21.8416 16.2401H20.7357L19.5523 18.922C18.6261 21.0233 17.2704 21.1754 15.7645 21.1754H11.243C9.7408 21.1754 9.01733 20.5856 9.01733 19.2861V12.4283C9.01733 12.4283 12.3536 12.4283 13.4319 12.5168C14.2724 12.5758 14.7802 12.8163 15.0539 13.9895L15.4134 15.5517H16.7128L16.6299 11.609L16.8068 7.64142H15.5249L15.1101 9.38328C14.8493 10.5298 14.6678 10.7381 13.4936 10.8579C11.9582 11.0145 9.05603 10.9869 9.05603 10.9869V2.88956H9.00995L9.01272 2.88495Z" fill="black"/>
</svg>
