<svg width="24" height="24" viewBox="0 0 24 24" fill="none" xmlns="http://www.w3.org/2000/svg">
<path d="M12.2142 10.4699V14.1412H18.2864C18.041 15.7159 16.4521 18.7573 12.2142 18.7573C8.56073 18.7573 5.57729 15.7337 5.57729 12C5.57729 8.2662 8.56163 5.24261 12.2142 5.24261C14.293 5.24261 15.6857 6.12497 16.4833 6.89225L19.3864 4.09259C17.5218 2.35195 15.104 1.29382 12.2142 1.29382C6.2946 1.29382 1.50806 6.08036 1.50806 12C1.50806 17.9196 6.2946 22.7061 12.2142 22.7061C18.3934 22.7061 22.4921 18.3621 22.4921 12.2444C22.4921 11.5414 22.4163 11.0043 22.3235 10.4699H12.2142Z" fill="black"/>
</svg>
