<svg width="24" height="24" viewBox="0 0 24 24" fill="none" xmlns="http://www.w3.org/2000/svg">
<path fill-rule="evenodd" clip-rule="evenodd" d="M14.9402 11.5265C15.0011 11.5873 15.072 11.7799 15.1633 11.8914C12.9328 13.3208 8.03621 16.4739 5.29888 18.4915C6.32284 19.5051 7.6104 20.2859 9.08045 20.7219C13.8556 22.121 18.8941 19.3633 20.2932 14.5881C20.9321 12.4185 20.709 10.2085 19.8373 8.3025C19.1479 8.93107 18.3568 9.56978 17.5053 10.2085C17.4748 10.2186 17.4548 10.2389 17.4242 10.2592C16.7551 10.7661 16.0554 11.273 15.3256 11.7698C15.2547 11.6481 15.1735 11.5265 15.1026 11.4048C15.6095 11.05 16.1064 10.7053 16.5929 10.3606L16.6133 10.3403C17.1708 9.9449 17.7081 9.55964 18.2049 9.16425C17.1912 9.76241 16.1265 10.2389 15.0722 10.6342C15.0623 10.4415 15.0823 10.2489 15.0722 10.0664C14.9608 10.1577 14.829 10.2489 14.7173 10.3401C14.5653 10.33 14.4741 10.2692 14.3119 10.2286C14.1901 10.0664 14.0685 9.91434 13.947 9.76227C15.5691 9.07287 17.262 8.17056 19.0464 6.89314C17.873 5.19323 16.1516 3.94771 14.17 3.36488C9.39474 1.9658 4.35602 4.71327 2.9468 9.49867C2.53113 10.9282 2.48044 12.3677 2.74404 13.7466C3.28136 13.4625 3.80855 13.2093 4.35602 12.9862V13.1686L4.14312 13.4626C3.68402 13.6031 3.23081 13.7621 2.78459 13.9392C3.13957 15.5918 3.96077 17.1124 5.12653 18.319C7.6204 16.2913 12.3651 13.1182 14.9402 11.5265Z" fill="black"/>
<path fill-rule="evenodd" clip-rule="evenodd" d="M6.70818 12.1449C6.6879 12.1449 6.66762 12.155 6.63721 12.1653L6.70818 12.2767V12.1449Z" fill="black"/>
<path fill-rule="evenodd" clip-rule="evenodd" d="M5.45094 12.5605C5.25271 12.6288 5.05661 12.7032 4.86292 12.7835V13.2499C5.13666 13.1789 5.43067 13.0978 5.72467 13.0268L5.45094 12.5605ZM4.35601 12.9864C3.20025 13.4628 2.08504 14.0408 1.00024 14.8316C1.92283 14.2537 2.98734 13.8277 4.14311 13.4628L4.34587 13.1586L4.35601 12.9864ZM13.9469 9.76258C14.0685 9.91466 14.1901 10.0767 14.3018 10.2289C14.4743 10.2796 14.5652 10.3303 14.7173 10.3405C14.829 10.2492 14.9608 10.158 15.0722 10.0667C15.0823 10.2594 15.0623 10.452 15.0722 10.6345C16.1265 10.2391 17.1912 9.76272 18.2049 9.17456C17.7082 9.55982 17.1708 9.94507 16.6133 10.3405L16.5929 10.3607C16.1064 10.7054 15.6095 11.0501 15.1026 11.405C15.1735 11.5266 15.2546 11.6483 15.3256 11.77C16.0453 11.2732 16.7551 10.7663 17.4242 10.2594C17.4548 10.2391 17.4748 10.2188 17.5053 10.2087C20.5264 7.91742 22.8786 5.59576 23.0001 3.51727C19.7052 6.77166 16.7245 8.57627 13.9469 9.76258ZM8.71546 12.3578L8.74588 12.2566C8.60394 12.0436 8.47214 11.8509 8.35048 11.6583C7.96523 11.7698 7.59011 11.8813 7.215 11.9927V12.6821C7.70164 12.5706 8.20855 12.4695 8.71546 12.3578ZM14.9301 11.5265C15.001 11.5975 15.072 11.78 15.1633 11.8915C12.2132 13.7772 4.66016 18.6334 3.49412 19.992C3.69702 18.9274 11.4021 13.7164 14.9301 11.5265ZM8.60394 11.5772C8.67491 11.709 8.75601 11.8408 8.82698 11.9624L8.96892 11.4758C8.84726 11.5062 8.7256 11.5468 8.60394 11.5772ZM12.4465 11.4859C12.4261 11.4353 12.4261 11.3744 12.4261 11.3136C12.4362 10.7864 12.9634 10.2187 13.6529 10.1883C13.7745 10.1781 13.876 10.1781 13.9669 10.1781C13.8858 10.0666 13.7947 9.96521 13.7035 9.86383C12.7302 10.2694 11.7975 10.6039 10.8749 10.8979L11.1892 11.8104C11.6049 11.709 12.0205 11.5975 12.4465 11.4859Z" fill="black"/>
<path fill-rule="evenodd" clip-rule="evenodd" d="M14.4741 10.8573C14.4425 10.8058 14.4051 10.7582 14.3625 10.7154C13.8858 10.6039 13.4907 10.7458 13.4907 10.9384C13.4907 11.0297 13.5311 11.0905 13.6021 11.1412C13.8961 11.05 14.19 10.9587 14.4741 10.8573Z" fill="black"/>
<path fill-rule="evenodd" clip-rule="evenodd" d="M16.8059 10.2085L16.593 10.3606C16.5017 10.2693 16.4308 10.1983 16.4308 10.2085H16.8059ZM12.7707 12.9053C12.6798 12.9661 12.5985 13.0268 12.5073 13.0876C12.4971 12.9257 12.5174 12.7633 12.5073 12.6011C12.5681 12.7226 12.6391 12.814 12.7707 12.9053ZM10.6824 14.801L10.9561 14.6186C11.2501 14.8621 11.5238 15.0749 11.7063 15.1862C12.0915 15.4601 11.9192 15.7338 11.8077 15.7945C11.6861 15.8655 11.3616 15.8047 11.2197 15.5311C11.1791 15.4296 10.9358 15.1051 10.7128 14.8417C10.7052 14.8264 10.6949 14.8126 10.6824 14.801ZM14.0686 12.5808C14.4641 12.3275 14.8188 12.0943 15.1332 11.9119C15.3054 12.0943 15.4171 12.3375 15.4171 12.6217C15.4375 13.1996 14.677 13.5949 14.0483 13.6354C13.43 13.6758 13.2678 13.6354 12.9229 13.524C12.8014 13.6149 12.6289 13.7063 12.5074 13.8079C12.4973 13.7369 12.5074 13.6558 12.5074 13.5848C12.7566 13.4246 13.0067 13.2657 13.2576 13.1082C13.6936 13.2297 14.1498 13.2097 14.2309 12.9662C14.2916 12.7736 14.2105 12.6619 14.0686 12.5808Z" fill="white"/>
<path fill-rule="evenodd" clip-rule="evenodd" d="M15.1633 11.8915C15.4776 12.3882 15.7513 12.885 15.9441 13.3311L15.6298 13.5948H16.0658C16.2077 13.9598 16.2989 14.2841 16.3295 14.5375C16.4613 15.6323 16.6235 16.1698 16.1673 16.7578C15.782 17.2345 15.1434 17.3156 13.6226 16.7782C14.3728 17.3663 16.441 17.8123 16.6436 16.0684C16.7349 15.3589 16.5727 14.4871 16.2382 13.595H16.8972L16.5625 13.2199L16.6843 12.7738H17.7791L17.9211 13.2097L17.5866 13.595H19.7461L19.2492 13.1489L18.2456 10.2088H17.5055C17.2751 10.3769 17.0453 10.5459 16.8161 10.7157L16.0862 13.2097C15.7416 12.3987 15.2751 11.5977 14.7479 10.8475C14.8694 10.9083 14.9608 10.9894 15.0722 11.0908C15.0722 10.7563 15.0823 10.4014 15.0722 10.0669C14.9608 10.1581 14.829 10.2493 14.7072 10.3406C14.5653 10.3305 14.464 10.2798 14.3018 10.2291C13.8557 9.63091 13.369 9.0733 12.8825 8.61708C10.8951 6.72095 8.95883 5.54491 7.65085 6.30528C6.33288 7.07579 7.45823 10.026 8.05638 11.1412C8.2186 11.4657 8.47205 11.8509 8.74578 12.2564L8.46191 13.1992L8.01583 13.5947H9.28311L8.93841 13.1992L9.07021 12.7735H9.08035C9.63795 13.5744 10.2158 14.3144 10.3983 14.4967C10.4693 14.4462 10.5504 14.3853 10.6214 14.3348C10.4896 14.2231 10.3578 14.1016 10.2462 13.9798C10.084 13.8277 9.73933 13.3816 9.3338 12.7736H10.1651L10.3071 13.1892L9.96238 13.5948H11.7467C11.8177 13.544 11.8988 13.4832 11.9698 13.4428L11.6352 13.1285L10.6214 10.2086H8.81675C8.80661 10.1782 9.23242 10.6142 9.23242 10.6142L8.82689 11.9727C8.18818 10.9082 7.53933 9.61049 7.3467 8.54597C6.96145 6.50818 8.0868 5.79851 10.0739 6.7515C11.3006 7.34966 12.7604 8.67777 13.9567 10.1782C13.8759 10.1782 13.7744 10.1782 13.6528 10.1884C12.9634 10.2188 12.4361 10.7865 12.4158 11.3137C12.4057 11.8409 13.0748 12.1855 13.4702 12.3477C13.5008 12.3578 13.531 12.3782 13.5615 12.3884C13.9974 12.1045 14.4028 11.8612 14.7779 11.628C14.6869 11.5773 14.5854 11.5266 14.4839 11.4861C13.9567 11.2833 13.5008 11.2326 13.4804 10.9386C13.4905 10.746 13.8857 10.604 14.3725 10.7156L14.9401 11.5266L15.1633 11.8915Z" fill="white"/>
<path fill-rule="evenodd" clip-rule="evenodd" d="M4.01147 10.2085H5.5018L6.70825 12.2766V10.6039L6.39397 10.2085H7.54973L7.21517 10.5836V13.1182L7.59028 13.5948H6.04927L4.86309 11.5772V13.2601L5.21793 13.5948H4.03175L4.34604 13.1586L4.35618 10.614L4.01147 10.2085Z" fill="white"/>
<path fill-rule="evenodd" clip-rule="evenodd" d="M9.22241 12.3174H9.95237L9.56711 11.1312C9.56711 11.1311 9.24269 12.3071 9.22241 12.3174Z" fill="black"/>
<path fill-rule="evenodd" clip-rule="evenodd" d="M9.61779 11.2831C9.58443 11.2947 9.55061 11.3048 9.51641 11.3136C9.44544 11.5772 9.30351 12.0638 9.24268 12.2464C9.45558 12.1956 9.67862 12.1449 9.88139 12.1045L9.61779 11.2831Z" fill="#ADACAC"/>
<path fill-rule="evenodd" clip-rule="evenodd" d="M16.8362 12.3174H17.5661L17.1809 11.1515C17.1809 11.1513 16.8566 12.3071 16.8362 12.3174Z" fill="black"/>
</svg>
