<svg width="24" height="24" viewBox="0 0 24 24" fill="none" xmlns="http://www.w3.org/2000/svg">
<path d="M20.1198 14.3087H20.0335C19.7083 15.2008 19.1978 16.0138 18.5356 16.6943C17.8734 17.3747 17.0745 17.9071 16.1916 18.2563V14.3087L18.3437 12.3873L16.1916 10.4659V7.77662C17.0962 7.77911 17.9657 7.42605 18.6125 6.79355C19.2594 6.16105 19.6318 5.29973 19.6496 4.39522C19.6496 2.08019 17.4402 1.26389 16.1916 1.26389C15.8681 1.2576 15.5452 1.29312 15.2309 1.36956V1.48492H15.7205C15.8982 1.45356 16.0806 1.45966 16.2559 1.50282C16.4312 1.54598 16.5955 1.62526 16.7384 1.73558C16.8813 1.8459 16.9996 1.98483 17.0857 2.14349C17.1718 2.30215 17.2239 2.47703 17.2386 2.65696C17.2317 2.82207 17.1923 2.98419 17.1227 3.13406C17.0531 3.28394 16.9546 3.41862 16.8329 3.53042C16.7112 3.64221 16.5687 3.72893 16.4135 3.7856C16.2582 3.84227 16.0934 3.8678 15.9283 3.86071L15.8746 3.85719C13.7224 3.85719 11.1873 2.10925 8.43018 2.10925C7.39371 2.05392 6.37713 2.40893 5.60044 3.09746C4.82374 3.78599 4.34939 4.75266 4.28003 5.78829C4.24788 6.44147 4.44978 7.08469 4.84943 7.60234C5.24908 8.11998 5.82028 8.47809 6.46033 8.61229V8.50662C6.26182 8.3789 6.10164 8.19977 5.99682 7.98828C5.892 7.77678 5.84647 7.54083 5.86506 7.30552C5.89639 6.87604 6.09702 6.4766 6.42284 6.19504C6.74865 5.91348 7.17296 5.77287 7.60244 5.80414L7.63238 5.80766C9.94741 5.80766 13.6837 7.72907 15.9987 7.72907H16.085V10.4958L13.9329 12.4172L16.085 14.3387V18.3444C15.2236 18.6282 14.3212 18.7677 13.4142 18.7574C11.9412 18.8317 10.4932 18.3559 9.35126 17.4224L13.2513 15.6745V7.82417L7.79528 10.2255C8.05295 9.46353 8.46726 8.76393 9.01156 8.17171C9.55585 7.57948 10.2181 7.10775 10.9557 6.78686V6.70056C6.97899 7.58466 3.78955 10.4368 3.78955 14.366C3.78955 18.9388 7.33386 22.3968 12.435 22.3968C17.7282 22.3968 20.1198 18.5549 20.1198 14.6354V14.3087ZM9.18835 17.2771C8.59476 16.6837 8.13111 15.9734 7.82686 15.1911C7.5226 14.4089 7.3844 13.5719 7.42104 12.7334C7.40681 11.9588 7.51712 11.187 7.74773 10.4474L9.55379 9.62142V17.0852L9.18835 17.2771Z" fill="black"/>
</svg>
