<svg width="24" height="24" viewBox="0 0 24 24" fill="none" xmlns="http://www.w3.org/2000/svg">
<path d="M0.817871 8.18622V12.8095C0.817871 14.5525 2.02961 15.699 3.61419 15.699C4.38784 15.699 5.06828 15.4007 5.5623 14.8881V15.5778H6.66218V8.18622H5.55298V12.7442C5.55298 13.9187 4.76068 14.711 3.74469 14.711C2.71005 14.711 1.92708 13.9373 1.92708 12.7442V8.18622H0.817871ZM7.75275 8.18622V15.5778H8.80603V14.8974C9.05663 15.1521 9.35556 15.3542 9.68528 15.4918C10.015 15.6295 10.3689 15.6999 10.7262 15.699C11.0981 15.7027 11.467 15.6322 11.8114 15.4916C12.1557 15.351 12.4686 15.1431 12.7316 14.8801C12.9946 14.6171 13.2025 14.3043 13.3431 13.9599C13.4837 13.6156 13.5542 13.2466 13.5505 12.8747C13.5505 12.5051 13.4772 12.1392 13.335 11.7981C13.1927 11.457 12.9842 11.1475 12.7216 10.8875C12.4589 10.6274 12.1474 10.422 11.8049 10.2832C11.4624 10.1443 11.0957 10.0747 10.7262 10.0784C10.3703 10.0777 10.0179 10.1483 9.68969 10.2859C9.36151 10.4236 9.06422 10.6256 8.81535 10.88V8.18622H7.75275ZM16.9526 10.0784C15.3774 10.0784 14.1843 11.3647 14.1843 12.8747C14.1843 14.4873 15.4333 15.671 17.0459 15.671C18.0339 15.671 18.8355 15.2609 19.3668 14.5432L18.6025 13.9653C18.2017 14.5059 17.6704 14.7389 17.0459 14.7389C16.1417 14.7389 15.4147 14.1051 15.2655 13.2289H19.6464V12.8747C19.6464 11.2808 18.4999 10.0784 16.9526 10.0784ZM22.8156 10.153C22.2284 10.153 21.7903 10.4233 21.5293 10.852V10.1902H20.476V15.5778H21.5386V12.5112C21.5386 11.6816 22.0513 11.141 22.7504 11.141H23.1884V10.1436H22.8156M16.934 11.0105C17.7263 11.0105 18.3881 11.5604 18.5652 12.3807H15.2655C15.4799 11.5604 16.1417 11.0105 16.934 11.0105ZM10.6516 11.0105C11.6676 11.0105 12.4972 11.8494 12.4972 12.8747C12.4972 13.928 11.6676 14.7389 10.6516 14.7389C10.1588 14.7365 9.68702 14.539 9.33943 14.1896C8.99183 13.8403 8.7967 13.3675 8.79671 12.8747C8.7967 12.3819 8.99183 11.9091 9.33943 11.5598C9.68702 11.2105 10.1588 11.013 10.6516 11.0105Z" fill="black"/>
<path d="M16.9526 10.0784C15.3774 10.0784 14.1843 11.3647 14.1843 12.8747C14.1843 14.4873 15.4333 15.671 17.0459 15.671C18.0339 15.671 18.8355 15.2609 19.3668 14.5432L18.6025 13.9653C18.2017 14.5059 17.6704 14.7389 17.0459 14.7389C16.1417 14.7389 15.4147 14.1051 15.2655 13.2289H19.6464V12.8747C19.6464 11.2808 18.4999 10.0784 16.9526 10.0784M22.8156 10.153C22.2284 10.153 21.7903 10.4233 21.5293 10.852V10.1902H20.476V15.5778H21.5386V12.5112C21.5386 11.6816 22.0513 11.141 22.7504 11.141H23.1884V10.1436H22.8156M0.817871 8.18622V12.8095C0.817871 14.5525 2.02961 15.699 3.61419 15.699C4.38784 15.699 5.06828 15.4007 5.5623 14.8881V15.5778H6.66218V8.18622H5.55298V12.7442C5.55298 13.9187 4.76068 14.711 3.74469 14.711C2.71005 14.711 1.92708 13.9373 1.92708 12.7442V8.18622H0.817871ZM7.75275 8.18622V15.5778H8.80603V14.8974C9.05663 15.1521 9.35556 15.3542 9.68528 15.4918C10.015 15.6295 10.3689 15.6999 10.7262 15.699C11.0981 15.7027 11.467 15.6322 11.8114 15.4916C12.1557 15.351 12.4686 15.1431 12.7316 14.8801C12.9946 14.6171 13.2025 14.3043 13.3431 13.9599C13.4837 13.6156 13.5542 13.2466 13.5505 12.8747C13.5505 12.5051 13.4772 12.1392 13.335 11.7981C13.1927 11.457 12.9842 11.1475 12.7216 10.8875C12.4589 10.6274 12.1474 10.422 11.8049 10.2832C11.4624 10.1443 11.0957 10.0747 10.7262 10.0784C10.3703 10.0777 10.0179 10.1483 9.68969 10.2859C9.36151 10.4236 9.06422 10.6256 8.81535 10.88V8.18622H7.75275ZM16.934 11.0105C17.7263 11.0105 18.3881 11.5604 18.5652 12.3807H15.2655C15.4799 11.5604 16.1417 11.0105 16.934 11.0105ZM10.6516 11.0105C11.6676 11.0105 12.4972 11.8494 12.4972 12.8747C12.4972 13.928 11.6676 14.7389 10.6516 14.7389C10.1588 14.7365 9.68702 14.539 9.33943 14.1896C8.99183 13.8403 8.7967 13.3675 8.79671 12.8747C8.7967 12.3819 8.99183 11.9091 9.33943 11.5598C9.68702 11.2105 10.1588 11.013 10.6516 11.0105V11.0105Z" stroke="black" stroke-width="0.5"/>
</svg>
