<?xml version="1.0" encoding="UTF-8" standalone="no"?><!DOCTYPE svg PUBLIC "-//W3C//DTD SVG 1.1//EN" "http://www.w3.org/Graphics/SVG/1.1/DTD/svg11.dtd"><svg width="100%" height="100%" viewBox="0 0 124 59" version="1.1" xmlns="http://www.w3.org/2000/svg" xmlns:xlink="http://www.w3.org/1999/xlink" xml:space="preserve" xmlns:serif="http://www.serif.com/" style="fill-rule:evenodd;clip-rule:evenodd;stroke-linejoin:round;stroke-miterlimit:2;"><rect id="Artboard1" x="0" y="0" width="124" height="59" style="fill:none;"/><g><path d="M6.871,44.49c-0.411,-0.397 -0.795,-0.817 -1.15,-1.263c-0.003,-0.004 -0.007,-0.009 -0.01,-0.013c-1.685,-2.136 -2.561,-4.606 -2.561,-7.314c0,-2.188 0.616,-4.226 1.969,-5.938c0.813,-1.03 1.792,-1.876 2.906,-2.552c-0.617,-0.634 -1.183,-1.321 -1.696,-2.061c-0.008,-0.013 -0.017,-0.025 -0.025,-0.038c-1.287,-1.918 -1.885,-4.118 -1.885,-6.479c-0,-2.713 0.722,-5.205 2.3,-7.31c0.004,-0.006 0.009,-0.012 0.013,-0.018c1.572,-2.063 3.767,-3.513 6.376,-4.456l0.013,-0.005c2.632,-0.961 5.688,-1.393 9.087,-1.393c3.049,-0 5.914,0.515 8.556,1.589l0.027,0.011c2.291,0.913 4.275,2.181 5.877,3.838c0.117,0.113 0.231,0.227 0.344,0.344c0.116,0.112 0.231,0.227 0.344,0.344c0.116,0.112 0.231,0.227 0.343,0.343c0.117,0.113 0.231,0.228 0.344,0.344c0.116,0.113 0.231,0.227 0.343,0.344c0.117,0.113 0.231,0.227 0.344,0.344c0.116,0.112 0.231,0.227 0.343,0.343c0.117,0.113 0.231,0.228 0.344,0.344c0.116,0.113 0.231,0.227 0.344,0.344c0.116,0.113 0.231,0.227 0.343,0.344c0.37,0.357 0.72,0.734 1.051,1.131l0.011,0.012c0.557,0.664 1.03,1.364 1.417,2.099l0.778,-8.578c0.14,-1.546 1.436,-2.73 2.987,-2.73l23.32,0c0.915,0 1.735,0.411 2.285,1.058c0.124,0.105 0.238,0.22 0.344,0.344c0.123,0.105 0.238,0.22 0.343,0.343c0.124,0.106 0.239,0.221 0.344,0.344c0.123,0.105 0.238,0.22 0.343,0.344c0.124,0.105 0.239,0.22 0.344,0.344c0.123,0.105 0.238,0.22 0.343,0.344c0.124,0.105 0.239,0.22 0.344,0.343c0.124,0.106 0.239,0.22 0.344,0.344c0.097,0.083 0.188,0.171 0.274,0.266c0.953,-1.534 2.228,-2.766 3.834,-3.598l0.015,-0.008c1.644,-0.856 3.422,-1.278 5.287,-1.278c1.894,0 3.696,0.411 5.352,1.27c0.01,0.005 0.021,0.011 0.031,0.016c0.979,0.501 1.836,1.15 2.573,1.924c0.117,0.112 0.231,0.227 0.343,0.344c0.117,0.112 0.232,0.226 0.344,0.344c0.117,0.112 0.232,0.226 0.343,0.344c0.118,0.111 0.232,0.226 0.344,0.343c0.117,0.112 0.232,0.227 0.343,0.344c0.118,0.112 0.232,0.226 0.344,0.344c0.117,0.112 0.232,0.226 0.344,0.344c0.117,0.111 0.231,0.226 0.343,0.344c0.117,0.111 0.232,0.226 0.344,0.343c0.117,0.112 0.232,0.227 0.343,0.344c0.42,0.4 0.805,0.838 1.154,1.311l3.979,-5.839c0.558,-0.819 1.486,-1.31 2.477,-1.31l8.584,0c0.89,0 1.722,0.395 2.285,1.058c0.123,0.105 0.238,0.219 0.343,0.344c0.123,0.104 0.238,0.219 0.344,0.344c0.123,0.104 0.238,0.219 0.344,0.343c0.123,0.105 0.238,0.22 0.343,0.344c0.123,0.105 0.238,0.22 0.344,0.344c0.123,0.105 0.238,0.219 0.343,0.344c0.123,0.104 0.238,0.219 0.344,0.343c0.123,0.105 0.238,0.22 0.343,0.344c0.124,0.105 0.238,0.22 0.344,0.344c0.123,0.105 0.238,0.22 0.344,0.344c0.285,0.242 0.527,0.54 0.708,0.882c0.52,0.983 0.455,2.172 -0.17,3.091l-7.941,11.693c0.473,0.169 0.938,0.371 1.392,0.607c0.01,0.005 0.021,0.011 0.032,0.016c0.98,0.502 1.839,1.154 2.579,1.931c0.117,0.112 0.232,0.227 0.344,0.344c0.117,0.112 0.231,0.226 0.343,0.344c0.117,0.111 0.232,0.226 0.344,0.344c0.117,0.111 0.232,0.226 0.343,0.343c0.118,0.112 0.232,0.227 0.344,0.344c0.117,0.112 0.232,0.226 0.344,0.344c0.117,0.112 0.231,0.226 0.343,0.344c0.117,0.111 0.232,0.226 0.344,0.343c0.117,0.112 0.231,0.227 0.343,0.344c0.118,0.112 0.232,0.227 0.344,0.344c0.736,0.701 1.365,1.519 1.888,2.434l0.009,0.016c1.071,1.865 1.499,4.061 1.499,6.4c0,2.324 -0.436,4.504 -1.499,6.373c-0.003,0.005 -0.006,0.011 -0.009,0.016c-0.998,1.728 -2.372,3.106 -4.124,4.022c-0.011,0.005 -0.021,0.011 -0.032,0.016c-1.647,0.837 -3.429,1.243 -5.297,1.243c-1.857,-0 -3.629,-0.409 -5.271,-1.243c-0.016,-0.008 -0.032,-0.017 -0.048,-0.025c-0.943,-0.501 -1.773,-1.137 -2.491,-1.891c-0.117,-0.112 -0.231,-0.226 -0.343,-0.344c-0.117,-0.111 -0.232,-0.226 -0.344,-0.343c-0.117,-0.112 -0.232,-0.227 -0.343,-0.344c-0.118,-0.112 -0.232,-0.227 -0.344,-0.344c-0.117,-0.112 -0.232,-0.226 -0.343,-0.344c-0.118,-0.112 -0.232,-0.226 -0.344,-0.344c-0.117,-0.111 -0.232,-0.226 -0.344,-0.343c-0.117,-0.112 -0.231,-0.227 -0.343,-0.344c-0.117,-0.112 -0.232,-0.226 -0.344,-0.344c-0.117,-0.112 -0.232,-0.226 -0.343,-0.344c-0.444,-0.422 -0.848,-0.886 -1.213,-1.388l-4.09,6.023c-0.559,0.822 -1.487,1.314 -2.481,1.314l-8.664,-0c-0.89,-0 -1.722,-0.395 -2.285,-1.058c-0.123,-0.105 -0.238,-0.22 -0.344,-0.344c-0.123,-0.105 -0.238,-0.219 -0.343,-0.344c-0.123,-0.104 -0.238,-0.219 -0.344,-0.343c-0.123,-0.105 -0.238,-0.22 -0.344,-0.344c-0.123,-0.105 -0.238,-0.22 -0.343,-0.344c-0.123,-0.105 -0.238,-0.22 -0.344,-0.344c-0.123,-0.104 -0.238,-0.219 -0.343,-0.344c-0.123,-0.104 -0.238,-0.219 -0.344,-0.343c-0.123,-0.105 -0.238,-0.22 -0.343,-0.344c-0.123,-0.105 -0.238,-0.22 -0.344,-0.344c-0.286,-0.243 -0.528,-0.541 -0.709,-0.884c-0.11,-0.208 -0.193,-0.425 -0.251,-0.646c-1.408,1.947 -3.218,3.525 -5.391,4.731c-2.653,1.472 -5.661,2.159 -8.931,2.159c-3.24,0 -6.2,-0.54 -8.787,-1.735c-0.009,-0.004 -0.019,-0.008 -0.028,-0.013c-1.649,-0.782 -3.092,-1.802 -4.304,-3.057c-0.116,-0.113 -0.231,-0.228 -0.343,-0.344c-0.117,-0.113 -0.231,-0.227 -0.344,-0.344c-0.116,-0.112 -0.231,-0.227 -0.343,-0.344c-0.117,-0.112 -0.231,-0.227 -0.344,-0.344c-0.116,-0.112 -0.231,-0.227 -0.344,-0.343c-0.116,-0.113 -0.231,-0.227 -0.343,-0.344c-0.117,-0.113 -0.231,-0.227 -0.344,-0.344c-0.116,-0.112 -0.231,-0.227 -0.343,-0.344c-0.117,-0.112 -0.231,-0.227 -0.344,-0.343c-0.116,-0.113 -0.231,-0.228 -0.343,-0.344c-0.223,-0.216 -0.439,-0.439 -0.648,-0.669c-0.373,0.824 -0.843,1.613 -1.407,2.364l-0.003,0.005c-1.645,2.192 -3.96,3.79 -6.738,4.899c-2.843,1.133 -6.158,1.644 -9.855,1.644c-3.629,0 -6.899,-0.503 -9.729,-1.61c-2.343,-0.917 -4.366,-2.167 -5.952,-3.813c-0.117,-0.112 -0.231,-0.227 -0.344,-0.343c-0.116,-0.113 -0.231,-0.228 -0.343,-0.344c-0.117,-0.113 -0.232,-0.227 -0.344,-0.344c-0.117,-0.113 -0.231,-0.227 -0.344,-0.344c-0.116,-0.112 -0.231,-0.227 -0.343,-0.343c-0.117,-0.113 -0.231,-0.228 -0.344,-0.344c-0.116,-0.113 -0.231,-0.227 -0.343,-0.344c-0.117,-0.113 -0.231,-0.227 -0.344,-0.344c-0.117,-0.112 -0.231,-0.227 -0.343,-0.344c-0.117,-0.112 -0.232,-0.227 -0.344,-0.343Zm71.194,-3.596l5.986,-8.785c-0.487,-0.168 -0.964,-0.371 -1.43,-0.608c-0.016,-0.008 -0.032,-0.016 -0.048,-0.025c-0.935,-0.496 -1.757,-1.127 -2.468,-1.874c-0.117,-0.112 -0.232,-0.227 -0.344,-0.344c-0.117,-0.112 -0.231,-0.227 -0.343,-0.344c-0.117,-0.112 -0.232,-0.226 -0.344,-0.344c-0.117,-0.112 -0.232,-0.226 -0.343,-0.344c-0.118,-0.111 -0.232,-0.226 -0.344,-0.343c-0.117,-0.112 -0.232,-0.227 -0.343,-0.344c-0.118,-0.112 -0.232,-0.226 -0.344,-0.344c-0.117,-0.112 -0.232,-0.226 -0.344,-0.344c-0.117,-0.111 -0.231,-0.226 -0.343,-0.344c-0.117,-0.111 -0.232,-0.226 -0.344,-0.343c-0.708,-0.674 -1.315,-1.455 -1.824,-2.326c-0.417,0.22 -0.893,0.345 -1.398,0.345l-2.064,0c0.079,0.078 0.157,0.157 0.234,0.237c0.117,0.113 0.232,0.228 0.343,0.344c0.118,0.113 0.232,0.227 0.344,0.344c0.117,0.112 0.232,0.227 0.343,0.343c0.118,0.113 0.232,0.228 0.344,0.344c0.117,0.113 0.232,0.228 0.344,0.344c0.117,0.113 0.231,0.227 0.343,0.344c0.117,0.113 0.232,0.227 0.344,0.343c0.117,0.113 0.232,0.228 0.343,0.344c0.118,0.113 0.232,0.228 0.344,0.344c2.585,2.487 3.788,5.787 3.788,9.575c0,1.309 -0.143,2.579 -0.432,3.805Zm-36.492,-11.618c-0.272,0.317 -0.563,0.615 -0.871,0.897c0.106,0.101 0.209,0.205 0.308,0.31c0.119,0.112 0.233,0.227 0.344,0.343c0.118,0.113 0.233,0.228 0.344,0.344c0.081,0.078 0.161,0.157 0.239,0.236c0.168,-0.075 0.342,-0.135 0.521,-0.178c-0.036,-0.035 -0.072,-0.072 -0.106,-0.11c-0.466,-0.51 -0.738,-1.161 -0.779,-1.842Zm-27.366,-7.117c-0.007,0.147 -0.011,0.299 -0.011,0.455c-0,0.938 0.163,1.72 0.457,2.389c0.218,0.132 0.434,0.257 0.646,0.375c0.242,-0.009 0.484,-0.013 0.728,-0.013c0.456,-0 0.905,0.017 1.346,0.052c-0.019,-0.02 -0.037,-0.04 -0.055,-0.06c-0.067,-0.061 -0.133,-0.123 -0.196,-0.187c-0.017,-0.017 -0.033,-0.033 -0.049,-0.05c-0.034,-0.035 -0.067,-0.071 -0.099,-0.107c-0.067,-0.061 -0.132,-0.123 -0.196,-0.187c-0.016,-0.016 -0.033,-0.033 -0.049,-0.05c-0.033,-0.035 -0.066,-0.071 -0.099,-0.106c-0.066,-0.062 -0.132,-0.124 -0.196,-0.188c-0.016,-0.016 -0.032,-0.033 -0.048,-0.05c-0.034,-0.035 -0.067,-0.07 -0.099,-0.106c-0.067,-0.061 -0.132,-0.124 -0.196,-0.188c-0.017,-0.016 -0.033,-0.033 -0.049,-0.049c-0.033,-0.036 -0.066,-0.071 -0.099,-0.107c-0.067,-0.061 -0.132,-0.123 -0.196,-0.187c-0.016,-0.017 -0.032,-0.033 -0.048,-0.05c-0.034,-0.035 -0.067,-0.071 -0.099,-0.107c-0.067,-0.061 -0.132,-0.123 -0.196,-0.187c-0.017,-0.016 -0.033,-0.033 -0.049,-0.05c-0.034,-0.035 -0.067,-0.071 -0.099,-0.107c-0.067,-0.061 -0.132,-0.123 -0.196,-0.187c-0.016,-0.016 -0.033,-0.033 -0.049,-0.05c-0.033,-0.035 -0.066,-0.07 -0.098,-0.106c-0.067,-0.061 -0.133,-0.124 -0.196,-0.188c-0.017,-0.016 -0.033,-0.033 -0.049,-0.05c-0.169,-0.176 -0.322,-0.362 -0.461,-0.554Zm19.502,-4.922c-0.426,-0.229 -0.885,-0.442 -1.378,-0.638c-0.009,-0.004 -0.018,-0.007 -0.027,-0.011c-0.928,-0.379 -1.917,-0.668 -2.973,-0.863c0.07,0.066 0.139,0.133 0.207,0.202c0.012,0.012 0.025,0.025 0.037,0.038c0.034,0.035 0.068,0.07 0.102,0.106c0.069,0.065 0.137,0.131 0.205,0.2c0.012,0.012 0.024,0.025 0.036,0.037c0.035,0.035 0.069,0.071 0.102,0.107c0.07,0.064 0.138,0.131 0.205,0.2c0.013,0.012 0.025,0.025 0.037,0.037c0.035,0.035 0.068,0.071 0.102,0.106c0.069,0.065 0.138,0.132 0.205,0.2c0.012,0.013 0.024,0.025 0.037,0.038c0.034,0.035 0.068,0.07 0.101,0.106c0.07,0.065 0.138,0.132 0.205,0.2c0.013,0.013 0.025,0.025 0.037,0.038c0.035,0.035 0.069,0.07 0.102,0.106c0.069,0.065 0.138,0.131 0.205,0.2c0.012,0.012 0.025,0.025 0.037,0.037c0.034,0.036 0.068,0.071 0.101,0.107c0.07,0.065 0.138,0.131 0.206,0.2c0.012,0.012 0.024,0.025 0.036,0.037c0.035,0.035 0.069,0.071 0.102,0.106c0.07,0.065 0.138,0.132 0.205,0.2c0.012,0.013 0.025,0.025 0.037,0.038c0.034,0.035 0.068,0.071 0.102,0.106c0.069,0.065 0.137,0.132 0.205,0.2c0.012,0.013 0.024,0.025 0.037,0.038c0.034,0.035 0.068,0.07 0.101,0.106c0.07,0.065 0.138,0.132 0.205,0.2c0.013,0.013 0.025,0.025 0.037,0.038c0.035,0.035 0.068,0.07 0.102,0.106c0.069,0.065 0.138,0.131 0.205,0.2c0.012,0.012 0.024,0.025 0.037,0.037c0.034,0.035 0.068,0.071 0.101,0.107c0.07,0.064 0.138,0.131 0.205,0.2c0.013,0.012 0.025,0.025 0.037,0.037c0.213,0.217 0.405,0.445 0.575,0.683c0.124,-0.347 0.179,-0.696 0.179,-1.057c0,-0.776 -0.131,-1.481 -0.399,-2.135Zm18.871,23.69l-2.166,0c0.145,0.487 0.32,0.938 0.523,1.358c0.067,0.034 0.135,0.067 0.203,0.1c0.01,0.004 0.019,0.009 0.028,0.013c1.103,0.505 2.407,0.865 3.94,1.042c-0.175,-0.153 -0.339,-0.312 -0.493,-0.478c-0.12,-0.111 -0.234,-0.226 -0.343,-0.344c-0.12,-0.111 -0.235,-0.226 -0.344,-0.343c-0.12,-0.112 -0.234,-0.227 -0.343,-0.344c-0.12,-0.112 -0.235,-0.226 -0.344,-0.344c-0.12,-0.112 -0.234,-0.226 -0.344,-0.344c-0.11,-0.103 -0.216,-0.208 -0.317,-0.316Zm16.14,-7.556c-0,-0.021 -0,-0.042 -0,-0.063c-0,-1.152 -0.162,-2.129 -0.466,-2.965c-0.873,-0.37 -1.883,-0.624 -3.057,-0.741c0.009,0.01 0.017,0.019 0.026,0.028c0.12,0.112 0.234,0.226 0.343,0.344c0.121,0.111 0.235,0.226 0.344,0.344c0.12,0.111 0.235,0.226 0.344,0.344c0.12,0.111 0.234,0.226 0.343,0.343c0.12,0.112 0.235,0.226 0.344,0.344c0.12,0.112 0.234,0.226 0.343,0.344c0.12,0.111 0.235,0.226 0.344,0.344c0.436,0.404 0.799,0.852 1.092,1.334Zm-55.542,4.83c-0.159,0.401 -0.251,0.883 -0.251,1.481c0,0.736 0.124,1.423 0.383,2.078c0.414,0.214 0.864,0.417 1.353,0.609c1.058,0.414 2.272,0.73 3.655,0.934c-0.14,-0.103 -0.277,-0.21 -0.41,-0.322c-0.012,-0.01 -0.024,-0.02 -0.036,-0.03c-0.184,-0.16 -0.361,-0.329 -0.527,-0.509c-0.119,-0.11 -0.234,-0.225 -0.344,-0.344c-0.119,-0.11 -0.233,-0.225 -0.343,-0.344c-0.119,-0.11 -0.234,-0.225 -0.344,-0.343c-0.119,-0.111 -0.233,-0.225 -0.344,-0.344c-0.118,-0.11 -0.233,-0.225 -0.343,-0.344c-0.119,-0.11 -0.233,-0.225 -0.344,-0.344c-0.118,-0.11 -0.233,-0.225 -0.343,-0.344c-0.119,-0.11 -0.234,-0.224 -0.344,-0.343c-0.119,-0.111 -0.233,-0.225 -0.344,-0.344c-0.118,-0.11 -0.232,-0.225 -0.342,-0.343c-0.265,-0.247 -0.511,-0.515 -0.732,-0.804Zm22.008,-1.413c0.073,-0.397 0.11,-0.809 0.11,-1.239c-0,-0.627 -0.06,-1.158 -0.164,-1.61c-0.402,-0.212 -0.836,-0.423 -1.305,-0.632c-0.612,0.087 -1.238,0.139 -1.876,0.158c0.003,0.003 0.006,0.006 0.009,0.009c0.012,0.014 0.026,0.027 0.039,0.041c0.104,0.098 0.206,0.198 0.304,0.303c0.013,0.014 0.026,0.027 0.039,0.041c0.104,0.098 0.206,0.198 0.305,0.303c0.013,0.013 0.026,0.027 0.039,0.041c0.104,0.097 0.206,0.198 0.304,0.303c0.013,0.013 0.026,0.027 0.039,0.04c0.105,0.098 0.206,0.199 0.305,0.303c0.013,0.014 0.026,0.027 0.039,0.041c0.104,0.098 0.206,0.199 0.304,0.303c0.013,0.014 0.027,0.027 0.039,0.041c0.105,0.098 0.207,0.198 0.305,0.303c0.013,0.014 0.026,0.027 0.039,0.041c0.104,0.097 0.206,0.198 0.305,0.303c0.013,0.013 0.026,0.027 0.039,0.041c0.104,0.097 0.206,0.198 0.304,0.303c0.013,0.013 0.026,0.027 0.039,0.041c0.155,0.164 0.302,0.339 0.439,0.522Z"/><path d="M22.208,46.568c-3.365,-0 -6.244,-0.468 -8.637,-1.405c-2.393,-0.936 -4.228,-2.205 -5.506,-3.808c-1.277,-1.62 -1.916,-3.438 -1.916,-5.455c-0,-1.602 0.441,-2.962 1.322,-4.078c0.882,-1.116 2.07,-1.971 3.563,-2.565c1.494,-0.595 3.158,-0.892 4.993,-0.892c1.008,0 1.917,0.099 2.726,0.297c0.828,0.199 1.827,0.451 2.996,0.757l0,1.89c-1.241,0 -2.375,0.162 -3.4,0.486c-1.008,0.306 -1.809,0.729 -2.403,1.27c-0.593,0.54 -0.89,1.161 -0.89,1.863c-0,0.738 0.333,1.395 0.998,1.971c0.666,0.559 1.539,1 2.619,1.324c1.097,0.324 2.276,0.486 3.535,0.486c2.681,-0 4.553,-0.261 5.614,-0.783c1.08,-0.522 1.62,-1.144 1.62,-1.864c-0,-0.558 -0.225,-1.071 -0.675,-1.539c-0.45,-0.486 -1.089,-0.909 -1.916,-1.269l-10.662,-4.132c-1.277,-0.505 -2.6,-1.207 -3.967,-2.107c-1.35,-0.9 -2.492,-2.025 -3.428,-3.376c-0.918,-1.368 -1.377,-2.97 -1.377,-4.807c0,-2.16 0.567,-3.997 1.701,-5.509c1.151,-1.513 2.825,-2.665 5.02,-3.457c2.213,-0.81 4.903,-1.215 8.07,-1.215c2.717,-0 5.2,0.459 7.45,1.377c2.267,0.9 4.075,2.161 5.425,3.781c1.349,1.602 2.024,3.457 2.024,5.563c-0,1.297 -0.387,2.503 -1.161,3.619c-0.773,1.098 -1.871,1.99 -3.292,2.674c-1.422,0.684 -3.104,1.026 -5.048,1.026c-0.881,-0 -1.682,-0.081 -2.402,-0.243c-0.72,-0.162 -1.574,-0.405 -2.564,-0.729l0,-2.35c0.9,0 1.772,-0.135 2.618,-0.405c0.864,-0.27 1.566,-0.657 2.105,-1.161c0.558,-0.504 0.837,-1.098 0.837,-1.783c0,-0.792 -0.261,-1.449 -0.783,-1.971c-0.503,-0.522 -1.205,-0.918 -2.105,-1.188c-0.9,-0.27 -1.934,-0.405 -3.104,-0.405c-1.079,-0 -2.069,0.117 -2.969,0.351c-0.899,0.216 -1.619,0.531 -2.159,0.945c-0.54,0.396 -0.81,0.882 -0.81,1.458c0,0.558 0.189,1.035 0.567,1.432c0.396,0.396 1.017,0.783 1.862,1.161l11.309,4.456c2.664,1.044 4.706,2.241 6.127,3.592c1.44,1.332 2.16,3.232 2.16,5.698c-0,2.107 -0.63,3.997 -1.89,5.671c-1.241,1.657 -3.059,2.962 -5.452,3.916c-2.393,0.955 -5.308,1.432 -8.745,1.432Zm35.206,-0c-2.915,-0 -5.425,-0.486 -7.53,-1.459c-2.088,-0.99 -3.707,-2.412 -4.859,-4.267c-1.151,-1.854 -1.772,-4.087 -1.862,-6.697l8.853,-0c-0,1.548 0.513,2.7 1.538,3.457c1.026,0.738 2.312,1.107 3.86,1.107c1.493,-0 2.78,-0.522 3.86,-1.567c1.097,-1.044 1.646,-2.322 1.646,-3.834c-0,-2.809 -1.988,-4.213 -5.965,-4.213l-12.389,-0l1.782,-19.634l23.32,-0l-0,7.94l-16.384,-0l1.647,-2.242l-0.918,8.939l-0.54,-0.702c0.864,-0.198 1.935,-0.351 3.212,-0.459c1.296,-0.126 2.366,-0.189 3.212,-0.189c3.563,0 6.424,0.936 8.583,2.809c2.159,1.872 3.239,4.456 3.239,7.751c-0,2.448 -0.603,4.681 -1.809,6.697c-1.205,1.999 -2.879,3.592 -5.02,4.78c-2.141,1.189 -4.633,1.783 -7.476,1.783Zm21.003,-0.864l24.696,-36.243l8.584,-0l-24.616,36.243l-8.664,-0Zm27.693,0.648c-1.404,-0 -2.709,-0.306 -3.914,-0.919c-1.188,-0.63 -2.142,-1.584 -2.861,-2.862c-0.72,-1.297 -1.08,-2.926 -1.08,-4.888c0,-1.999 0.36,-3.637 1.08,-4.916c0.719,-1.296 1.673,-2.25 2.861,-2.862c1.205,-0.63 2.51,-0.945 3.914,-0.945c1.421,-0 2.735,0.315 3.94,0.945c1.206,0.612 2.177,1.566 2.915,2.862c0.738,1.279 1.107,2.917 1.107,4.916c-0,1.962 -0.369,3.591 -1.107,4.888c-0.738,1.278 -1.709,2.232 -2.915,2.862c-1.205,0.613 -2.519,0.919 -3.94,0.919Zm-0,-5.348c0.503,0 0.908,-0.225 1.214,-0.675c0.306,-0.45 0.459,-1.332 0.459,-2.646c-0,-1.315 -0.153,-2.206 -0.459,-2.674c-0.306,-0.486 -0.711,-0.729 -1.214,-0.729c-0.504,-0 -0.909,0.243 -1.215,0.729c-0.288,0.468 -0.432,1.359 -0.432,2.674c-0,1.314 0.144,2.196 0.432,2.646c0.306,0.45 0.711,0.675 1.215,0.675Zm-21.998,-15.042c-1.403,-0 -2.708,-0.306 -3.913,-0.918c-1.188,-0.631 -2.142,-1.594 -2.861,-2.89c-0.72,-1.296 -1.08,-2.935 -1.08,-4.915c-0,-1.945 0.36,-3.547 1.08,-4.807c0.719,-1.279 1.673,-2.224 2.861,-2.836c1.205,-0.63 2.51,-0.945 3.913,-0.945c1.458,-0 2.789,0.315 3.995,0.945c1.205,0.612 2.168,1.557 2.888,2.836c0.719,1.26 1.079,2.862 1.079,4.807c0,1.98 -0.36,3.619 -1.079,4.915c-0.72,1.296 -1.683,2.259 -2.888,2.89c-1.206,0.612 -2.537,0.918 -3.995,0.918Zm0,-5.293c0.522,-0 0.936,-0.234 1.242,-0.703c0.324,-0.468 0.486,-1.377 0.486,-2.727c-0,-1.279 -0.162,-2.134 -0.486,-2.566c-0.306,-0.45 -0.72,-0.675 -1.242,-0.675c-0.504,-0 -0.9,0.225 -1.187,0.675c-0.288,0.432 -0.432,1.287 -0.432,2.566c-0,1.35 0.144,2.259 0.432,2.727c0.287,0.469 0.683,0.703 1.187,0.703Z" style="fill:#ffc700;fill-rule:nonzero;"/></g></svg>