<?xml version="1.0" encoding="UTF-8" standalone="no"?><!DOCTYPE svg PUBLIC "-//W3C//DTD SVG 1.1//EN" "http://www.w3.org/Graphics/SVG/1.1/DTD/svg11.dtd"><svg width="100%" height="100%" viewBox="0 0 124 59" version="1.1" xmlns="http://www.w3.org/2000/svg" xmlns:xlink="http://www.w3.org/1999/xlink" xml:space="preserve" xmlns:serif="http://www.serif.com/" style="fill-rule:evenodd;clip-rule:evenodd;stroke-linejoin:round;stroke-miterlimit:2;"><rect id="Artboard1" x="0" y="0" width="124" height="59" style="fill:none;"/><g><path d="M5.983,44.752c-0.401,-0.389 -0.776,-0.801 -1.124,-1.237c-0.003,-0.004 -0.007,-0.008 -0.01,-0.013c-1.685,-2.135 -2.562,-4.604 -2.562,-7.312c0,-2.187 0.617,-4.225 1.97,-5.937c0.813,-1.029 1.793,-1.875 2.907,-2.551c-0.617,-0.633 -1.183,-1.321 -1.696,-2.06c-0.009,-0.013 -0.017,-0.025 -0.026,-0.038c-1.287,-1.918 -1.886,-4.117 -1.886,-6.478c0,-2.712 0.724,-5.204 2.301,-7.308c0.005,-0.006 0.009,-0.012 0.014,-0.018c1.572,-2.063 3.768,-3.512 6.378,-4.455l0.013,-0.005c2.633,-0.961 5.69,-1.393 9.09,-1.393c3.051,0 5.916,0.515 8.559,1.589l0.027,0.011c2.28,0.908 4.256,2.167 5.854,3.81c0.098,0.096 0.195,0.193 0.29,0.291c0.098,0.095 0.195,0.192 0.291,0.29c0.098,0.096 0.195,0.193 0.291,0.291c0.098,0.096 0.195,0.193 0.29,0.291c0.098,0.095 0.195,0.192 0.291,0.29c0.098,0.096 0.195,0.193 0.291,0.291c0.098,0.096 0.195,0.193 0.29,0.291c0.098,0.095 0.195,0.192 0.291,0.29c0.098,0.096 0.195,0.193 0.291,0.291c0.098,0.096 0.195,0.192 0.29,0.291c0.36,0.35 0.702,0.718 1.025,1.104l0.01,0.013c0.506,0.602 0.943,1.235 1.309,1.897c0.111,-0.26 0.227,-0.516 0.348,-0.769l0.003,-0.007c1.622,-3.368 3.916,-6.042 6.919,-7.874l0.008,-0.005c2.98,-1.806 6.345,-2.676 10.005,-2.676c3.005,0 5.785,0.542 8.267,1.715l0.01,0.005c1.67,0.784 3.133,1.805 4.357,3.066c0.099,0.096 0.195,0.193 0.291,0.291c0.098,0.095 0.195,0.192 0.291,0.291c0.098,0.095 0.195,0.192 0.29,0.29c0.099,0.096 0.195,0.193 0.291,0.291c0.098,0.095 0.195,0.192 0.29,0.291c0.099,0.095 0.196,0.192 0.291,0.29c0.098,0.096 0.195,0.193 0.291,0.291c0.098,0.095 0.195,0.192 0.29,0.291c0.099,0.095 0.196,0.192 0.291,0.29c0.098,0.096 0.195,0.193 0.291,0.291c0.371,0.36 0.722,0.742 1.052,1.144c0.224,-1.261 0.622,-2.449 1.237,-3.529l0.009,-0.016c0.975,-1.724 2.331,-3.102 4.078,-4.006l0.015,-0.008c1.644,-0.856 3.423,-1.278 5.289,-1.278c1.894,0 3.697,0.411 5.353,1.27c0.011,0.005 0.021,0.011 0.032,0.016c0.967,0.496 1.816,1.134 2.547,1.897c0.099,0.094 0.196,0.191 0.291,0.29c0.098,0.095 0.195,0.192 0.29,0.291c0.099,0.095 0.196,0.192 0.291,0.291c0.099,0.094 0.196,0.191 0.291,0.29c0.098,0.095 0.195,0.192 0.29,0.291c0.099,0.095 0.196,0.192 0.291,0.291c0.099,0.094 0.196,0.191 0.291,0.29c0.098,0.095 0.195,0.192 0.29,0.291c0.099,0.095 0.196,0.192 0.291,0.291c0.099,0.094 0.196,0.191 0.291,0.29c0.615,0.59 1.154,1.263 1.615,2.008l4.075,-5.977c0.559,-0.819 1.487,-1.31 2.479,-1.31l8.585,0c0.879,0 1.701,0.384 2.263,1.03c0.103,0.089 0.2,0.186 0.291,0.29c0.103,0.09 0.2,0.187 0.29,0.291c0.103,0.09 0.201,0.187 0.291,0.291c0.103,0.089 0.2,0.186 0.291,0.29c0.103,0.09 0.2,0.187 0.29,0.291c0.103,0.09 0.2,0.187 0.291,0.29c0.103,0.09 0.2,0.187 0.291,0.291c0.103,0.09 0.2,0.187 0.29,0.291c0.103,0.09 0.2,0.187 0.291,0.29c0.103,0.09 0.2,0.187 0.291,0.291c0.273,0.238 0.504,0.527 0.68,0.858c0.52,0.982 0.454,2.171 -0.17,3.09l-8.168,12.019c0.756,0.207 1.49,0.493 2.199,0.861c0.011,0.006 0.021,0.011 0.031,0.016c0.97,0.497 1.821,1.139 2.556,1.904c0.098,0.095 0.195,0.192 0.29,0.291c0.099,0.095 0.196,0.192 0.291,0.291c0.099,0.094 0.196,0.191 0.291,0.29c0.098,0.095 0.195,0.192 0.29,0.291c0.099,0.095 0.196,0.192 0.291,0.291c0.099,0.094 0.196,0.191 0.29,0.29c0.099,0.095 0.196,0.192 0.291,0.291c0.099,0.095 0.196,0.192 0.291,0.291c0.099,0.094 0.196,0.191 0.29,0.29c0.099,0.095 0.196,0.192 0.291,0.291c0.725,0.695 1.344,1.503 1.861,2.407l0.009,0.016c1.072,1.864 1.5,4.06 1.5,6.399c-0,2.323 -0.435,4.502 -1.5,6.371c-0.003,0.005 -0.006,0.011 -0.009,0.016c-0.997,1.728 -2.371,3.105 -4.125,4.021c-0.01,0.005 -0.021,0.011 -0.031,0.016c-1.648,0.836 -3.431,1.243 -5.3,1.243c-1.857,-0 -3.63,-0.409 -5.273,-1.243c-0.016,-0.008 -0.032,-0.017 -0.048,-0.025c-0.932,-0.494 -1.753,-1.122 -2.465,-1.863c-0.099,-0.095 -0.196,-0.192 -0.291,-0.291c-0.098,-0.095 -0.195,-0.192 -0.29,-0.291c-0.099,-0.094 -0.196,-0.191 -0.291,-0.29c-0.099,-0.095 -0.196,-0.192 -0.291,-0.291c-0.098,-0.095 -0.195,-0.192 -0.29,-0.29c-0.099,-0.095 -0.196,-0.192 -0.291,-0.291c-0.099,-0.095 -0.196,-0.192 -0.291,-0.291c-0.098,-0.095 -0.195,-0.192 -0.29,-0.29c-0.099,-0.095 -0.196,-0.192 -0.291,-0.291c-0.099,-0.095 -0.196,-0.192 -0.291,-0.291c-0.638,-0.613 -1.196,-1.313 -1.672,-2.088l-4.189,6.164c-0.558,0.822 -1.487,1.314 -2.481,1.314l-8.667,-0c-0.878,-0 -1.699,-0.384 -2.262,-1.03c-0.103,-0.089 -0.2,-0.186 -0.291,-0.29c-0.103,-0.09 -0.2,-0.187 -0.29,-0.291c-0.103,-0.09 -0.2,-0.187 -0.291,-0.29c-0.103,-0.09 -0.2,-0.187 -0.291,-0.291c-0.103,-0.09 -0.2,-0.187 -0.29,-0.291c-0.103,-0.09 -0.2,-0.187 -0.291,-0.29c-0.103,-0.09 -0.2,-0.187 -0.291,-0.291c-0.103,-0.09 -0.2,-0.187 -0.29,-0.291c-0.103,-0.09 -0.2,-0.187 -0.291,-0.29c-0.103,-0.09 -0.2,-0.187 -0.291,-0.291c-0.273,-0.238 -0.505,-0.528 -0.681,-0.86c-0.519,-0.983 -0.452,-2.173 0.174,-3.092l8.343,-12.236c-0.77,-0.204 -1.519,-0.489 -2.243,-0.856c-0.016,-0.008 -0.032,-0.017 -0.048,-0.025c-0.924,-0.49 -1.737,-1.112 -2.442,-1.847c-0.099,-0.095 -0.196,-0.192 -0.291,-0.291c-0.099,-0.094 -0.196,-0.191 -0.29,-0.29c-0.099,-0.095 -0.196,-0.192 -0.291,-0.291c-0.099,-0.095 -0.196,-0.192 -0.291,-0.291c-0.099,-0.094 -0.196,-0.191 -0.29,-0.29c-0.099,-0.095 -0.196,-0.192 -0.291,-0.291c-0.099,-0.095 -0.196,-0.192 -0.291,-0.291c-0.099,-0.094 -0.195,-0.191 -0.29,-0.29c-0.099,-0.095 -0.196,-0.192 -0.291,-0.291c-0.099,-0.095 -0.196,-0.192 -0.291,-0.291c-0.274,-0.263 -0.533,-0.542 -0.777,-0.836c-0.55,0.676 -1.389,1.107 -2.327,1.107l-1.592,-0c0.067,0.066 0.134,0.133 0.2,0.201c0.098,0.095 0.195,0.192 0.29,0.291c0.099,0.095 0.196,0.192 0.291,0.29c0.99,0.96 1.827,2.07 2.505,3.323c1.218,2.253 1.792,4.761 1.792,7.448c-0,2.872 -0.738,5.522 -2.282,7.841l-0.004,0.006c-1.501,2.261 -3.579,3.979 -6.125,5.177l-0.009,0.005c-2.56,1.211 -5.441,1.77 -8.566,1.77c-3.666,-0 -7.031,-0.909 -10.001,-2.787l-0.013,-0.008c-1.214,-0.777 -2.316,-1.674 -3.306,-2.687c-0.098,-0.095 -0.195,-0.192 -0.291,-0.29c-0.098,-0.096 -0.195,-0.193 -0.291,-0.291c-0.098,-0.096 -0.195,-0.193 -0.29,-0.291c-0.098,-0.095 -0.195,-0.192 -0.291,-0.29c-0.098,-0.096 -0.195,-0.193 -0.291,-0.291c-0.098,-0.096 -0.195,-0.193 -0.29,-0.291c-0.098,-0.095 -0.195,-0.192 -0.291,-0.29c-0.098,-0.096 -0.195,-0.193 -0.291,-0.291c-0.098,-0.096 -0.194,-0.193 -0.29,-0.291c-0.098,-0.095 -0.195,-0.192 -0.291,-0.29c-0.735,-0.719 -1.411,-1.5 -2.029,-2.339c-0.404,1.493 -1.093,2.893 -2.061,4.181l-0.003,0.004c-1.645,2.191 -3.961,3.79 -6.741,4.898c-2.844,1.133 -6.16,1.644 -9.858,1.644c-3.63,-0 -6.901,-0.503 -9.733,-1.61c-2.331,-0.912 -4.345,-2.153 -5.928,-3.785c-0.098,-0.095 -0.195,-0.192 -0.29,-0.29c-0.099,-0.096 -0.196,-0.193 -0.291,-0.291c-0.099,-0.096 -0.195,-0.192 -0.291,-0.291c-0.098,-0.095 -0.195,-0.192 -0.29,-0.29c-0.099,-0.096 -0.196,-0.193 -0.291,-0.291c-0.098,-0.096 -0.195,-0.192 -0.291,-0.291c-0.098,-0.095 -0.195,-0.192 -0.29,-0.29c-0.099,-0.096 -0.196,-0.193 -0.291,-0.291c-0.098,-0.096 -0.195,-0.192 -0.291,-0.291c-0.098,-0.095 -0.195,-0.192 -0.29,-0.29Zm5.837,-7.037c-0.211,0.437 -0.335,0.976 -0.335,1.673c-0,0.868 0.172,1.668 0.536,2.428c0.527,0.3 1.119,0.582 1.784,0.841c1.165,0.456 2.519,0.794 4.079,0.993c-0.503,-0.277 -0.978,-0.596 -1.417,-0.964c-0.012,-0.01 -0.024,-0.02 -0.036,-0.03c-0.175,-0.152 -0.342,-0.312 -0.501,-0.481c-0.1,-0.094 -0.197,-0.191 -0.291,-0.291c-0.1,-0.093 -0.197,-0.19 -0.291,-0.29c-0.099,-0.094 -0.196,-0.191 -0.29,-0.291c-0.1,-0.094 -0.197,-0.191 -0.291,-0.291c-0.1,-0.093 -0.197,-0.19 -0.29,-0.29c-0.1,-0.094 -0.197,-0.191 -0.291,-0.291c-0.1,-0.094 -0.197,-0.191 -0.291,-0.291c-0.1,-0.093 -0.197,-0.19 -0.29,-0.29c-0.1,-0.094 -0.197,-0.191 -0.291,-0.291c-0.1,-0.094 -0.197,-0.191 -0.291,-0.29c-0.477,-0.449 -0.891,-0.969 -1.203,-1.554Zm22.457,-0.362c0.112,-0.481 0.167,-0.984 0.167,-1.514c0,-0.776 -0.09,-1.404 -0.246,-1.918c-0.534,-0.305 -1.134,-0.608 -1.806,-0.906c-0.611,0.086 -1.236,0.138 -1.874,0.157c0.047,0.047 0.094,0.095 0.139,0.143c0.1,0.094 0.197,0.191 0.291,0.291c0.099,0.094 0.196,0.191 0.291,0.291c0.099,0.093 0.196,0.19 0.29,0.29c0.1,0.094 0.197,0.191 0.291,0.291c0.099,0.094 0.196,0.191 0.291,0.291c0.099,0.093 0.196,0.19 0.29,0.29c0.1,0.094 0.197,0.191 0.291,0.291c0.099,0.094 0.196,0.191 0.291,0.291c0.099,0.093 0.196,0.19 0.29,0.29c0.013,0.014 0.026,0.028 0.039,0.041c0.383,0.406 0.714,0.868 0.965,1.381Zm13.969,-4.406c0.138,2.653 0.729,4.951 1.72,6.941l0.011,0.021c0.332,0.649 0.695,1.253 1.09,1.814c0.135,0.094 0.272,0.186 0.411,0.275l0.013,0.008c1.545,0.975 3.288,1.577 5.276,1.776c-0.234,-0.157 -0.463,-0.327 -0.685,-0.51c-0.007,-0.006 -0.014,-0.011 -0.021,-0.017c-0.234,-0.196 -0.453,-0.402 -0.657,-0.617c-0.1,-0.095 -0.197,-0.192 -0.291,-0.291c-0.1,-0.095 -0.197,-0.192 -0.291,-0.291c-0.1,-0.094 -0.197,-0.191 -0.29,-0.29c-0.1,-0.095 -0.197,-0.192 -0.291,-0.291c-0.1,-0.095 -0.197,-0.192 -0.291,-0.291c-0.1,-0.094 -0.197,-0.191 -0.29,-0.29c-0.1,-0.095 -0.197,-0.192 -0.291,-0.291c-0.1,-0.095 -0.197,-0.192 -0.291,-0.291c-0.1,-0.094 -0.197,-0.191 -0.29,-0.29c-0.1,-0.095 -0.197,-0.192 -0.291,-0.291c-1.307,-1.238 -2.066,-2.824 -2.179,-4.633c-0.033,-0.035 -0.066,-0.071 -0.098,-0.107c-0.103,-0.09 -0.2,-0.187 -0.29,-0.291c-0.104,-0.09 -0.201,-0.187 -0.291,-0.29c-0.103,-0.09 -0.2,-0.188 -0.291,-0.291c-0.103,-0.09 -0.2,-0.187 -0.29,-0.291c-0.104,-0.09 -0.201,-0.187 -0.291,-0.29c-0.198,-0.173 -0.374,-0.372 -0.521,-0.591Zm19.671,-16.309c-0.216,-0.121 -0.441,-0.236 -0.675,-0.346l-0.009,-0.005c-1.17,-0.553 -2.528,-0.923 -4.109,-1.07c0.146,0.119 0.288,0.247 0.426,0.383c0.01,0.009 0.019,0.019 0.029,0.028c0.057,0.056 0.112,0.113 0.167,0.17c0.032,0.031 0.063,0.061 0.095,0.093c0.01,0.009 0.019,0.018 0.029,0.028c0.056,0.056 0.112,0.113 0.166,0.17c0.032,0.03 0.064,0.061 0.096,0.092c0.009,0.01 0.019,0.019 0.028,0.028c0.057,0.056 0.113,0.113 0.167,0.171c0.032,0.03 0.064,0.061 0.095,0.092c0.01,0.009 0.019,0.019 0.029,0.028c0.057,0.056 0.112,0.113 0.167,0.17c0.032,0.031 0.063,0.061 0.095,0.093c0.01,0.009 0.019,0.018 0.028,0.028c0.057,0.056 0.113,0.113 0.167,0.17c0.032,0.03 0.064,0.061 0.096,0.092c0.009,0.01 0.019,0.019 0.028,0.028c0.057,0.056 0.113,0.113 0.167,0.171c0.032,0.03 0.064,0.061 0.095,0.092c0.01,0.009 0.019,0.019 0.029,0.028c0.044,0.043 0.087,0.087 0.13,0.131l2.849,0c-0.111,-0.302 -0.239,-0.59 -0.385,-0.865Zm1.331,18.876c0.006,-0.15 0.009,-0.303 0.009,-0.458c0,-1.789 -0.37,-3.278 -1.042,-4.542c-1.053,-0.554 -2.327,-0.892 -3.887,-0.944c0.083,0.08 0.164,0.162 0.243,0.245c0.1,0.094 0.197,0.191 0.29,0.29c0.101,0.095 0.198,0.192 0.291,0.291c0.1,0.095 0.197,0.192 0.29,0.291c0.101,0.094 0.198,0.191 0.291,0.29c0.101,0.095 0.198,0.192 0.291,0.291c0.1,0.095 0.197,0.192 0.29,0.291c0.101,0.094 0.198,0.191 0.291,0.29c0.101,0.095 0.197,0.192 0.291,0.291c0.1,0.095 0.197,0.192 0.29,0.291c0.101,0.094 0.198,0.191 0.291,0.29c0.842,0.794 1.43,1.742 1.771,2.793Zm-56.452,-14.052c-0.028,0.273 -0.042,0.56 -0.042,0.862c-0,1.091 0.22,1.97 0.611,2.705c0.367,0.233 0.725,0.447 1.076,0.642c0.241,-0.009 0.484,-0.014 0.728,-0.014c0.455,0 0.902,0.017 1.342,0.053c-0.012,-0.013 -0.025,-0.025 -0.037,-0.037c-0.016,-0.017 -0.033,-0.033 -0.049,-0.05c-0.025,-0.027 -0.05,-0.054 -0.075,-0.081c-0.057,-0.052 -0.112,-0.106 -0.167,-0.16c-0.016,-0.016 -0.032,-0.033 -0.048,-0.05c-0.026,-0.027 -0.051,-0.053 -0.076,-0.08c-0.056,-0.053 -0.112,-0.106 -0.166,-0.161c-0.017,-0.016 -0.033,-0.033 -0.049,-0.05c-0.026,-0.026 -0.051,-0.053 -0.075,-0.08c-0.057,-0.053 -0.113,-0.106 -0.167,-0.16c-0.016,-0.017 -0.033,-0.033 -0.049,-0.05c-0.025,-0.027 -0.05,-0.054 -0.075,-0.081c-0.057,-0.052 -0.112,-0.106 -0.167,-0.16c-0.016,-0.016 -0.032,-0.033 -0.048,-0.05c-0.026,-0.027 -0.051,-0.053 -0.076,-0.08c-0.056,-0.053 -0.112,-0.106 -0.166,-0.161c-0.017,-0.016 -0.033,-0.033 -0.049,-0.05c-0.025,-0.026 -0.051,-0.053 -0.075,-0.08c-0.057,-0.053 -0.113,-0.106 -0.167,-0.16c-0.016,-0.017 -0.033,-0.033 -0.049,-0.05c-0.025,-0.027 -0.05,-0.054 -0.075,-0.081c-0.057,-0.052 -0.112,-0.106 -0.167,-0.16c-0.016,-0.016 -0.032,-0.033 -0.048,-0.05c-0.026,-0.027 -0.051,-0.053 -0.076,-0.08c-0.056,-0.053 -0.112,-0.106 -0.166,-0.161c-0.017,-0.016 -0.033,-0.033 -0.049,-0.05c-0.025,-0.026 -0.051,-0.053 -0.075,-0.08c-0.057,-0.052 -0.113,-0.106 -0.167,-0.16c-0.016,-0.017 -0.033,-0.033 -0.049,-0.05c-0.441,-0.462 -0.779,-0.983 -1.013,-1.545Zm19.906,-4.272c-0.542,-0.322 -1.143,-0.616 -1.807,-0.88c-0.009,-0.003 -0.018,-0.007 -0.027,-0.011c-0.981,-0.4 -2.032,-0.701 -3.156,-0.895c0.344,0.239 0.671,0.51 0.973,0.818c0.012,0.012 0.024,0.025 0.037,0.038c0.025,0.025 0.05,0.052 0.075,0.078c0.06,0.057 0.12,0.115 0.178,0.175c0.013,0.012 0.025,0.025 0.037,0.037c0.026,0.026 0.051,0.052 0.076,0.078c0.06,0.057 0.12,0.116 0.178,0.175c0.012,0.013 0.025,0.025 0.037,0.038c0.025,0.026 0.051,0.052 0.075,0.078c0.061,0.057 0.12,0.115 0.179,0.175c0.012,0.012 0.024,0.025 0.037,0.037c0.025,0.026 0.05,0.053 0.075,0.079c0.06,0.057 0.12,0.115 0.178,0.175c0.013,0.012 0.025,0.025 0.037,0.037c0.026,0.026 0.051,0.052 0.076,0.078c0.06,0.057 0.12,0.116 0.178,0.175c0.012,0.013 0.025,0.025 0.037,0.038c0.025,0.026 0.051,0.052 0.075,0.078c0.061,0.057 0.12,0.115 0.179,0.175c0.012,0.012 0.024,0.025 0.037,0.037c0.025,0.026 0.05,0.053 0.075,0.079c0.06,0.057 0.12,0.115 0.178,0.175c0.013,0.012 0.025,0.025 0.037,0.037c0.026,0.026 0.051,0.052 0.076,0.078c0.06,0.057 0.12,0.116 0.178,0.175c0.012,0.013 0.025,0.025 0.037,0.038c0.025,0.026 0.051,0.052 0.075,0.078c0.061,0.057 0.12,0.115 0.179,0.175c0.012,0.012 0.024,0.025 0.037,0.037c0.025,0.026 0.05,0.052 0.075,0.079c0.06,0.057 0.12,0.115 0.178,0.175c0.013,0.012 0.025,0.025 0.037,0.037c0.026,0.026 0.051,0.052 0.076,0.078c0.06,0.057 0.119,0.116 0.178,0.175c0.012,0.013 0.025,0.025 0.037,0.038c0.449,0.456 0.801,0.963 1.061,1.505c0.192,-0.427 0.276,-0.852 0.276,-1.296c0,-0.913 -0.181,-1.727 -0.554,-2.476Z"/><path d="M21.352,46.855c-3.366,0 -6.246,-0.468 -8.64,-1.404c-2.394,-0.936 -4.23,-2.205 -5.508,-3.807c-1.278,-1.62 -1.917,-3.438 -1.917,-5.454c0,-1.602 0.441,-2.961 1.323,-4.077c0.882,-1.116 2.07,-1.971 3.564,-2.565c1.494,-0.594 3.159,-0.891 4.995,-0.891c1.008,0 1.917,0.099 2.727,0.297c0.828,0.198 1.827,0.45 2.997,0.756l0,1.89c-1.242,0 -2.376,0.162 -3.402,0.486c-1.008,0.306 -1.809,0.729 -2.403,1.269c-0.594,0.54 -0.891,1.161 -0.891,1.863c0,0.738 0.333,1.395 0.999,1.971c0.666,0.558 1.539,0.999 2.619,1.323c1.098,0.324 2.277,0.486 3.537,0.486c2.682,0 4.554,-0.261 5.616,-0.783c1.08,-0.522 1.62,-1.143 1.62,-1.863c0,-0.558 -0.225,-1.071 -0.675,-1.539c-0.45,-0.486 -1.089,-0.909 -1.917,-1.269l-10.665,-4.131c-1.278,-0.504 -2.601,-1.206 -3.969,-2.106c-1.35,-0.9 -2.493,-2.025 -3.429,-3.375c-0.918,-1.368 -1.377,-2.97 -1.377,-4.806c0,-2.16 0.567,-3.996 1.701,-5.508c1.152,-1.512 2.826,-2.664 5.022,-3.456c2.214,-0.81 4.905,-1.215 8.073,-1.215c2.718,0 5.202,0.459 7.452,1.377c2.268,0.9 4.077,2.16 5.427,3.78c1.35,1.602 2.025,3.456 2.025,5.562c0,1.296 -0.387,2.502 -1.161,3.618c-0.774,1.098 -1.872,1.989 -3.294,2.673c-1.422,0.684 -3.105,1.026 -5.049,1.026c-0.882,0 -1.683,-0.081 -2.403,-0.243c-0.72,-0.162 -1.575,-0.405 -2.565,-0.729l0,-2.349c0.9,0 1.773,-0.135 2.619,-0.405c0.864,-0.27 1.566,-0.657 2.106,-1.161c0.558,-0.504 0.837,-1.098 0.837,-1.782c0,-0.792 -0.261,-1.449 -0.783,-1.971c-0.504,-0.522 -1.206,-0.918 -2.106,-1.188c-0.9,-0.27 -1.935,-0.405 -3.105,-0.405c-1.08,0 -2.07,0.117 -2.97,0.351c-0.9,0.216 -1.62,0.531 -2.16,0.945c-0.54,0.396 -0.81,0.882 -0.81,1.458c0,0.558 0.189,1.035 0.567,1.431c0.396,0.396 1.017,0.783 1.863,1.161l11.313,4.455c2.664,1.044 4.707,2.241 6.129,3.591c1.44,1.332 2.16,3.231 2.16,5.697c0,2.106 -0.63,3.996 -1.89,5.67c-1.242,1.656 -3.06,2.961 -5.454,3.915c-2.394,0.954 -5.31,1.431 -8.748,1.431Zm36.919,0c-3.15,0 -5.949,-0.774 -8.397,-2.322c-2.448,-1.566 -4.374,-3.726 -5.778,-6.48c-1.386,-2.772 -2.079,-5.949 -2.079,-9.531c0,-4.248 0.693,-7.821 2.079,-10.719c1.404,-2.916 3.33,-5.121 5.778,-6.615c2.466,-1.494 5.283,-2.241 8.451,-2.241c2.646,0 4.977,0.477 6.993,1.431c2.034,0.954 3.618,2.295 4.752,4.023c1.152,1.728 1.719,3.762 1.701,6.102l-9.126,0c-0.108,-1.17 -0.504,-2.088 -1.188,-2.754c-0.666,-0.666 -1.602,-0.999 -2.808,-0.999c-2.448,0 -4.41,1.098 -5.886,3.294c-1.458,2.196 -2.187,5.166 -2.187,8.91c0,0.396 0.009,0.792 0.027,1.188c0.036,0.378 0.081,0.756 0.135,1.134c0.432,-2.034 1.152,-3.618 2.16,-4.752c1.008,-1.152 2.187,-1.962 3.537,-2.43c1.368,-0.486 2.79,-0.729 4.266,-0.729c2.34,0 4.374,0.504 6.102,1.512c1.728,1.008 3.069,2.394 4.023,4.158c0.954,1.764 1.431,3.771 1.431,6.021c0,2.34 -0.594,4.401 -1.782,6.183c-1.17,1.764 -2.808,3.141 -4.914,4.131c-2.088,0.99 -4.518,1.485 -7.29,1.485Zm0,-7.857c1.332,0 2.52,-0.414 3.564,-1.242c1.044,-0.828 1.566,-1.872 1.566,-3.132c0,-1.386 -0.522,-2.466 -1.566,-3.24c-1.044,-0.792 -2.232,-1.188 -3.564,-1.188c-0.864,0 -1.674,0.18 -2.43,0.54c-0.756,0.342 -1.368,0.846 -1.836,1.512c-0.468,0.648 -0.702,1.44 -0.702,2.376c0,1.26 0.495,2.304 1.485,3.132c1.008,0.828 2.169,1.242 3.483,1.242Zm21.578,6.993l24.705,-36.234l8.585,0l-24.623,36.234l-8.667,0Zm27.701,0.648c-1.404,0 -2.708,-0.306 -3.914,-0.918c-1.188,-0.63 -2.142,-1.584 -2.862,-2.862c-0.72,-1.296 -1.08,-2.925 -1.08,-4.887c-0,-1.998 0.36,-3.636 1.08,-4.914c0.72,-1.296 1.674,-2.25 2.862,-2.862c1.206,-0.63 2.51,-0.945 3.914,-0.945c1.422,0 2.736,0.315 3.942,0.945c1.206,0.612 2.178,1.566 2.916,2.862c0.738,1.278 1.107,2.916 1.107,4.914c0,1.962 -0.369,3.591 -1.107,4.887c-0.738,1.278 -1.71,2.232 -2.916,2.862c-1.206,0.612 -2.52,0.918 -3.942,0.918Zm0,-5.346c0.504,0 0.909,-0.225 1.215,-0.675c0.306,-0.45 0.459,-1.332 0.459,-2.646c0,-1.314 -0.153,-2.205 -0.459,-2.673c-0.306,-0.486 -0.711,-0.729 -1.215,-0.729c-0.504,0 -0.909,0.243 -1.215,0.729c-0.288,0.468 -0.432,1.359 -0.432,2.673c0,1.314 0.144,2.196 0.432,2.646c0.306,0.45 0.711,0.675 1.215,0.675Zm-22.004,-15.039c-1.404,0 -2.709,-0.306 -3.915,-0.918c-1.188,-0.63 -2.142,-1.593 -2.862,-2.889c-0.72,-1.296 -1.08,-2.934 -1.08,-4.914c-0,-1.944 0.36,-3.546 1.08,-4.806c0.72,-1.278 1.674,-2.223 2.862,-2.835c1.206,-0.63 2.511,-0.945 3.915,-0.945c1.458,0 2.79,0.315 3.996,0.945c1.206,0.612 2.169,1.557 2.889,2.835c0.72,1.26 1.08,2.862 1.08,4.806c-0,1.98 -0.36,3.618 -1.08,4.914c-0.72,1.296 -1.683,2.259 -2.889,2.889c-1.206,0.612 -2.538,0.918 -3.996,0.918Zm-0,-5.292c0.522,0 0.936,-0.234 1.242,-0.702c0.324,-0.468 0.486,-1.377 0.486,-2.727c-0,-1.278 -0.162,-2.133 -0.486,-2.565c-0.306,-0.45 -0.72,-0.675 -1.242,-0.675c-0.504,0 -0.9,0.225 -1.188,0.675c-0.288,0.432 -0.432,1.287 -0.432,2.565c-0,1.35 0.144,2.259 0.432,2.727c0.288,0.468 0.684,0.702 1.188,0.702Z" style="fill:#5cf1a4;fill-rule:nonzero;"/></g></svg>