<?xml version="1.0" encoding="UTF-8" standalone="no"?><!DOCTYPE svg PUBLIC "-//W3C//DTD SVG 1.1//EN" "http://www.w3.org/Graphics/SVG/1.1/DTD/svg11.dtd"><svg width="100%" height="100%" viewBox="0 0 534 155" version="1.1" xmlns="http://www.w3.org/2000/svg" xmlns:xlink="http://www.w3.org/1999/xlink" xml:space="preserve" xmlns:serif="http://www.serif.com/" style="fill-rule:evenodd;clip-rule:evenodd;"><g><path d="M15.124,63.885c-2.891,-2.59 -4.707,-6.354 -4.707,-10.549c-0,-7.829 6.327,-14.157 14.156,-14.157l35.5,0c0.472,0 0.938,0.023 1.397,0.068c-0.33,-0.304 -0.645,-0.624 -0.944,-0.959c-0.387,-0.346 -0.754,-0.713 -1.101,-1.1c-0.386,-0.346 -0.753,-0.714 -1.1,-1.1c-0.386,-0.347 -0.754,-0.714 -1.1,-1.1c-0.387,-0.347 -0.754,-0.714 -1.1,-1.101c-0.387,-0.346 -0.754,-0.713 -1.101,-1.1c-0.386,-0.346 -0.753,-0.714 -1.1,-1.1c-0.386,-0.346 -0.754,-0.714 -1.1,-1.1c-0.387,-0.347 -0.754,-0.714 -1.1,-1.101c-0.387,-0.346 -0.754,-0.713 -1.1,-1.1c-2.891,-2.59 -4.708,-6.354 -4.708,-10.549c-0,-7.829 6.327,-14.157 14.157,-14.157c4.195,0 7.959,1.817 10.549,4.708c0.387,0.346 0.754,0.713 1.1,1.1c0.387,0.346 0.754,0.713 1.101,1.1c0.386,0.346 0.753,0.714 1.1,1.1c0.386,0.347 0.754,0.714 1.1,1.1c0.386,0.347 0.754,0.714 1.1,1.101c0.387,0.346 0.754,0.713 1.1,1.1c0.387,0.346 0.754,0.714 1.101,1.1c0.386,0.347 0.754,0.714 1.1,1.1c0.386,0.347 0.754,0.714 1.1,1.101c0.31,0.277 0.607,0.568 0.891,0.871l0,-1.324c0,-7.829 6.328,-14.157 14.157,-14.157c4.195,0 7.959,1.817 10.549,4.708c0.387,0.346 0.754,0.713 1.1,1.1c0.387,0.346 0.754,0.713 1.101,1.1c0.386,0.346 0.754,0.714 1.1,1.1c0.386,0.347 0.754,0.714 1.1,1.1c0.387,0.347 0.754,0.714 1.1,1.101c0.387,0.346 0.754,0.713 1.101,1.1c0.386,0.346 0.753,0.714 1.1,1.1c0.386,0.347 0.754,0.714 1.1,1.1c0.387,0.347 0.754,0.714 1.1,1.101c0.387,0.346 0.754,0.713 1.101,1.1c2.89,2.59 4.707,6.354 4.707,10.549l0,12.573c2.464,-2.08 5.65,-3.333 9.133,-3.333c4.195,0 7.959,1.817 10.549,4.708c0.387,0.346 0.754,0.714 1.101,1.1c0.386,0.346 0.754,0.714 1.1,1.1c0.386,0.347 0.754,0.714 1.1,1.101c0.387,0.346 0.754,0.713 1.1,1.1c0.387,0.346 0.754,0.713 1.101,1.1c0.386,0.346 0.753,0.714 1.1,1.1c0.386,0.347 0.754,0.714 1.1,1.1c0.387,0.347 0.754,0.714 1.1,1.101c0.387,0.346 0.754,0.713 1.1,1.1c0.387,0.346 0.754,0.714 1.101,1.1c2.891,2.591 4.707,6.355 4.707,10.55c0,7.829 -6.327,14.156 -14.157,14.156l-1.217,0c0.303,0.284 0.595,0.582 0.872,0.892c0.387,0.346 0.754,0.713 1.1,1.1c0.387,0.346 0.754,0.714 1.101,1.1c0.386,0.347 0.753,0.714 1.1,1.1c0.386,0.347 0.754,0.714 1.1,1.101c0.387,0.346 0.754,0.713 1.1,1.1c0.387,0.346 0.754,0.714 1.101,1.1c0.386,0.346 0.753,0.714 1.1,1.1c0.386,0.347 0.754,0.714 1.1,1.101c0.387,0.346 0.754,0.713 1.1,1.1c2.891,2.59 4.708,6.354 4.708,10.549c-0,7.829 -6.328,14.157 -14.157,14.157l-35.499,-0c-0.429,-0 -0.852,-0.019 -1.271,-0.056c0.284,0.268 0.557,0.548 0.817,0.839c0.387,0.347 0.754,0.714 1.101,1.101c0.386,0.346 0.754,0.713 1.1,1.1c0.386,0.346 0.754,0.714 1.1,1.1c0.387,0.346 0.754,0.714 1.1,1.1c0.387,0.347 0.754,0.714 1.101,1.101c0.386,0.346 0.753,0.713 1.1,1.1c0.386,0.346 0.754,0.713 1.1,1.1c0.387,0.346 0.754,0.714 1.1,1.1c0.387,0.347 0.754,0.714 1.101,1.1c2.89,2.591 4.707,6.355 4.707,10.55c0,7.829 -6.327,14.157 -14.156,14.157c-4.196,-0 -7.96,-1.817 -10.55,-4.708c-0.387,-0.346 -0.754,-0.714 -1.1,-1.1c-0.387,-0.347 -0.754,-0.714 -1.1,-1.1c-0.387,-0.347 -0.754,-0.714 -1.101,-1.101c-0.386,-0.346 -0.754,-0.713 -1.1,-1.1c-0.386,-0.346 -0.754,-0.714 -1.1,-1.1c-0.387,-0.347 -0.754,-0.714 -1.1,-1.1c-0.387,-0.347 -0.754,-0.714 -1.101,-1.101c-0.386,-0.346 -0.754,-0.713 -1.1,-1.1c-0.386,-0.346 -0.754,-0.714 -1.1,-1.1c-0.31,-0.277 -0.607,-0.568 -0.891,-0.872l0,1.325c0,7.829 -6.328,14.157 -14.157,14.157c-4.195,-0 -7.959,-1.817 -10.549,-4.708c-0.387,-0.346 -0.754,-0.714 -1.1,-1.1c-0.387,-0.347 -0.754,-0.714 -1.101,-1.1c-0.386,-0.347 -0.754,-0.714 -1.1,-1.101c-0.386,-0.346 -0.754,-0.713 -1.1,-1.1c-0.387,-0.346 -0.754,-0.714 -1.1,-1.1c-0.387,-0.347 -0.754,-0.714 -1.101,-1.1c-0.386,-0.347 -0.753,-0.714 -1.1,-1.101c-0.386,-0.346 -0.754,-0.713 -1.1,-1.1c-0.387,-0.346 -0.754,-0.714 -1.1,-1.1c-0.387,-0.346 -0.754,-0.714 -1.101,-1.1c-2.89,-2.591 -4.707,-6.355 -4.707,-10.549l-0,-12.465c-2.464,2.079 -5.65,3.332 -9.133,3.332c-4.195,-0 -7.959,-1.817 -10.549,-4.708c-0.387,-0.346 -0.754,-0.714 -1.1,-1.1c-0.387,-0.346 -0.754,-0.714 -1.1,-1.1c-0.387,-0.347 -0.754,-0.714 -1.101,-1.101c-0.386,-0.346 -0.754,-0.713 -1.1,-1.1c-0.386,-0.346 -0.754,-0.713 -1.1,-1.1c-0.387,-0.346 -0.754,-0.714 -1.1,-1.1c-0.387,-0.347 -0.754,-0.714 -1.101,-1.1c-0.386,-0.347 -0.753,-0.714 -1.1,-1.101c-0.386,-0.346 -0.754,-0.713 -1.1,-1.1c-0.387,-0.346 -0.754,-0.714 -1.1,-1.1c-2.891,-2.591 -4.708,-6.355 -4.708,-10.55c-0,-7.829 6.328,-14.156 14.157,-14.156l1.218,-0c-0.304,-0.284 -0.595,-0.582 -0.873,-0.892c-0.386,-0.346 -0.754,-0.713 -1.1,-1.1c-0.386,-0.346 -0.754,-0.714 -1.1,-1.1c-0.387,-0.346 -0.754,-0.714 -1.1,-1.1c-0.387,-0.347 -0.754,-0.714 -1.101,-1.101c-0.386,-0.346 -0.753,-0.713 -1.1,-1.1c-0.386,-0.346 -0.754,-0.714 -1.1,-1.1c-0.387,-0.346 -0.754,-0.714 -1.1,-1.1c-0.387,-0.347 -0.754,-0.714 -1.101,-1.101c-0.386,-0.346 -0.753,-0.713 -1.1,-1.1Zm66.291,-19.789l-9.24,0c-0.471,0 -0.938,-0.023 -1.397,-0.068c0.329,0.305 0.645,0.625 0.944,0.959c0.387,0.346 0.754,0.714 1.1,1.1c0.387,0.347 0.754,0.714 1.101,1.1c0.386,0.347 0.753,0.714 1.1,1.101c0.386,0.346 0.754,0.713 1.1,1.1c0.387,0.346 0.754,0.714 1.1,1.1c0.387,0.346 0.754,0.714 1.101,1.1c0.386,0.347 0.753,0.714 1.1,1.101c0.386,0.346 0.754,0.713 1.1,1.1c0.334,0.299 0.654,0.615 0.959,0.945c-0.045,-0.46 -0.068,-0.926 -0.068,-1.398l0,-9.24Zm14.61,65.191c-0.387,-0.346 -0.754,-0.714 -1.1,-1.1c-0.387,-0.347 -0.754,-0.714 -1.101,-1.101c-0.386,-0.346 -0.753,-0.713 -1.1,-1.1c-0.386,-0.346 -0.754,-0.713 -1.1,-1.1c-0.387,-0.346 -0.754,-0.714 -1.1,-1.1c-0.387,-0.347 -0.754,-0.714 -1.1,-1.1c-0.387,-0.347 -0.754,-0.714 -1.101,-1.101c-0.386,-0.346 -0.754,-0.713 -1.1,-1.1c-0.334,-0.3 -0.654,-0.615 -0.959,-0.945c0.045,0.46 0.068,0.926 0.068,1.398l0,9.133l9.24,-0c0.428,-0 0.852,0.019 1.27,0.056c-0.284,-0.269 -0.556,-0.549 -0.817,-0.84Zm-8.802,-44.302c-0.334,-0.299 -0.654,-0.614 -0.959,-0.944c0.045,0.46 0.068,0.926 0.068,1.398c0,7.829 -6.328,14.156 -14.157,14.156l-1.325,0c0.304,0.284 0.595,0.582 0.872,0.892c0.387,0.346 0.754,0.713 1.101,1.1c0.386,0.346 0.753,0.713 1.1,1.1c0.386,0.346 0.754,0.714 1.1,1.1c0.387,0.347 0.754,0.714 1.1,1.1c0.387,0.347 0.754,0.714 1.101,1.101c0.386,0.346 0.753,0.713 1.1,1.1c0.386,0.346 0.754,0.714 1.1,1.1c0.386,0.347 0.754,0.714 1.1,1.1c0.335,0.3 0.655,0.615 0.959,0.945c-0.045,-0.46 -0.068,-0.926 -0.068,-1.398c0,-7.829 6.328,-14.156 14.157,-14.156l1.325,-0c-0.304,-0.284 -0.595,-0.582 -0.872,-0.892c-0.387,-0.346 -0.754,-0.713 -1.1,-1.1c-0.387,-0.346 -0.754,-0.714 -1.101,-1.1c-0.386,-0.347 -0.754,-0.714 -1.1,-1.1c-0.386,-0.347 -0.754,-0.714 -1.1,-1.101c-0.387,-0.346 -0.754,-0.713 -1.1,-1.1c-0.387,-0.346 -0.754,-0.714 -1.101,-1.1c-0.386,-0.346 -0.754,-0.714 -1.1,-1.1c-0.386,-0.347 -0.754,-0.714 -1.1,-1.101Zm33.564,5.808c-0.582,1.427 -1.39,2.737 -2.38,3.886l6.102,-0l-0,-0.585l-1.1,0l-0,-1.1l-1.1,-0l-0,-1.1l-1.101,-0l0,-1.101l-0.421,0Zm-73.826,12.688c0.581,-1.427 1.389,-2.737 2.379,-3.886l-6.101,0l-0,0.585l1.1,-0l-0,1.1l1.1,0l-0,1.1l1.1,0l0,1.101l0.422,-0Zm138.459,10.993c-6.129,-5.743 -7.139,-12.63 -7.139,-17.109l-0,-0.649c-0,-3.033 1.684,-5.671 4.168,-7.032c-2.457,-3.877 -3.303,-8.165 -3.303,-12.149l-0,-0.649c-0,-3.376 0.642,-6.953 2.48,-10.347c1.856,-3.427 4.669,-6.18 8.25,-8.267c6.842,-3.985 16.746,-5.695 29.875,-5.695l7.932,0c14.378,0 24.752,2.011 31.745,6.288c1.334,0.816 2.549,1.718 3.64,2.701l-0,-0.039c-0,-4.425 3.587,-8.012 8.012,-8.012l23.291,-0c2.493,-0 4.719,1.138 6.189,2.923c0.401,0.33 0.77,0.699 1.1,1.1c0.401,0.331 0.77,0.699 1.1,1.101c0.402,0.33 0.77,0.698 1.101,1.1c0.401,0.33 0.77,0.699 1.1,1.1c0.401,0.33 0.77,0.699 1.1,1.1c0.401,0.331 0.77,0.699 1.1,1.1c0.402,0.331 0.77,0.699 1.101,1.101c0.401,0.33 0.769,0.699 1.1,1.1c0.401,0.33 0.77,0.699 1.1,1.1c0.401,0.33 0.77,0.699 1.1,1.1c0.483,0.398 0.919,0.851 1.297,1.349c4.501,-0.967 9.883,-1.429 16.255,-1.429l4.11,-0c13.466,-0 22.501,1.888 28.28,5.825c1.261,0.859 2.353,1.806 3.284,2.824c0.389,0.357 0.756,0.724 1.1,1.1c0.389,0.357 0.756,0.724 1.1,1.101c0.079,0.072 0.157,0.144 0.233,0.217c0.486,-0.589 1.015,-1.17 1.592,-1.74c6.214,-6.145 16.281,-9.4 31.169,-9.4l4.831,0c13.436,0 22.786,2.7 28.973,7.476l0,-13.236c0,-4.425 3.586,-8.012 8.012,-8.012l23.292,-0c2.491,-0 4.718,1.138 6.188,2.924c0.402,0.33 0.77,0.699 1.1,1.1c0.402,0.33 0.77,0.699 1.101,1.1c0.401,0.33 0.77,0.699 1.1,1.1c0.401,0.331 0.77,0.699 1.1,1.1c0.401,0.331 0.77,0.699 1.1,1.101c0.402,0.33 0.77,0.699 1.101,1.1c0.401,0.33 0.77,0.699 1.1,1.1c0.401,0.331 0.77,0.699 1.1,1.1c0.401,0.331 0.77,0.699 1.1,1.101c0.402,0.33 0.77,0.699 1.101,1.1c0.343,0.282 0.662,0.593 0.954,0.928l17.188,0c2.427,0 4.688,1.098 6.189,2.924c0.399,0.329 0.768,0.697 1.1,1.1c0.4,0.329 0.769,0.697 1.1,1.101c0.4,0.328 0.769,0.696 1.101,1.1c0.399,0.328 0.768,0.696 1.1,1.1c0.399,0.328 0.768,0.697 1.1,1.1c0.4,0.329 0.768,0.697 1.1,1.1c0.4,0.329 0.769,0.697 1.1,1.101c0.4,0.328 0.769,0.696 1.101,1.1c0.399,0.328 0.768,0.696 1.1,1.1c0.4,0.329 0.768,0.697 1.1,1.1c0.872,0.717 1.597,1.622 2.11,2.674c1.342,2.752 1.002,6.028 -0.881,8.443l-9.41,12.061l12.038,17.213c1.711,2.448 1.919,5.645 0.541,8.294c-1.382,2.649 -4.122,4.31 -7.107,4.31l-25.887,0c-2.265,0 -4.407,-0.957 -5.914,-2.604c-1.466,1.6 -3.572,2.604 -5.912,2.604l-23.291,0c-2.493,0 -4.72,-1.138 -6.189,-2.923c-0.401,-0.33 -0.77,-0.699 -1.1,-1.1c-0.402,-0.33 -0.77,-0.699 -1.101,-1.1c-0.242,-0.2 -0.473,-0.414 -0.691,-0.64c-6.167,4.362 -15.229,6.845 -27.977,6.845l-4.687,-0c-12.399,-0 -21.466,-2.308 -27.748,-6.678c-1.025,3.244 -4.059,5.596 -7.642,5.596l-19.83,0c-2.856,0 -5.827,-0.662 -8.419,-2.377c-4.018,1.755 -9.411,3.098 -16.458,3.098l-0.577,0c-7.192,0 -13.33,-1.59 -17.954,-4.93c-1.354,2.506 -4.006,4.209 -7.054,4.209l-23.292,0c-2.492,0 -4.719,-1.138 -6.189,-2.923c-0.401,-0.33 -0.769,-0.699 -1.1,-1.1c-0.401,-0.331 -0.77,-0.699 -1.1,-1.101c-0.339,-0.279 -0.655,-0.586 -0.945,-0.916c-7.109,4.764 -17.832,7.05 -32.981,7.05l-8.148,-0c-16.345,-0 -27.167,-3.063 -33.954,-8.634c-0.865,-0.71 -1.643,-1.442 -2.343,-2.189c-0.387,-0.363 -0.753,-0.73 -1.1,-1.101c-0.387,-0.362 -0.753,-0.729 -1.1,-1.1c-0.387,-0.362 -0.754,-0.729 -1.101,-1.1c-0.386,-0.362 -0.753,-0.73 -1.1,-1.1c-0.387,-0.363 -0.753,-0.73 -1.1,-1.1c-0.387,-0.363 -0.753,-0.73 -1.1,-1.101c-0.387,-0.362 -0.754,-0.729 -1.101,-1.1c-0.386,-0.362 -0.753,-0.729 -1.1,-1.1c-0.387,-0.363 -0.753,-0.73 -1.1,-1.1c-0.387,-0.363 -0.753,-0.73 -1.1,-1.101Z"/><g><path d="M38.838,88.835c-0,7.829 -6.328,14.157 -14.157,14.157c-7.829,0 -14.157,-6.328 -14.157,-14.157c-0,-7.829 6.328,-14.156 14.157,-14.156l14.157,-0l-0,14.156Zm7.078,0c-0,-7.829 6.327,-14.156 14.157,-14.156c7.829,-0 14.156,6.327 14.156,14.156l0,35.393c0,7.829 -6.327,14.156 -14.156,14.156c-7.83,0 -14.157,-6.327 -14.157,-14.156l-0,-35.393Z" style="fill:#fff;fill-rule:nonzero;"/><path d="M38.838,88.835c-0,7.829 -6.328,14.157 -14.157,14.157c-7.829,0 -14.157,-6.328 -14.157,-14.157c-0,-7.829 6.328,-14.156 14.157,-14.156l14.157,-0l-0,14.156Zm7.078,0c-0,-7.829 6.327,-14.156 14.157,-14.156c7.829,-0 14.156,6.327 14.156,14.156l0,35.393c0,7.829 -6.327,14.156 -14.156,14.156c-7.83,0 -14.157,-6.327 -14.157,-14.156l-0,-35.393Z" style="fill:none;fill-rule:nonzero;stroke:#000;stroke-width:6.01px;"/></g><g><path d="M60.073,31.994c-7.83,-0 -14.157,-6.328 -14.157,-14.157c-0,-7.829 6.327,-14.157 14.157,-14.157c7.829,0 14.156,6.328 14.156,14.157l0,14.157l-14.156,-0Zm-0,7.185c7.829,0 14.156,6.328 14.156,14.157c0,7.829 -6.327,14.157 -14.156,14.157l-35.5,-0c-7.829,-0 -14.156,-6.328 -14.156,-14.157c-0,-7.829 6.327,-14.157 14.156,-14.157l35.5,0Z" style="fill:#fff;fill-rule:nonzero;"/><path d="M60.073,31.994c-7.83,-0 -14.157,-6.328 -14.157,-14.157c-0,-7.829 6.327,-14.157 14.157,-14.157c7.829,0 14.156,6.328 14.156,14.157l0,14.157l-14.156,-0Zm-0,7.185c7.829,0 14.156,6.328 14.156,14.157c0,7.829 -6.327,14.157 -14.156,14.157l-35.5,-0c-7.829,-0 -14.156,-6.328 -14.156,-14.157c-0,-7.829 6.327,-14.157 14.156,-14.157l35.5,0Z" style="fill:none;fill-rule:nonzero;stroke:#000;stroke-width:6.01px;"/></g><g><path d="M116.807,53.336c0,-7.829 6.328,-14.157 14.157,-14.157c7.829,0 14.157,6.328 14.157,14.157c-0,7.829 -6.328,14.157 -14.157,14.157l-14.157,-0l0,-14.157Zm-7.078,0c-0,7.829 -6.328,14.157 -14.157,14.157c-7.829,-0 -14.157,-6.328 -14.157,-14.157l0,-35.499c0,-7.829 6.328,-14.157 14.157,-14.157c7.829,0 14.157,6.328 14.157,14.157l-0,35.499Z" style="fill:#fff;fill-rule:nonzero;"/><path d="M116.807,53.336c0,-7.829 6.328,-14.157 14.157,-14.157c7.829,0 14.157,6.328 14.157,14.157c-0,7.829 -6.328,14.157 -14.157,14.157l-14.157,-0l0,-14.157Zm-7.078,0c-0,7.829 -6.328,14.157 -14.157,14.157c-7.829,-0 -14.157,-6.328 -14.157,-14.157l0,-35.499c0,-7.829 6.328,-14.157 14.157,-14.157c7.829,0 14.157,6.328 14.157,14.157l-0,35.499Z" style="fill:none;fill-rule:nonzero;stroke:#000;stroke-width:6.01px;"/></g><g><path d="M95.572,110.071c7.829,-0 14.157,6.327 14.157,14.157c-0,7.829 -6.328,14.156 -14.157,14.156c-7.829,0 -14.157,-6.327 -14.157,-14.156l0,-14.157l14.157,-0Zm0,-7.079c-7.829,0 -14.157,-6.328 -14.157,-14.157c0,-7.829 6.328,-14.156 14.157,-14.156l35.499,-0c7.829,-0 14.157,6.327 14.157,14.156c0,7.829 -6.328,14.157 -14.157,14.157l-35.499,0Z" style="fill:#fff;fill-rule:nonzero;"/><path d="M95.572,110.071c7.829,-0 14.157,6.327 14.157,14.157c-0,7.829 -6.328,14.156 -14.157,14.156c-7.829,0 -14.157,-6.327 -14.157,-14.156l0,-14.157l14.157,-0Zm0,-7.079c-7.829,0 -14.157,-6.328 -14.157,-14.157c0,-7.829 6.328,-14.156 14.157,-14.156l35.499,-0c7.829,-0 14.157,6.327 14.157,14.156c0,7.829 -6.328,14.157 -14.157,14.157l-35.499,0Z" style="fill:none;fill-rule:nonzero;stroke:#000;stroke-width:6.01px;"/></g><g><path d="M182.449,69.684c-2.457,-3.877 -3.303,-8.165 -3.303,-12.149l-0,-0.649c-0,-3.376 0.642,-6.953 2.48,-10.347c1.856,-3.427 4.669,-6.18 8.25,-8.267c6.842,-3.985 16.746,-5.695 29.875,-5.695l7.932,0c14.378,0 24.752,2.011 31.745,6.288c1.334,0.816 2.549,1.718 3.64,2.701l-0,-0.039c-0,-4.425 3.587,-8.012 8.012,-8.012l23.291,-0c4.425,-0 8.012,3.587 8.012,8.012l0,11.382c5.7,-3.801 14.347,-5.549 26.731,-5.549l4.11,-0c13.466,-0 22.501,1.888 28.28,5.825c2.371,1.615 4.142,3.541 5.377,5.665c0.576,-0.734 1.218,-1.457 1.932,-2.163c6.214,-6.145 16.281,-9.4 31.169,-9.4l4.831,0c13.436,0 22.786,2.7 28.973,7.476l0,-13.236c0,-4.425 3.586,-8.012 8.012,-8.012l23.292,-0c4.422,-0 8.012,3.587 8.012,8.012l-0,7.296c0.844,-0.297 1.742,-0.454 2.66,-0.454l24.661,0c3.061,0 5.857,1.745 7.199,4.497c1.342,2.752 1.001,6.029 -0.881,8.443l-9.41,12.062l12.037,17.213c1.711,2.448 1.919,5.645 0.541,8.293c-1.382,2.65 -4.122,4.311 -7.106,4.311l-25.888,-0c-2.264,-0 -4.406,-0.957 -5.914,-2.605c-1.465,1.601 -3.572,2.605 -5.911,2.605l-23.292,-0c-3.962,-0 -7.251,-2.875 -7.897,-6.652c-6.17,4.911 -15.571,7.733 -29.16,7.733l-4.687,0c-12.4,0 -21.467,-2.308 -27.749,-6.677c-1.025,3.244 -4.058,5.596 -7.641,5.596l-19.83,-0c-2.857,-0 -5.828,-0.662 -8.42,-2.377c-4.018,1.755 -9.411,3.098 -16.458,3.098l-0.577,-0c-7.191,-0 -13.33,-1.59 -17.954,-4.931c-1.354,2.507 -4.005,4.21 -7.054,4.21l-23.291,-0c-4.093,-0 -7.469,-3.069 -7.953,-7.032c-0.409,0.314 -0.836,0.622 -1.281,0.923c-7.109,4.811 -17.861,7.118 -33.081,7.118l-8.148,0c-16.346,0 -27.168,-3.062 -33.955,-8.633c-7.237,-5.941 -8.381,-13.432 -8.381,-18.199l-0,-0.649c-0,-3.033 1.684,-5.671 4.168,-7.032Zm219.14,6.862c0.132,0.01 0.292,0.018 0.484,0.018l0.288,-0c0.285,-0 0.505,-0.018 0.67,-0.039c0.057,-0.354 0.136,-0.699 0.237,-1.036c-0.066,-0.22 -0.123,-0.445 -0.17,-0.673c-0.187,-0.022 -0.43,-0.039 -0.737,-0.039l-0.288,-0c-0.219,-0 -0.405,0.008 -0.561,0.02c-0.005,0.102 -0.008,0.212 -0.008,0.332l0,0.217c0,0.499 0.035,0.898 0.085,1.2Zm-180.972,19.639l8.148,0c29.42,0 35.117,-9.158 35.117,-18.46l-0,-1.009c-0,-10.889 -7.644,-15.864 -28.339,-16.369l-10.239,-0.216c-9.086,-0.217 -10.961,-1.587 -10.961,-3.678l0,-0.072c0,-1.947 1.154,-3.389 9.518,-3.389l0.361,0c9.086,0 10.167,3.101 10.312,4.976l27.401,-0l-0,-0.505c-0,-8.87 -6.418,-16.874 -34.252,-16.874l-7.932,0c-25.454,0 -32.593,6.851 -32.593,16.297l-0,0.649c-0,8.437 5.048,16.008 26.536,16.657l10.672,0.288c10.168,0.289 11.177,2.164 11.177,4.327l0,0.144c0,2.236 -1.731,4.327 -10.384,4.327l-0.288,-0c-9.446,-0 -10.6,-4.038 -10.744,-6.562l-27.834,-0l-0,0.649c-0,6.922 3.1,18.82 34.324,18.82Zm73.754,-54.658l-23.291,-0l-0,53.649l23.291,-0l0,-53.649Zm44.045,48.601c0.505,3.101 2.668,5.048 6.418,5.048l19.83,-0l-0,-12.115l-2.236,0c-0.937,0 -1.298,-0.504 -1.298,-1.442l0,-13.7c0,-4.904 -1.73,-12.547 -27.906,-12.547l-4.11,-0c-24.95,-0 -26.68,7.643 -26.68,12.979l-0,0.649l21.632,0c0.145,-1.081 0.361,-3.533 7.139,-3.533l0.216,-0c5.841,-0 6.779,1.37 6.779,2.668l-0,0.072c-0,0.865 -0.433,1.514 -1.947,1.658l-19.686,1.659c-11.465,1.01 -15.071,5.048 -15.071,10.888l0,1.226c0,6.13 4.904,12.259 17.883,12.259l0.577,-0c11.105,-0 16.513,-3.894 18.46,-5.769Zm-0.288,-10.96c-0,3.461 -3.317,6.706 -9.014,6.706c-3.966,-0 -5.12,-1.947 -5.12,-3.534l0,-0.072c0,-1.73 1.226,-2.451 3.75,-3.028l10.384,-2.236l-0,2.164Zm66.613,17.089c28.268,0 29.927,-13.196 29.927,-18.243l-0,-0.217l-23.724,0c-0.072,1.371 -1.226,6.779 -8.583,6.779l-0.288,-0c-7.139,-0 -8.581,-4.976 -8.581,-9.23l-0,-0.217c-0,-3.893 1.442,-8.364 8.581,-8.364l0.288,-0c7.429,-0 8.439,5.047 8.583,6.418l23.724,-0l-0,-0.217c-0,-5.408 -2.308,-17.666 -29.855,-17.666l-4.831,-0c-27.906,-0 -30.142,12.33 -30.142,19.685l0,1.154c0,7.499 2.308,20.118 30.214,20.118l4.687,0Zm60.349,-1.081l-0,-17.018l11.825,17.018l25.888,-0l-15.432,-22.066l13.052,-16.729l-24.661,0l-10.672,14.638l-0,-29.492l-23.292,-0l0,53.649l23.292,-0Z"/><path d="M220.617,96.185c-31.224,0 -34.324,-11.898 -34.324,-18.82l-0,-0.649l27.834,-0c0.144,2.524 1.298,6.562 10.744,6.562l0.288,-0c8.653,-0 10.384,-2.091 10.384,-4.327l0,-0.144c0,-2.163 -1.009,-4.038 -11.177,-4.327l-10.672,-0.288c-21.488,-0.649 -26.536,-8.22 -26.536,-16.657l-0,-0.649c-0,-9.446 7.139,-16.297 32.593,-16.297l7.932,0c27.834,0 34.252,8.004 34.252,16.874l-0,0.505l-27.401,-0c-0.145,-1.875 -1.226,-4.976 -10.312,-4.976l-0.361,0c-8.364,0 -9.518,1.442 -9.518,3.389l0,0.072c0,2.091 1.875,3.461 10.961,3.678l10.239,0.216c20.695,0.505 28.339,5.48 28.339,16.369l-0,1.009c-0,9.302 -5.697,18.46 -35.117,18.46l-8.148,0Zm73.754,-54.658l0,53.649l-23.291,-0l-0,-53.649l23.291,-0Zm44.045,48.601c-1.947,1.875 -7.355,5.769 -18.46,5.769l-0.577,-0c-12.979,-0 -17.883,-6.129 -17.883,-12.259l0,-1.226c0,-5.84 3.606,-9.878 15.071,-10.888l19.686,-1.659c1.514,-0.144 1.947,-0.793 1.947,-1.658l-0,-0.072c-0,-1.298 -0.938,-2.668 -6.779,-2.668l-0.216,-0c-6.778,-0 -6.994,2.452 -7.139,3.533l-21.632,0l-0,-0.649c-0,-5.336 1.73,-12.979 26.68,-12.979l4.11,-0c26.176,-0 27.906,7.643 27.906,12.547l0,13.7c0,0.938 0.361,1.442 1.298,1.442l2.236,0l-0,12.115l-19.83,-0c-3.75,-0 -5.913,-1.947 -6.418,-5.048Zm-0.288,-10.96l-0,-2.164l-10.384,2.236c-2.524,0.577 -3.75,1.298 -3.75,3.028l0,0.072c0,1.587 1.154,3.534 5.12,3.534c5.697,-0 9.014,-3.245 9.014,-6.706Zm66.613,17.089l-4.687,0c-27.906,0 -30.214,-12.619 -30.214,-20.118l0,-1.154c0,-7.355 2.236,-19.685 30.142,-19.685l4.831,-0c27.547,-0 29.855,12.258 29.855,17.666l-0,0.217l-23.724,-0c-0.144,-1.371 -1.154,-6.418 -8.583,-6.418l-0.288,-0c-7.139,-0 -8.581,4.471 -8.581,8.364l-0,0.217c-0,4.254 1.442,9.23 8.581,9.23l0.288,-0c7.357,-0 8.511,-5.408 8.583,-6.779l23.724,0l-0,0.217c-0,5.047 -1.659,18.243 -29.927,18.243Zm60.349,-1.081l-23.292,-0l0,-53.649l23.292,-0l-0,29.492l10.672,-14.638l24.661,0l-13.052,16.729l15.432,22.066l-25.888,-0l-11.825,-17.018l-0,17.018Z" style="fill:#fff;"/></g></g></svg>