<svg width="86" height="86" viewBox="0 0 86 86" fill="none" xmlns="http://www.w3.org/2000/svg">
<mask id="path-1-outside-1_320_1510" maskUnits="userSpaceOnUse" x="-0.596069" y="-0.208984" width="87" height="87" fill="black">
<rect fill="white" x="-0.596069" y="-0.208984" width="87" height="87"/>
<path d="M54.5063 3.96791C52.2138 3.29417 49.8108 4.60398 49.1366 6.89481L45.1761 20.3433C42.3141 30.0617 32.1169 35.6199 22.3988 32.7585L8.95087 28.799C6.65984 28.1244 4.2557 29.4349 3.58113 31.7259C2.90657 34.0169 4.21701 36.4211 6.50804 37.0956L19.956 41.0552C29.6741 43.9166 35.2323 54.1137 32.3713 63.8324L28.4112 77.2794C27.7374 79.572 29.0473 81.975 31.3391 82.6511C33.6299 83.3253 36.0341 82.0148 36.7078 79.7223L40.6679 66.2753C43.529 56.5566 53.7261 50.9984 63.4451 53.86L76.8935 57.8181C79.185 58.4944 81.588 57.1846 82.2613 54.8922C82.9376 52.6007 81.6278 50.1977 79.3355 49.5244L65.888 45.5634C56.169 42.7017 50.6108 32.5045 53.4727 22.7861L57.4313 9.33869C58.1074 7.04683 56.797 4.64268 54.5063 3.96791Z"/>
</mask>
<path d="M54.5063 3.96791C52.2138 3.29417 49.8108 4.60398 49.1366 6.89481L45.1761 20.3433C42.3141 30.0617 32.1169 35.6199 22.3988 32.7585L8.95087 28.799C6.65984 28.1244 4.2557 29.4349 3.58113 31.7259C2.90657 34.0169 4.21701 36.4211 6.50804 37.0956L19.956 41.0552C29.6741 43.9166 35.2323 54.1137 32.3713 63.8324L28.4112 77.2794C27.7374 79.572 29.0473 81.975 31.3391 82.6511C33.6299 83.3253 36.0341 82.0148 36.7078 79.7223L40.6679 66.2753C43.529 56.5566 53.7261 50.9984 63.4451 53.86L76.8935 57.8181C79.185 58.4944 81.588 57.1846 82.2613 54.8922C82.9376 52.6007 81.6278 50.1977 79.3355 49.5244L65.888 45.5634C56.169 42.7017 50.6108 32.5045 53.4727 22.7861L57.4313 9.33869C58.1074 7.04683 56.797 4.64268 54.5063 3.96791Z" fill="#FFC700"/>
<path d="M54.5063 3.96791C52.2138 3.29417 49.8108 4.60398 49.1366 6.89481L45.1761 20.3433C42.3141 30.0617 32.1169 35.6199 22.3988 32.7585L8.95087 28.799C6.65984 28.1244 4.2557 29.4349 3.58113 31.7259C2.90657 34.0169 4.21701 36.4211 6.50804 37.0956L19.956 41.0552C29.6741 43.9166 35.2323 54.1137 32.3713 63.8324L28.4112 77.2794C27.7374 79.572 29.0473 81.975 31.3391 82.6511C33.6299 83.3253 36.0341 82.0148 36.7078 79.7223L40.6679 66.2753C43.529 56.5566 53.7261 50.9984 63.4451 53.86L76.8935 57.8181C79.185 58.4944 81.588 57.1846 82.2613 54.8922C82.9376 52.6007 81.6278 50.1977 79.3355 49.5244L65.888 45.5634C56.169 42.7017 50.6108 32.5045 53.4727 22.7861L57.4313 9.33869C58.1074 7.04683 56.797 4.64268 54.5063 3.96791Z" stroke="black" stroke-width="6" mask="url(#path-1-outside-1_320_1510)"/>
</svg>
