<svg width="20" height="20" viewBox="0 0 20 20" fill="none" xmlns="http://www.w3.org/2000/svg">
<path d="M11.2292 18.7752C9.44147 18.7752 6.79811 18.7242 4.49791 18.2851C1.42599 17.6992 1.19672 16.4929 1.22519 15.3076C1.24916 14.2991 1.7107 10.923 2.16625 9.54139C2.85556 7.45248 3.909 5.37555 4.55036 4.48245C5.42998 3.25817 7.65975 1.29064 9.90151 1.22321H9.92249C10.2192 1.22321 10.5144 1.41801 10.6912 1.7312L11.5678 3.27765C11.7776 3.64928 11.7731 4.10632 11.5559 4.47196C11.3775 4.77166 10.8591 4.85258 10.8546 4.85407L10.4425 4.91401L10.7197 5.2272C10.7182 5.2272 10.8111 5.37405 10.5923 5.69174C10.3975 5.97495 10.0184 6.11132 9.43547 6.11132C8.88852 6.11132 8.26515 5.98694 7.76465 5.88804C7.73468 5.88205 7.70321 5.87905 7.67174 5.87905C7.48592 5.87905 7.29412 5.98245 7.12029 6.17725C6.89552 6.4275 6.18672 7.44498 6.47444 10.0239C6.61679 11.3036 6.19272 12.456 6.18822 12.468L6.0099 12.9445L6.48193 12.7557C6.48642 12.7527 7.2057 12.471 8.19472 12.471H8.29961L8.36704 12.39C8.38802 12.3646 10.456 9.92051 13.1398 9.92051C14.893 9.92051 16.5713 10.6308 17.6293 11.8206C18.3755 12.6598 18.7247 13.6533 18.6108 14.6168C18.1702 18.3601 14.6383 18.7647 13.1398 18.7647C12.93 18.7647 12.6842 18.7662 12.41 18.7692C12.0608 18.7722 11.6637 18.7752 11.2292 18.7752Z" fill="url(#paint0_linear_136_969)"/>
<path d="M9.92406 1.44955C10.1368 1.44955 10.3616 1.6039 10.498 1.84366L11.3746 3.39011C11.5454 3.69131 11.5409 4.06294 11.3656 4.35964C11.2802 4.5035 10.991 4.60839 10.8262 4.63387L9.99748 4.75075L10.513 5.33217C10.5115 5.36214 10.495 5.43856 10.4081 5.56444C10.2597 5.77872 9.93305 5.88811 9.43555 5.88811C8.91107 5.88811 8.29968 5.76673 7.80967 5.66933C7.76472 5.66034 7.71826 5.65584 7.67331 5.65584C7.49798 5.65584 7.22975 5.72028 6.95403 6.02897C6.31417 6.74376 6.05193 8.24675 6.25123 10.0494C6.3861 11.2677 5.9815 12.3796 5.97701 12.3901L5.62336 13.3357L6.56442 12.9655C6.56891 12.961 7.25373 12.6958 8.19479 12.6958H8.40608L8.54094 12.534C8.56042 12.51 10.5669 10.1454 13.1413 10.1454C14.8316 10.1454 16.447 10.8272 17.463 11.9705C18.1658 12.7617 18.4955 13.6923 18.3891 14.5914C18.2258 15.976 17.6099 17.016 16.5564 17.6858C15.4415 18.3916 14.0839 18.54 13.1398 18.54C12.9301 18.54 12.6843 18.5415 12.4086 18.5445C12.0594 18.5475 11.6623 18.5504 11.2308 18.5504C9.45203 18.5504 6.82216 18.4995 4.54144 18.0649C3.19729 17.8087 2.32516 17.4206 1.87111 16.8796C1.48 16.4136 1.43954 15.8516 1.45153 15.3137C1.47551 14.3157 1.93105 10.977 2.3821 9.61339C3.03994 7.62038 4.09489 5.50749 4.73625 4.61588C5.59039 3.42607 7.75123 1.51548 9.91057 1.45105L9.92406 1.44955ZM9.92406 1H9.89709C7.52795 1.07043 5.23675 3.14436 4.37061 4.35215C3.70977 5.27373 2.64134 7.39411 1.95503 9.47103C1.50248 10.8437 1.02746 14.2318 1.00198 15.3017C0.970513 16.6099 1.2792 17.8986 4.45753 18.5055C6.71876 18.9371 9.32316 19 11.2308 19C12.0055 19 12.6648 18.9895 13.1398 18.9895C15.6873 18.9895 18.443 17.972 18.8341 14.6439C19.1338 12.0964 16.4365 9.6958 13.1398 9.6958C10.3152 9.6958 8.19479 12.2463 8.19479 12.2463C7.14584 12.2463 6.39659 12.546 6.39659 12.546C6.39659 12.546 6.84614 11.3472 6.69629 9.9985C6.39808 7.31019 7.20578 6.1039 7.67181 6.1039C7.68829 6.1039 7.70478 6.10539 7.72126 6.10839C8.23974 6.21179 8.86911 6.33616 9.43555 6.33616C10.002 6.33616 10.5055 6.21179 10.7767 5.81918C11.1139 5.33217 10.8876 5.07742 10.8876 5.07742C10.8876 5.07742 11.5125 4.98901 11.7507 4.58741C12.01 4.15135 12.016 3.60889 11.7657 3.16683L10.8876 1.62038C10.6883 1.26823 10.3272 1 9.92406 1Z" fill="#EDA600"/>
<path d="M9.81027 3.18339C9.43415 3.11296 8.98609 3.09798 8.63694 3.2748C8.20388 3.49508 8.05253 4.06601 8.30428 4.48109C8.6819 5.09998 9.70238 5.15992 10.3482 5.13444C10.6359 5.12245 10.6374 4.6729 10.3482 4.68489C9.8822 4.70287 9.30078 4.6789 8.89469 4.43164C8.60398 4.25332 8.50508 3.84573 8.86322 3.66441C9.09399 3.54603 9.44014 3.5715 9.68889 3.61796C9.97361 3.66891 10.095 3.23584 9.81027 3.18339Z" fill="#EDA600"/>
<path d="M5.82704 12.8067C5.10776 13.8541 4.92194 14.9076 5.17669 16.1483C5.23513 16.4316 5.6682 16.3117 5.60975 16.0285C5.37898 14.9016 5.5618 13.9845 6.21515 13.033C6.37998 12.7947 5.99037 12.5699 5.82704 12.8067Z" fill="#EDA600"/>
<path d="M7.56087 5.63942C7.2282 5.59147 6.75318 5.18837 6.55538 4.76279C6.49544 4.63392 6.52091 4.45111 6.28565 4.43762C5.96047 4.41964 6.19873 5.07298 6.30962 5.23332C6.61382 5.66939 7.0259 5.91364 7.56537 5.95261C7.85458 5.97358 7.85757 5.68138 7.56087 5.63942Z" fill="#EDA600"/>
<path d="M8.42703 14.2542C8.80465 15.8142 10.2192 16.977 11.7792 17.1883C13.2852 17.3921 15.8146 17.0429 16.5564 15.432C16.6763 15.1713 16.2897 14.942 16.1683 15.2058C15.4895 16.6818 13.0664 16.9605 11.7057 16.7267C10.3736 16.4975 9.18377 15.4725 8.86159 14.1358C8.79266 13.8541 8.35959 13.9725 8.42703 14.2542Z" fill="#EDA600"/>
<defs>
<linearGradient id="paint0_linear_136_969" x1="9.92773" y1="17.5958" x2="9.92773" y2="3.2252" gradientUnits="userSpaceOnUse">
<stop stop-color="#FFB300"/>
<stop offset="0.4007" stop-color="#FFCA28"/>
</linearGradient>
</defs>
</svg>
