<svg width="20" height="20" viewBox="0 0 20 20" fill="none" xmlns="http://www.w3.org/2000/svg">
<path d="M12.1846 4.03766V5.76524H7.84882V4.03766H12.1846ZM12.7707 2.71674H7.26268C6.85743 2.71674 6.5293 3.04486 6.5293 3.45012V6.35139C6.5293 6.75664 6.85743 7.08477 7.26268 7.08477H12.7707C13.176 7.08477 13.5041 6.75664 13.5041 6.35139V3.45012C13.5041 3.04486 13.176 2.71674 12.7707 2.71674Z" fill="url(#paint0_linear_136_1010)"/>
<path d="M3.03617 5.79889H16.9985C17.6197 5.79889 18.1245 6.3023 18.1245 6.9249V16.3425C18.1245 16.9637 17.6211 17.4685 16.9985 17.4685H3.03617C2.41357 17.4685 1.91016 16.9637 1.91016 16.3425V6.9249C1.91016 6.3037 2.41357 5.79889 3.03617 5.79889Z" fill="url(#paint1_linear_136_1010)"/>
<path d="M17.4319 5.28564H2.6016C2.07295 5.28564 1.64526 5.71333 1.64526 6.24198V10.0659C1.64526 10.2174 1.72099 10.3562 1.84719 10.4417C3.70658 11.7024 6.8855 12.3895 10.0167 12.4526C13.148 12.3895 16.3269 11.7024 18.1863 10.4417C18.3111 10.3576 18.3882 10.2174 18.3882 10.0659V6.24198C18.3882 5.71474 17.9605 5.28564 17.4319 5.28564Z" fill="url(#paint2_linear_136_1010)"/>
<path d="M11.2016 12.3194V13.5407C11.2016 13.6095 11.0992 13.6655 10.973 13.6655H9.06036C8.93415 13.6655 8.83179 13.6095 8.83179 13.5407V12.3194C8.83179 12.2507 8.93415 12.1946 9.06036 12.1946H10.973C11.0992 12.1946 11.2016 12.2493 11.2016 12.3194Z" fill="#FFCA28"/>
<path d="M11.4876 11.9352V12.21C11.4876 12.3362 11.3852 12.4386 11.259 12.4386H8.77422C8.64802 12.4386 8.54565 12.3362 8.54565 12.21V11.9352C8.54565 11.809 8.64802 11.7066 8.77422 11.7066H11.2576C11.3852 11.7066 11.4876 11.809 11.4876 11.9352Z" fill="#F9A825"/>
<path opacity="0.2" d="M12.7708 3.13741C12.9433 3.13741 13.0835 3.27764 13.0835 3.45012V5.28567C13.0835 5.51845 13.2714 5.70635 13.5042 5.70635H17.4319C17.7278 5.70635 17.9675 5.94614 17.9675 6.24201V10.066C17.9675 10.0758 17.9619 10.0856 17.9507 10.0926C17.9451 10.0968 17.9395 10.0996 17.9325 10.1038C17.9185 10.1122 17.9044 10.1207 17.8904 10.1305C17.7726 10.209 17.7011 10.3408 17.7011 10.481V16.3425C17.7011 16.7309 17.3842 17.0478 16.9958 17.0478H3.0363C2.64788 17.0478 2.33097 16.7309 2.33097 16.3425V10.481C2.33097 10.3394 2.25945 10.2076 2.14166 10.1305C2.12764 10.1221 2.11362 10.1122 2.0996 10.1038C2.09399 10.0996 2.08697 10.0968 2.08137 10.0926C2.07155 10.0856 2.06454 10.0758 2.06454 10.066V6.24201C2.06454 5.94614 2.30432 5.70635 2.6002 5.70635H6.52793C6.7607 5.70635 6.9486 5.51845 6.9486 5.28567V3.45012C6.9486 3.27764 7.08883 3.13741 7.26131 3.13741H12.7708ZM7.84885 5.70635H12.1846C12.4174 5.70635 12.6053 5.51845 12.6053 5.28567V4.03766C12.6053 3.80489 12.4174 3.61699 12.1846 3.61699H7.84885C7.61608 3.61699 7.42818 3.80489 7.42818 4.03766V5.28567C7.42818 5.51845 7.61748 5.70635 7.84885 5.70635ZM12.7708 2.71674H7.26271C6.85746 2.71674 6.52933 3.04486 6.52933 3.45012V5.28567H2.6016C2.07295 5.28567 1.64526 5.71336 1.64526 6.24201V10.066C1.64526 10.2174 1.72099 10.3562 1.84719 10.4418C1.86682 10.4558 1.88926 10.4684 1.91029 10.481V16.3425C1.91029 16.9651 2.4151 17.4685 3.0363 17.4685H16.9986C17.6198 17.4685 18.1246 16.9651 18.1246 16.3425V10.481C18.1456 10.467 18.1681 10.4544 18.1877 10.4418C18.3125 10.3576 18.3896 10.2174 18.3896 10.066V6.24201C18.3896 5.71336 17.9619 5.28567 17.4333 5.28567H13.5042V3.45012C13.5042 3.04486 13.176 2.71674 12.7708 2.71674ZM7.84885 5.28567V4.03766H12.1832V5.28567H7.84885Z" fill="#424242"/>
<defs>
<linearGradient id="paint0_linear_136_1010" x1="10.0167" y1="2.70215" x2="10.0167" y2="6.44408" gradientUnits="userSpaceOnUse">
<stop offset="0.0005936" stop-color="#A1887F"/>
<stop offset="0.2381" stop-color="#927971"/>
<stop offset="0.6929" stop-color="#6C524B"/>
<stop offset="1" stop-color="#4E342E"/>
</linearGradient>
<linearGradient id="paint1_linear_136_1010" x1="10.0166" y1="5.93042" x2="10.0166" y2="17.3843" gradientUnits="userSpaceOnUse">
<stop stop-color="#4E342E"/>
<stop offset="0.424" stop-color="#503630"/>
<stop offset="0.618" stop-color="#583D36"/>
<stop offset="0.7651" stop-color="#644941"/>
<stop offset="0.8878" stop-color="#765950"/>
<stop offset="0.9933" stop-color="#8D6E63"/>
</linearGradient>
<linearGradient id="paint2_linear_136_1010" x1="10.0167" y1="5.30668" x2="10.0167" y2="12.3927" gradientUnits="userSpaceOnUse">
<stop offset="0.0067402" stop-color="#BCAAA4"/>
<stop offset="1" stop-color="#6D4C41"/>
</linearGradient>
</defs>
</svg>
