<svg width="20" height="20" viewBox="0 0 20 20" fill="none" xmlns="http://www.w3.org/2000/svg">
<path d="M7.76904 6.33609C8.34962 5.83231 9.81949 4.6389 11.0467 4.3225C11.3615 4.2411 11.6457 4.2027 11.9129 4.2027C12.3891 4.2027 12.7331 4.33018 13.0649 4.45152C13.3613 4.56057 13.6685 4.67423 14.034 4.67423C14.1953 4.67423 14.355 4.65273 14.5225 4.60972C14.736 4.55443 14.951 4.41312 15.1783 4.26414C15.5101 4.04758 15.8864 3.80029 16.2949 3.80029C16.6297 3.80029 16.9615 3.9631 17.3101 4.29947L18.3868 5.3101C18.9198 5.84613 18.9551 6.57876 18.8906 7.09637C18.7324 8.3681 17.7755 9.87023 16.6866 10.5798L7.76904 6.33609Z" fill="url(#paint0_radial_136_971)"/>
<path d="M16.2947 4.03219C16.5666 4.03219 16.8461 4.17503 17.1533 4.47146L18.2208 5.47441C18.5971 5.85685 18.7445 6.39289 18.66 7.07023C18.5141 8.24059 17.6571 9.61677 16.6649 10.3171L8.18664 6.28076C8.86091 5.72169 10.0743 4.80936 11.1018 4.54518C11.3982 4.46992 11.6624 4.43152 11.9112 4.43152C12.3459 4.43152 12.6562 4.54518 12.9833 4.66652C13.2997 4.78325 13.6253 4.90305 14.0323 4.90305C14.2136 4.90305 14.3917 4.88001 14.5791 4.83086C14.8295 4.76635 15.0599 4.61583 15.3041 4.4561C15.6251 4.24875 15.9553 4.03219 16.2947 4.03219ZM16.2947 3.57141C15.5268 3.57141 14.9324 4.26564 14.4639 4.38698C14.3088 4.42692 14.166 4.44381 14.0339 4.44381C13.332 4.44381 12.8743 3.97075 11.9128 3.97075C11.6486 3.97075 11.346 4.00608 10.9882 4.09823C9.34933 4.51907 7.35571 6.39289 7.35571 6.39289L16.7018 10.8424C18.4757 9.77804 20.0424 6.65246 18.5433 5.14265L17.4697 4.13356C17.0381 3.71886 16.648 3.57141 16.2947 3.57141Z" fill="#EDA600"/>
<path d="M10.3124 16.0891C10.0743 16.0891 9.84085 16.0031 9.65961 15.8465L2.33022 9.3695C1.49008 8.62612 0.972473 7.69689 0.946363 6.88132C0.927932 6.30074 1.15218 5.77085 1.61295 5.30701L2.68195 4.30405C3.03214 3.96615 3.36389 3.80334 3.69872 3.80334C4.10728 3.80334 4.48357 4.04909 4.81533 4.26719C5.04265 4.41617 5.25768 4.55748 5.47117 4.61277C5.63858 4.65578 5.79832 4.67728 5.95959 4.67728C6.32514 4.67728 6.63078 4.56362 6.92722 4.45457C7.25897 4.3317 7.60302 4.20575 8.07915 4.20575C8.34794 4.20575 8.63054 4.24569 8.94541 4.32556C10.5074 4.72643 12.458 6.54649 12.478 6.56492L16.8093 10.4201C17.2393 10.7887 17.2916 11.4353 16.9306 11.8654L16.8999 11.9022C16.7079 12.1311 16.4268 12.2616 16.1289 12.2616C15.9691 12.2616 15.8094 12.2232 15.6681 12.1495C15.6343 12.1326 15.599 12.1234 15.5621 12.1234C15.5114 12.1234 15.4608 12.1403 15.4193 12.1741C15.3486 12.2309 15.3164 12.3231 15.3394 12.4106C15.4208 12.7332 15.3425 13.0757 15.1305 13.326L15.0998 13.3629C14.9078 13.5917 14.6268 13.7223 14.3303 13.7223C14.1045 13.7223 13.8911 13.6486 13.7129 13.5103C13.6714 13.4781 13.6223 13.4612 13.5716 13.4612C13.5316 13.4612 13.4902 13.4719 13.4549 13.4934C13.3734 13.541 13.3289 13.6347 13.3443 13.7284C13.3903 14.0249 13.3074 14.3244 13.117 14.5517L13.0862 14.5885C12.8942 14.8174 12.6132 14.9479 12.3152 14.9479C12.0986 14.9479 11.8913 14.8788 11.7177 14.7498C11.6778 14.7191 11.6286 14.7053 11.581 14.7053C11.5426 14.7053 11.5042 14.7145 11.4689 14.7345C11.3906 14.7775 11.343 14.8635 11.3506 14.9541C11.3722 15.2259 11.2877 15.4886 11.1126 15.6959L11.0819 15.7328C10.8914 15.9586 10.6103 16.0891 10.3124 16.0891Z" fill="url(#paint1_radial_136_971)"/>
<path d="M3.69727 4.03219C4.03824 4.03219 4.36846 4.24875 4.68793 4.45763C4.93214 4.61737 5.16253 4.76789 5.41289 4.8324C5.60027 4.88155 5.77843 4.90459 5.95967 4.90459C6.36515 4.90459 6.6923 4.78325 7.00716 4.66805C7.33431 4.54672 7.64457 4.43306 8.07923 4.43306C8.32805 4.43306 8.59223 4.46992 8.88866 4.54672C10.3923 4.93223 12.303 6.71236 12.3214 6.73079C12.3245 6.73386 12.3276 6.73693 12.3306 6.73847L16.6573 10.589L16.6635 10.5951C16.9937 10.8778 17.0352 11.38 16.7541 11.7148L16.7234 11.7517C16.5744 11.9283 16.3594 12.0297 16.129 12.0297C16.0061 12.0297 15.8832 12.0005 15.7742 11.9437C15.7081 11.9099 15.6344 11.893 15.5622 11.893C15.4608 11.893 15.3595 11.9268 15.275 11.9928C15.1337 12.105 15.0707 12.2908 15.1153 12.4659C15.1782 12.7162 15.1183 12.982 14.954 13.177L14.9233 13.2139C14.7743 13.3905 14.5593 13.4919 14.3304 13.4919C14.1568 13.4919 13.9925 13.4351 13.8543 13.3275C13.7713 13.263 13.6715 13.2308 13.5717 13.2308C13.4918 13.2308 13.4104 13.2523 13.3382 13.2953C13.1754 13.392 13.0879 13.5779 13.117 13.7637C13.1539 13.9941 13.0894 14.2276 12.9404 14.4027L12.9097 14.4395C12.7607 14.6162 12.5457 14.7175 12.3153 14.7175C12.1479 14.7175 11.9897 14.6653 11.8545 14.5655C11.7731 14.5056 11.6763 14.4749 11.5796 14.4749C11.5028 14.4749 11.426 14.4933 11.3569 14.5317C11.1987 14.6192 11.1065 14.7913 11.1203 14.971C11.1372 15.1814 11.0712 15.3857 10.936 15.5469L10.9053 15.5838C10.7563 15.7604 10.5398 15.8618 10.3094 15.8618C10.1251 15.8618 9.94691 15.7958 9.81175 15.6806L2.47929 9.199C1.68676 8.49709 1.19833 7.6293 1.17376 6.8767C1.15687 6.35756 1.35193 5.89986 1.76816 5.47748L2.84176 4.46992C3.14587 4.17503 3.42541 4.03219 3.69727 4.03219ZM3.69727 3.57141C3.34401 3.57141 2.95389 3.71886 2.52229 4.13509L1.44869 5.14419C-0.050364 6.65399 1.02785 8.52627 2.17671 9.54151L9.50917 16.0231C9.74263 16.2227 10.0283 16.321 10.3125 16.321C10.6642 16.321 11.0144 16.1705 11.2601 15.8787L11.2908 15.8418C11.512 15.5792 11.6072 15.252 11.5811 14.9341C11.8008 15.0969 12.0588 15.1768 12.3168 15.1768C12.6685 15.1768 13.0172 15.0263 13.2629 14.7344L13.2937 14.6976C13.5379 14.4073 13.627 14.0387 13.5717 13.69C13.7974 13.8651 14.0647 13.9511 14.3304 13.9511C14.6821 13.9511 15.0308 13.8006 15.2765 13.5103L15.3072 13.4735C15.5776 13.1524 15.659 12.7331 15.5622 12.3522C15.7404 12.4444 15.9339 12.4889 16.1274 12.4889C16.4792 12.4889 16.8278 12.3399 17.0736 12.0481L17.1043 12.0113C17.5481 11.4829 17.4836 10.6934 16.9599 10.245L12.6363 6.39442C12.6363 6.39442 10.6411 4.51907 9.00385 4.09977C8.64752 4.00761 8.34495 3.97229 8.07923 3.97229C7.11929 3.97229 6.66158 4.44535 5.95814 4.44535C5.82451 4.44535 5.68321 4.42845 5.52808 4.38852C5.05962 4.26564 4.46523 3.57141 3.69727 3.57141Z" fill="#EDA600"/>
<path d="M4.7587 13.5103C4.43463 13.5103 4.13359 13.349 3.95081 13.0803C3.64516 12.6302 3.75882 12.0113 4.20577 11.7025L5.89221 10.5368C6.05655 10.4231 6.247 10.3632 6.4436 10.3632C6.76768 10.3632 7.06872 10.5245 7.25149 10.7933C7.55714 11.2433 7.44348 11.8623 6.99653 12.171L5.3101 13.3368C5.14729 13.4504 4.95684 13.5103 4.7587 13.5103Z" fill="url(#paint2_radial_136_971)"/>
<path d="M6.44324 10.5952C6.69052 10.5952 6.92091 10.718 7.06067 10.9239C7.29567 11.271 7.20812 11.7456 6.86561 11.9821L5.17918 13.1479C5.05477 13.2339 4.90886 13.28 4.75834 13.28C4.51106 13.28 4.28067 13.1571 4.1409 12.9513C3.9059 12.6042 3.99345 12.1296 4.33596 11.893L6.0224 10.7273C6.1468 10.6413 6.29272 10.5952 6.44324 10.5952ZM6.44324 10.1344C6.20824 10.1344 5.97017 10.2035 5.75975 10.3479L4.07332 11.5137C3.52193 11.8946 3.38062 12.6533 3.75846 13.2093C3.99345 13.5549 4.37129 13.7392 4.75834 13.7392C4.99333 13.7392 5.2314 13.6701 5.44182 13.5257L7.12825 12.3599C7.67965 11.979 7.82095 11.2203 7.44312 10.6643C7.20812 10.3202 6.82875 10.1344 6.44324 10.1344Z" fill="#EDA600"/>
<path d="M8.24961 16.1997C8.01 16.1997 7.77962 16.1106 7.59991 15.9494C7.19597 15.5869 7.15911 14.9587 7.51851 14.5501L8.49996 13.4381C8.68581 13.2277 8.95306 13.1064 9.23106 13.1064C9.47066 13.1064 9.70105 13.1955 9.88075 13.3567C10.2847 13.7192 10.3216 14.3474 9.96215 14.756L8.9807 15.868C8.79486 16.0784 8.52914 16.1997 8.24961 16.1997Z" fill="url(#paint3_radial_136_971)"/>
<path d="M9.23292 13.3383C9.41569 13.3383 9.59232 13.4059 9.72902 13.5287C10.0393 13.8083 10.0669 14.2905 9.79045 14.6039L8.809 15.7159C8.6677 15.8771 8.46342 15.9693 8.24993 15.9693C8.06716 15.9693 7.89053 15.9017 7.75383 15.7788C7.44358 15.4993 7.41593 15.017 7.69239 14.7037L8.67384 13.5917C8.81515 13.4304 9.01942 13.3383 9.23292 13.3383ZM9.23292 12.8775C8.89962 12.8775 8.56787 13.0157 8.32826 13.2861L7.34681 14.3981C6.90293 14.9018 6.94748 15.6729 7.44665 16.1198C7.67703 16.3272 7.96425 16.4285 8.24993 16.4285C8.58322 16.4285 8.91498 16.2903 9.15458 16.02L10.136 14.908C10.5799 14.4042 10.5354 13.6332 10.0362 13.1862C9.80581 12.9789 9.5186 12.8775 9.23292 12.8775Z" fill="#EDA600"/>
<path d="M3.52688 11.8792C3.18744 11.8792 2.87873 11.7056 2.70056 11.4153C2.41795 10.9545 2.55925 10.3478 3.01542 10.0622L4.04295 9.42015C4.19654 9.32493 4.37317 9.27271 4.55287 9.27271C4.89231 9.27271 5.20103 9.44626 5.37919 9.73655C5.6618 10.1973 5.5205 10.804 5.06433 11.0882L4.0368 11.7302C3.88321 11.8285 3.70658 11.8792 3.52688 11.8792Z" fill="url(#paint4_radial_136_971)"/>
<path d="M4.5526 9.50466C4.81063 9.50466 5.04716 9.63675 5.18232 9.85946C5.39889 10.2127 5.29137 10.6781 4.94119 10.8962L3.9152 11.5367C3.79847 11.6104 3.66484 11.6488 3.52814 11.6488C3.27011 11.6488 3.03358 11.5167 2.89842 11.294C2.68186 10.9407 2.78937 10.4754 3.13956 10.2573L4.16709 9.61524C4.28228 9.54306 4.4159 9.50466 4.5526 9.50466ZM4.5526 9.04388C4.33604 9.04388 4.11794 9.10225 3.92134 9.22512L2.89381 9.86713C2.33013 10.2189 2.15504 10.9668 2.50523 11.5351C2.73254 11.9053 3.12573 12.1096 3.52814 12.1096C3.74471 12.1096 3.96281 12.0512 4.15941 11.9283L5.18693 11.2863C5.75061 10.9346 5.92571 10.1866 5.57552 9.61832C5.3482 9.24662 4.95501 9.04388 4.5526 9.04388Z" fill="#EDA600"/>
<path d="M6.19344 15.295C5.94002 15.295 5.70041 15.1952 5.52071 15.014C5.14902 14.6392 5.14902 14.0279 5.52071 13.6516L7.32388 11.8331C7.50358 11.6518 7.74318 11.552 7.99661 11.552C8.25003 11.552 8.48964 11.6518 8.66934 11.8331C9.04257 12.2094 9.04257 12.8191 8.66934 13.1954L6.86617 15.014C6.68647 15.1952 6.44687 15.295 6.19344 15.295Z" fill="url(#paint5_radial_136_971)"/>
<path d="M7.996 11.7824C8.18799 11.7824 8.36923 11.8577 8.50593 11.9959C8.79007 12.2816 8.79007 12.747 8.50593 13.0342L6.70123 14.8512C6.56453 14.9879 6.38483 15.0647 6.1913 15.0647C5.99778 15.0647 5.81808 14.9894 5.68138 14.8512C5.39724 14.5655 5.39724 14.1001 5.68138 13.8129L7.48454 11.9944C7.62278 11.8577 7.80248 11.7824 7.996 11.7824ZM7.996 11.3217C7.69343 11.3217 7.39085 11.4384 7.15893 11.6703L5.35577 13.4888C4.89346 13.9542 4.89346 14.7099 5.35577 15.1753C5.58615 15.4087 5.88873 15.5239 6.19284 15.5239C6.49541 15.5239 6.79799 15.4072 7.02991 15.1753L8.83308 13.3567C9.29539 12.8914 9.29539 12.1357 8.83308 11.6703C8.60115 11.4384 8.29858 11.3217 7.996 11.3217Z" fill="#EDA600"/>
<path d="M8.03954 7.76907C7.63713 7.76907 7.41288 7.6293 7.18403 7.23304C6.89989 6.74154 7.0627 6.19169 7.58644 5.85839L11.139 4.27794C11.2849 4.22725 11.5168 4.19653 11.7795 4.19653C12.5536 4.19653 13.2908 4.4346 13.3922 4.71567C13.3968 4.7295 13.403 4.74178 13.4106 4.75407L14.5426 6.67396C14.5457 6.68625 14.5457 6.69239 14.5457 6.69547C14.538 6.69547 14.452 6.75383 14.1494 6.75383C13.7132 6.75383 13.0359 6.62942 12.3846 6.42975C12.2495 6.38828 12.1005 6.36678 11.9438 6.36678C11.2143 6.36678 10.3833 6.81373 9.65071 7.20693C9.20837 7.44499 8.78906 7.66924 8.52335 7.71685C8.33443 7.75218 8.17623 7.76907 8.03954 7.76907Z" fill="url(#paint6_linear_136_971)"/>
<path d="M11.7809 4.4269C12.5443 4.4269 13.1187 4.66497 13.1771 4.79398C13.1863 4.82163 13.1986 4.84774 13.2139 4.87232L14.1892 6.52496H14.1524C13.7377 6.52496 13.0864 6.40516 12.4552 6.2101C12.297 6.16248 12.1265 6.13791 11.9468 6.13791C11.1589 6.13791 10.3003 6.59868 9.54462 7.0057C9.1376 7.22534 8.71523 7.45112 8.48638 7.49259C8.30975 7.5233 8.16383 7.53866 8.04096 7.53866C7.75528 7.53866 7.59401 7.47723 7.38513 7.11782C7.16703 6.73999 7.2899 6.32836 7.69845 6.06265L11.2264 4.49294C11.3463 4.45147 11.5521 4.4269 11.7809 4.4269ZM11.7809 3.96613C11.4922 3.96613 11.2311 3.99838 11.0544 4.06289L7.47882 5.6541C6.8368 6.0519 6.63867 6.7492 6.98425 7.34667C7.24843 7.80284 7.54179 7.9979 8.03943 7.9979C8.19302 7.9979 8.36658 7.97947 8.56471 7.94415C9.31731 7.81052 10.8225 6.59715 11.9453 6.59715C12.0758 6.59715 12.2002 6.61404 12.3185 6.64937C12.9267 6.83675 13.6486 6.9842 14.1508 6.9842C14.587 6.9842 14.8604 6.87208 14.7544 6.57872L13.6087 4.63732C13.4474 4.18115 12.5212 3.96613 11.7809 3.96613Z" fill="#EDA600"/>
<defs>
<radialGradient id="paint0_radial_136_971" cx="0" cy="0" r="1" gradientUnits="userSpaceOnUse" gradientTransform="translate(13.3555 5.2754) rotate(83.2169) scale(5.8967 4.55379)">
<stop offset="0.5993" stop-color="#FFCA28"/>
<stop offset="1" stop-color="#FFB300"/>
</radialGradient>
<radialGradient id="paint1_radial_136_971" cx="0" cy="0" r="1" gradientUnits="userSpaceOnUse" gradientTransform="translate(9.13687 6.43248) rotate(96.7831) scale(9.33496 7.20903)">
<stop offset="0.5993" stop-color="#FFCA28"/>
<stop offset="1" stop-color="#FFB300"/>
</radialGradient>
<radialGradient id="paint2_radial_136_971" cx="0" cy="0" r="1" gradientUnits="userSpaceOnUse" gradientTransform="translate(6.63419 11.1593) rotate(144.745) scale(2.54977 1.68208)">
<stop offset="0.5993" stop-color="#FFCA28"/>
<stop offset="1" stop-color="#FFB300"/>
</radialGradient>
<radialGradient id="paint3_radial_136_971" cx="0" cy="0" r="1" gradientUnits="userSpaceOnUse" gradientTransform="translate(9.42974 13.8009) rotate(130.726) scale(2.19741 1.65404)">
<stop offset="0.5993" stop-color="#FFCA28"/>
<stop offset="1" stop-color="#FFB300"/>
</radialGradient>
<radialGradient id="paint4_radial_136_971" cx="0" cy="0" r="1" gradientUnits="userSpaceOnUse" gradientTransform="translate(4.78923 10.0869) rotate(148.133) scale(1.94427 1.43465)">
<stop offset="0.5993" stop-color="#FFCA28"/>
<stop offset="1" stop-color="#FFB300"/>
</radialGradient>
<radialGradient id="paint5_radial_136_971" cx="0" cy="0" r="1" gradientUnits="userSpaceOnUse" gradientTransform="translate(8.27197 12.2594) rotate(45.2391) scale(2.19523 2.63455)">
<stop offset="0.5993" stop-color="#FFCA28"/>
<stop offset="1" stop-color="#FFB300"/>
</radialGradient>
<linearGradient id="paint6_linear_136_971" x1="9.54165" y1="5.21154" x2="11.3145" y2="8.42602" gradientUnits="userSpaceOnUse">
<stop offset="0.5993" stop-color="#FFCA28"/>
<stop offset="1" stop-color="#FFB300"/>
</linearGradient>
</defs>
</svg>
