<svg width="20" height="20" viewBox="0 0 20 20" fill="none" xmlns="http://www.w3.org/2000/svg">
<path d="M14.0242 2.85712C11.1649 2.85712 10.1144 5.77903 10.1144 5.77903C10.1144 5.77903 9.07821 2.85712 6.19937 2.85712C4.03567 2.85712 1.5692 4.5719 2.4801 8.46995C3.39099 12.368 10.1222 17.2239 10.1222 17.2239C10.1222 17.2239 16.8287 12.368 17.7409 8.46995C18.6517 4.5719 16.3628 2.85712 14.0242 2.85712Z" fill="#F44336"/>
<path d="M5.75832 3.14813C8.00293 3.14813 9.11741 5.56109 9.47759 6.53854C9.52848 6.67818 9.72293 6.68209 9.78165 6.54637L10.1105 5.77772C9.64724 4.29784 8.37355 2.85712 6.19941 2.85712C5.29895 2.85712 4.3476 3.15466 3.60767 3.78237C4.26147 3.35302 5.02751 3.14813 5.75832 3.14813Z" fill="#CC3333"/>
<path d="M14.0243 2.85712C13.3339 2.85712 12.7049 3.00719 12.2142 3.30995C12.5588 3.17684 12.9855 3.14813 13.4083 3.14813C15.5237 3.14813 17.4173 4.75199 16.5625 8.45951C15.8291 11.6424 11.5435 15.5039 10.2345 16.9773C10.151 17.0713 10.1223 17.2226 10.1223 17.2226C10.1223 17.2226 16.8287 12.3667 17.7409 8.46865C18.6518 4.5719 16.3668 2.85712 14.0243 2.85712Z" fill="#CC3333"/>
<path d="M3.98206 4.92558C4.47143 4.31484 5.34579 3.8098 6.08703 4.39183C6.48767 4.70634 6.3128 5.35101 5.95392 5.62246C5.43192 6.01918 4.97778 6.25799 4.65936 6.87918C4.46882 7.25241 4.35398 7.66088 4.29526 8.07717C4.27177 8.2416 4.05644 8.28206 3.97553 8.1372C3.42482 7.16106 3.26822 5.8169 3.98206 4.92558Z" fill="#FF8A80"/>
<path d="M11.8278 6.20971C11.5982 6.20971 11.4363 5.98785 11.5199 5.77383C11.6751 5.37972 11.8761 4.99866 12.1175 4.65936C12.4751 4.15823 13.155 3.86591 13.5857 4.16998C14.0268 4.48057 13.9693 5.10175 13.6601 5.40191C12.9958 6.04527 12.158 6.20971 11.8278 6.20971Z" fill="#FF8A80"/>
</svg>
