<svg width="20" height="20" viewBox="0 0 20 20" fill="none" xmlns="http://www.w3.org/2000/svg">
<path d="M15.2307 4.99095V8.88262H12.9715V5.03467C12.9715 4.20387 12.301 3.53339 11.4702 3.53339H8.55507C8.42389 3.53339 8.30729 3.54797 8.19068 3.57712C8.14696 3.5917 8.08865 3.60627 8.04493 3.62085C8.0012 3.63542 7.95747 3.65 7.91375 3.67915C7.87002 3.69372 7.82629 3.72287 7.79714 3.75203C7.52021 3.91236 7.30157 4.16014 7.18497 4.45165C7.17039 4.4808 7.17039 4.49538 7.15582 4.52453C7.12667 4.58283 7.11209 4.65571 7.09752 4.71401V4.74316C7.08294 4.83062 7.06837 4.91807 7.06837 5.0201V8.88262H4.82373V5.03467C4.82373 4.84519 4.83831 4.67029 4.86746 4.49538C4.88203 4.43708 4.88203 4.37878 4.89661 4.32047C4.89661 4.29132 4.91118 4.27675 4.91118 4.2476C4.94033 4.14557 4.95491 4.02896 4.99864 3.92693C5.36303 2.76089 6.29586 1.82805 7.46191 1.46366C7.56394 1.43451 7.66596 1.40536 7.78257 1.37621C7.81172 1.37621 7.82629 1.36164 7.85545 1.36164C7.91375 1.34706 7.97205 1.34706 8.03035 1.33248C8.20526 1.30333 8.39474 1.28876 8.56965 1.28876H11.4848C11.8491 1.28876 12.199 1.34706 12.5196 1.43451C12.7237 1.49282 12.9132 1.56569 13.0881 1.65315C13.2047 1.71145 13.3213 1.76975 13.4379 1.84263C13.4962 1.87178 13.5253 1.88636 13.5691 1.91551C13.6711 1.97381 13.7585 2.04669 13.846 2.13414C13.9335 2.20702 14.0209 2.29447 14.1084 2.36735C14.1958 2.4548 14.2687 2.54226 14.3416 2.62971C14.4582 2.77546 14.5602 2.92122 14.6477 3.06698C14.706 3.169 14.7643 3.27103 14.8226 3.38764C14.8809 3.48967 14.9246 3.60627 14.9683 3.72288C14.9975 3.8249 15.0412 3.92693 15.0703 4.02896C15.1578 4.33505 15.2307 4.65571 15.2307 4.99095Z" fill="#BDBDBD"/>
<path opacity="0.2" d="M15.1287 4.24758C15.1141 4.17471 15.0996 4.08725 15.0704 4.01437C15.0413 3.91235 15.0121 3.81032 14.9684 3.70829C14.9247 3.59168 14.8809 3.48965 14.8226 3.37305C14.7643 3.27102 14.706 3.15442 14.6477 3.05239C14.5457 2.90663 14.4437 2.76088 14.3416 2.61512C14.2688 2.52767 14.1813 2.44021 14.1084 2.35276C14.021 2.26531 13.9335 2.19243 13.8461 2.11955C13.7586 2.04667 13.6566 1.9738 13.5691 1.90092C13.5254 1.87177 13.4963 1.85719 13.4525 1.82804C13.3359 1.75516 13.2193 1.69686 13.1027 1.63856C12.9278 1.55111 12.7238 1.47823 12.5343 1.41993C12.4905 1.40535 12.4468 1.39077 12.4177 1.39077C12.1262 1.3179 11.8201 1.27417 11.4994 1.27417H8.5843C8.43854 1.27417 8.30736 1.27417 8.17618 1.30332C8.13245 1.30332 8.08873 1.3179 8.045 1.3179C7.9867 1.33247 7.9284 1.33247 7.87009 1.34705C7.84094 1.34705 7.82637 1.36162 7.79722 1.36162C7.69519 1.39077 7.57858 1.40535 7.47655 1.44908C6.31051 1.81347 5.37767 2.7463 5.01329 3.91235C4.98413 4.01437 4.95498 4.1164 4.92583 4.23301C4.92583 4.26216 4.91126 4.27673 4.91126 4.30589C4.89668 4.36419 4.88211 4.42249 4.88211 4.48079C4.88211 4.52452 4.86753 4.56825 4.86753 4.61197C4.85295 4.74315 4.83838 4.88891 4.83838 5.02009V8.86803H5.27565V5.03466C5.27565 3.21272 6.76235 1.72601 8.5843 1.72601H11.4994C13.3068 1.72601 14.7789 3.19814 14.7789 5.00551V8.88261H15.2162V4.99094C15.2016 4.74315 15.187 4.49537 15.1287 4.24758ZM11.4557 3.08154H8.55515C7.49113 3.08154 6.63117 3.9415 6.63117 5.00551V8.86803H7.06844V5.00551C7.06844 4.96179 7.06844 4.90348 7.08301 4.85976C7.08301 4.81603 7.09759 4.7723 7.09759 4.72858C7.09759 4.714 7.09759 4.714 7.09759 4.69943C7.11217 4.62655 7.12674 4.56825 7.15589 4.50994C7.15589 4.48079 7.17047 4.46622 7.18504 4.43707C7.30165 4.14555 7.52028 3.88319 7.79722 3.72286C7.84094 3.69371 7.88467 3.67914 7.91382 3.64999C7.95755 3.63541 8.00127 3.60626 8.045 3.59168C8.08873 3.57711 8.13245 3.56253 8.19076 3.54796C8.30736 3.51881 8.43854 3.50423 8.55515 3.50423H11.4557C12.2865 3.50423 12.957 4.17471 12.957 5.00551V8.85346H13.3942V5.03466C13.3942 3.95607 12.5343 3.08154 11.4557 3.08154Z" fill="#424242"/>
<path d="M15.7263 18.8231H4.32818C3.74515 18.8231 3.26416 18.3421 3.26416 17.7591V9.10125C3.26416 8.51822 3.74515 8.03723 4.32818 8.03723H15.7263C16.3093 8.03723 16.7903 8.51822 16.7903 9.10125V17.7591C16.7903 18.3421 16.3093 18.8231 15.7263 18.8231Z" fill="url(#paint0_linear_136_1024)"/>
<path opacity="0.2" d="M15.7263 8.45991C16.0761 8.45991 16.353 8.73685 16.353 9.08666V17.7445C16.353 18.0944 16.0761 18.3713 15.7263 18.3713H4.32818C3.97836 18.3713 3.70143 18.0944 3.70143 17.7445V9.10124C3.70143 8.75142 3.97836 8.47449 4.32818 8.47449L15.7263 8.45991ZM15.7263 8.02264H4.32818C3.74515 8.02264 3.26416 8.50364 3.26416 9.08666V17.7445C3.26416 18.3276 3.74515 18.8086 4.32818 18.8086H15.7263C16.3093 18.8086 16.7903 18.3276 16.7903 17.7445V9.10124C16.7903 8.50364 16.3093 8.02264 15.7263 8.02264Z" fill="#424242"/>
<defs>
<linearGradient id="paint0_linear_136_1024" x1="10.0272" y1="18.6817" x2="10.0272" y2="8.08122" gradientUnits="userSpaceOnUse">
<stop offset="0.0053611" stop-color="#FFA000"/>
<stop offset="1" stop-color="#FFC107"/>
</linearGradient>
</defs>
</svg>
