<svg width="20" height="20" viewBox="0 0 20 20" fill="none" xmlns="http://www.w3.org/2000/svg">
<path d="M7.56099 18.6524C4.33004 18.6524 2.07221 16.3001 2.07221 12.9303V10.355L1.76507 5.61341C1.73701 5.2221 1.8389 4.8736 2.05006 4.62995C2.22283 4.4306 2.46501 4.31542 2.74853 4.29475C2.77806 4.29327 2.80759 4.2918 2.83565 4.2918C3.43665 4.2918 3.85751 4.74218 3.90624 5.43917C3.90624 5.44507 3.90771 5.45246 3.90771 5.45836L4.47771 9.00089C4.49543 9.10721 4.58698 9.18695 4.69478 9.18695C6.16258 9.19433 8.12064 9.37596 9.80257 9.66096C9.81438 9.66243 9.82767 9.66391 9.83948 9.66391C9.89117 9.66391 9.94137 9.64619 9.98124 9.61223C10.0314 9.57088 10.0595 9.51034 10.061 9.44536L10.1703 2.51093C10.2013 1.9498 10.5379 1.3739 11.2187 1.3739C11.2408 1.3739 11.263 1.3739 11.2866 1.37538C11.5982 1.39162 11.8566 1.526 12.0323 1.76079C12.2036 1.99115 12.2878 2.30715 12.2686 2.64974L12.1992 9.88984C12.1962 10.1763 12.2154 10.4303 12.2583 10.668C12.4576 11.78 12.9744 12.0192 13.3156 12.1787C13.4632 12.2481 13.5489 12.2894 13.5873 12.3633C13.8472 12.8638 13.6316 14.1751 12.8224 15.5056C12.2494 16.4521 10.5852 18.6524 7.56099 18.6524Z" fill="url(#paint0_radial_136_1084)"/>
<path d="M11.2217 1.59687C11.2394 1.59687 11.2586 1.59687 11.2778 1.59835C11.4993 1.61016 11.6795 1.69138 11.8138 1.84052C11.9822 2.02806 12.0693 2.31896 12.0516 2.6394V2.66007L11.9822 9.88983C11.9792 10.1896 11.9999 10.4569 12.0457 10.7094C12.2657 11.9335 12.8682 12.2141 13.227 12.381C13.289 12.4105 13.3732 12.4489 13.3968 12.471C13.5829 12.8417 13.4707 14.0201 12.6363 15.3934C12.0796 16.306 10.473 18.4309 7.56104 18.4309C5.98987 18.4309 4.65496 17.8771 3.69956 16.8302C2.79289 15.8364 2.29525 14.4527 2.29525 12.9303V10.355C2.29525 10.3461 2.29525 10.3358 2.29377 10.3269L1.98663 5.59716C1.963 5.27082 2.04717 4.97105 2.21846 4.77613C2.35432 4.61961 2.53742 4.53248 2.76483 4.51772C2.78993 4.51624 2.81356 4.51476 2.83719 4.51476C3.41456 4.51476 3.65674 5.02274 3.68627 5.45688C3.68775 5.47017 3.68922 5.48346 3.6907 5.49527L4.26069 9.0378C4.29466 9.25191 4.47924 9.40991 4.69631 9.40991C6.1523 9.4173 8.09707 9.59745 9.76866 9.88097C9.79377 9.8854 9.81739 9.88688 9.84249 9.88688C9.94586 9.88688 10.0463 9.85144 10.126 9.78499C10.225 9.7023 10.284 9.58121 10.2855 9.45126L10.3948 2.52569C10.4199 2.09451 10.6517 1.59687 11.2217 1.59687ZM11.2217 1.15387C10.4701 1.15387 9.99459 1.74454 9.95177 2.50797L9.84249 9.4424C8.27723 9.17808 6.29702 8.97282 4.69779 8.96544L4.12779 5.42291C4.07316 4.65652 3.58733 4.06881 2.83571 4.06881C2.80175 4.06881 2.76778 4.07029 2.73234 4.07176C1.92313 4.12788 1.48604 4.82339 1.54363 5.62522L1.85077 10.352V12.9273C1.85077 16.1967 4.00228 18.8709 7.56104 18.8709C12.2849 18.8709 14.497 13.6288 13.7867 12.2584C13.5607 11.8228 12.7471 12.1166 12.4798 10.6267C12.4355 10.3845 12.4222 10.1364 12.4237 9.88983L12.4931 2.66007C12.5359 1.87448 12.0974 1.19965 11.3 1.15535C11.2734 1.15387 11.2468 1.15387 11.2217 1.15387Z" fill="#4A2F27"/>
<path opacity="0.4" d="M7.53451 14.6683C9.78051 14.6683 11.6013 13.315 11.6013 11.6456C11.6013 9.97619 9.78051 8.62286 7.53451 8.62286C5.28852 8.62286 3.46777 9.97619 3.46777 11.6456C3.46777 13.315 5.28852 14.6683 7.53451 14.6683Z" fill="url(#paint1_radial_136_1084)"/>
<path d="M8.50321 12.9997C8.2064 12.9997 7.95094 12.9008 7.76488 12.7118C7.56258 12.5065 7.4533 12.2097 7.45773 11.8745L7.3396 8.77645C7.34698 8.16068 7.90369 7.64828 8.58 7.64532C8.92849 7.64532 9.24302 7.7738 9.47191 8.00563C9.67716 8.21384 9.78939 8.48555 9.78496 8.77055L9.59447 11.8464C9.58561 12.5272 9.13966 12.9968 8.50764 12.9997H8.50321Z" fill="url(#paint2_radial_136_1084)"/>
<path d="M8.58426 7.42383V7.86683C8.86778 7.86683 9.1262 7.97167 9.31374 8.16069C9.47469 8.3246 9.56329 8.53576 9.56329 8.75726L9.3728 11.8317C9.3728 11.8391 9.3728 11.8464 9.37133 11.8538C9.36542 12.3116 9.09667 12.7738 8.50157 12.7767C8.26087 12.7767 8.06595 12.7014 7.92124 12.5552C7.76028 12.3928 7.67464 12.1521 7.67759 11.876V11.8538L7.56093 8.77941C7.57274 8.27734 8.02756 7.8683 8.58131 7.86683L8.58426 7.42383ZM8.58426 7.42383H8.57836C7.78095 7.42678 7.12679 8.03664 7.11646 8.78384L7.23459 11.8715C7.22573 12.6173 7.7086 13.2212 8.50157 13.2212H8.50748C9.30488 13.2183 9.80547 12.6084 9.81433 11.8612L10.0063 8.7735C10.0166 8.02631 9.38019 7.42383 8.58426 7.42383Z" fill="#4A2F27"/>
<path d="M5.96779 12.7974C5.3845 12.7974 4.94298 12.3795 4.8721 11.7563L4.42467 9.21644C4.39366 8.93735 4.47931 8.64645 4.66832 8.41166C4.87653 8.15324 5.19401 7.9849 5.54103 7.94946C5.58681 7.94503 5.63406 7.94208 5.67984 7.94208C6.32366 7.94208 6.85969 8.38951 6.92762 8.98313L7.062 11.4964C7.10334 11.8567 7.02065 12.1786 6.83016 12.4149C6.65739 12.629 6.40636 12.759 6.10512 12.79C6.05786 12.7959 6.01209 12.7974 5.96779 12.7974Z" fill="url(#paint3_radial_136_1084)"/>
<path d="M5.67834 8.16657C6.20403 8.16657 6.64408 8.52393 6.70462 8.99941L6.84048 11.5112C6.84048 11.5201 6.84195 11.5289 6.84343 11.5378C6.87592 11.8258 6.81094 12.0886 6.65737 12.2791C6.52299 12.446 6.32364 12.5478 6.08147 12.5715C6.04308 12.5759 6.00468 12.5774 5.96777 12.5774C5.49523 12.5774 5.15117 12.2466 5.0921 11.7327L5.08767 11.7061L4.64467 9.19433C4.62105 8.96545 4.69045 8.73804 4.83959 8.55198C5.01089 8.33934 5.27373 8.20054 5.56168 8.171C5.60155 8.16805 5.63995 8.16657 5.67834 8.16657ZM5.67834 7.72357C5.62518 7.72357 5.57202 7.72652 5.51738 7.73095C4.70522 7.81365 4.1175 8.49587 4.2061 9.25635L4.65206 11.7829C4.73327 12.4932 5.23977 13.0189 5.96777 13.0189C6.01945 13.0189 6.07261 13.0159 6.12577 13.0115C6.93794 12.9288 7.3706 12.2466 7.28348 11.4861L7.14762 8.95954C7.06493 8.24927 6.42406 7.72357 5.67834 7.72357Z" fill="#4A2F27"/>
<path d="M16.4816 10.1335C17.5891 10.3372 18.4382 11.0372 18.3201 11.8405C18.23 12.4503 17.7737 12.9022 16.9084 12.787C15.4169 12.5877 14.2548 13.2773 13.7601 14.3154C13.1414 15.6148 12.3012 16.7696 11.9335 16.9069C10.3475 17.5005 8.93141 16.3547 9.14405 14.5177C9.36998 12.5611 11.6736 11.1893 12.2746 10.9013C13.1399 10.4849 14.7465 9.81597 16.4816 10.1335Z" fill="url(#paint4_radial_136_1084)"/>
<path d="M16.4816 10.1335C16.1656 10.0759 15.854 10.0508 15.5513 10.0508C14.1869 10.0508 12.9834 10.5602 12.2731 10.9013C12.0029 11.0313 11.0696 11.6397 10.4539 12.1639C10.8407 12.2554 12.2657 11.396 12.4651 11.3C12.88 11.1007 14.1426 10.4938 15.5513 10.4938C15.8407 10.4938 16.1272 10.5189 16.4019 10.5691C17.3071 10.7345 17.9568 11.2646 17.8815 11.7755C17.8239 12.1654 17.5847 12.3618 17.1683 12.3618C17.1048 12.3618 17.0368 12.3573 16.966 12.347C16.7769 12.3219 16.5865 12.3086 16.4019 12.3086C15.0581 12.3086 13.8915 13.0041 13.3585 14.1234C13.1591 14.5413 12.9494 14.9563 12.7043 15.3505C12.5876 15.5381 12.4666 15.7212 12.3233 15.8895C12.1254 16.1214 11.9172 16.3443 11.7061 16.5644C11.5998 16.6751 11.4934 16.7844 11.3871 16.8937C11.3325 16.9498 11.2808 17.0133 11.2217 17.0635C11.1951 17.0856 11.1154 17.1713 11.0859 17.1727C11.2897 17.1595 12.0147 17.7265 13.7572 14.3124C14.2194 13.4072 15.1541 12.7501 16.4004 12.7501C16.5643 12.7501 16.7326 12.7619 16.9054 12.7841C16.997 12.7959 17.0841 12.8018 17.1653 12.8018C17.8623 12.8018 18.2359 12.3824 18.3171 11.8375C18.4382 11.0387 17.5891 10.3373 16.4816 10.1335Z" fill="#4A2E26"/>
<defs>
<radialGradient id="paint0_radial_136_1084" cx="0" cy="0" r="1" gradientUnits="userSpaceOnUse" gradientTransform="translate(7.51339 2.10805) rotate(90.1261) scale(16.8952 7.53684)">
<stop offset="0.2457" stop-color="#5C4037"/>
<stop offset="0.6884" stop-color="#70534A"/>
<stop offset="0.9991" stop-color="#5C4037"/>
</radialGradient>
<radialGradient id="paint1_radial_136_1084" cx="0" cy="0" r="1" gradientUnits="userSpaceOnUse" gradientTransform="translate(7.5351 11.6455) scale(4.3637 2.66011)">
<stop offset="0.3" stop-color="#70534A" stop-opacity="0.8"/>
<stop offset="1" stop-color="#70534A" stop-opacity="0"/>
</radialGradient>
<radialGradient id="paint2_radial_136_1084" cx="0" cy="0" r="1" gradientUnits="userSpaceOnUse" gradientTransform="translate(8.56465 8.43294) rotate(90.3909) scale(4.30038 1.46748)">
<stop offset="0.6064" stop-color="#70534A"/>
<stop offset="0.9991" stop-color="#5C4037"/>
</radialGradient>
<radialGradient id="paint3_radial_136_1084" cx="0" cy="0" r="1" gradientUnits="userSpaceOnUse" gradientTransform="translate(5.76593 9.92022) scale(2.16465)">
<stop offset="0.6064" stop-color="#70534A"/>
<stop offset="0.9991" stop-color="#5C4037"/>
</radialGradient>
<radialGradient id="paint4_radial_136_1084" cx="0" cy="0" r="1" gradientUnits="userSpaceOnUse" gradientTransform="translate(12.1619 8.19317) rotate(163.581) scale(9.77377 10.9704)">
<stop stop-color="#70534A"/>
<stop offset="0.9991" stop-color="#5C4037"/>
</radialGradient>
</defs>
</svg>
